<?xml version="1.0" standalone="no"?>
<!DOCTYPE svg PUBLIC "-//W3C//DTD SVG 1.1//EN" "http://www.w3.org/Graphics/SVG/1.1/DTD/svg11.dtd" >
<svg xmlns="http://www.w3.org/2000/svg">
<metadata>
This is a custom SVG webfont generated by Font Squirrel.
Copyright   : Copyright  S Wiesmayr httpwwwrebelliumde 2006 All rights reserved
Designer    : Simon Wiesmayr
</metadata>
<defs>
<font id="webfontmMW6SWlJ" horiz-adv-x="764" >
<font-face units-per-em="1000" ascent="800" descent="-200" />
<missing-glyph horiz-adv-x="464" />
<glyph unicode=" "  horiz-adv-x="464" />
<glyph unicode="&#x09;" horiz-adv-x="464" />
<glyph unicode="&#xa0;" horiz-adv-x="464" />
<glyph unicode="!" horiz-adv-x="307" d="M59 470.5q0 8.5 5 13.5l49 49q14 14 0 27l-49 50q-13 13 0 26l49 50q14 13 0 27l-49 49q-5 5 -5 13.5t5 13.5q14 13 27 0l50 -49q5 -6 13 -6t13 6l50 49q13 13 26 0q6 -5 6 -13.5t-6 -13.5l-49 -49q-13 -14 0 -27l49 -50q6 -5 6 -13t-6 -13l-49 -50q-13 -13 0 -27l49 -49 q6 -5 6 -13.5t-6 -13.5l-49 -49q-13 -14 0 -27l49 -49q14 -14 0 -27q-5 -6 -13 -6t-13 6l-50 49q-5 6 -13 6t-13 -6l-50 -49q-13 -14 -27 0q-13 13 0 27l49 49q14 13 0 27l-49 49q-5 5 -5 13.5zM64 0q-13 14 0 27l49 49q14 14 0 27l-49 49q-13 14 0 27q14 14 27 0l50 -49 q13 -13 26 0l50 49q5 6 13 6t13 -6q14 -13 0 -27l-49 -49q-13 -13 0 -27l49 -49q14 -13 0 -27q-13 -13 -26 0l-50 49q-5 6 -13 6t-13 -6l-50 -49q-13 -13 -27 0zM113 470.5q0 -8.5 5 -13.5l23 -22q13 -13 26 0l23 22q5 5 5 13.5t-5 13.5l-23 22q-5 6 -13 6t-13 -6l-23 -22 q-5 -5 -5 -13.5zM118 610l23 -23q13 -13 26 0l23 23q13 13 0 26l-23 23q-13 13 -26 0l-23 -23q-13 -13 0 -26z" />
<glyph unicode="&#x22;" horiz-adv-x="612" d="M64 456q-12 14 0 28l202 201q13 13 0 27l-50 49q-13 13 0 27q14 14 28 0l49 -49q13 -13 27 0l49 49q13 14 27 0l49 -49q13 -13 27 0l49 49q14 14 27 0q14 -14 0 -27l-49 -49q-13 -14 0 -27l49 -49q14 -14 0 -28q-13 -13 -27 0l-49 50q-5 5 -13.5 5t-13.5 -5l-201 -202 q-14 -12 -28 0q-12 14 0 28l126 124q12 14 0 28l-22 22q-14 13 -27 0l-201 -202q-14 -12 -28 0zM347 685l22 -22q13 -14 27 0l22 22q14 13 0 27l-22 22q-14 13 -27 0l-22 -22q-13 -14 0 -27z" />
<glyph unicode="#" />
<glyph unicode="$" d="M58 623q0 8 6 13q13 14 27 0l49 -49q13 -13 27 0l98 99q14 13 0 27l-49 49q-13 14 0 27t27 0l49 -49q14 -14 27 0l22 22q14 14 0 27l-49 49q-13 14 0 27q14 13 27 0l50 -49q5 -6 13 -6t13 6l50 49q13 13 26 0q14 -13 0 -27l-49 -49q-13 -13 0 -27l23 -22q5 -6 13 -6t13 6 l50 49q13 13 27 0l49 -49q14 -14 27 0l49 49q14 13 27 0t0 -27l-49 -49q-14 -14 0 -27l49 -50q13 -13 0 -26q-13 -14 -27 0l-49 49q-13 13 -27 0l-49 -49q-14 -14 -27 0l-50 49q-13 13 -26 0l-23 -23q-13 -13 0 -26l49 -50q6 -5 6 -13t-6 -13l-49 -50q-13 -13 0 -27l23 -22 q13 -13 26 0l50 49q13 14 27 0q13 -13 0 -27l-49 -49q-6 -5 -6 -13.5t6 -13.5l98 -99q14 -13 27 0l49 50q14 13 27 0q13 -14 0 -27l-49 -49q-14 -14 0 -27l49 -49q12 -14 0 -28q-13 -13 -27 0l-49 50q-13 13 -27 0l-98 -99q-14 -13 0 -27l49 -49q13 -13 0 -27q-14 -13 -27 0 l-50 49q-5 6 -13 6t-13 -6l-23 -22q-13 -13 0 -27l49 -49q6 -5 6 -13.5t-6 -13.5q-5 -6 -13 -6t-13 6l-50 49q-13 13 -26 0l-50 -49q-13 -14 -27 0q-5 5 -5 13.5t5 13.5l49 49q14 14 0 27l-22 22q-13 14 -27 0l-49 -49q-14 -13 -27 0l-49 49q-14 14 -27 0l-49 -49 q-14 -13 -27 0q-14 14 0 27l49 49q13 14 0 27l-49 49q-14 14 0 28q13 13 27 0l49 -50q13 -13 27 0l49 50q13 13 27 0l49 -50q14 -13 27 0l22 22q14 14 0 28l-49 49q-13 13 0 27l49 49q14 13 0 27l-22 22q-13 14 -27 0l-49 -49q-14 -13 -27 0t0 27l49 49q6 5 6 13.5t-6 13.5 l-98 98q-14 14 -27 0l-49 -49q-14 -13 -27 0q-14 14 0 27l49 50q13 13 0 26l-49 50q-6 5 -6 13zM188 547q0 -8 6 -13l98 -99q14 -13 27 0l22 22q14 14 0 27l-49 50q-13 13 0 26l49 50q6 5 6 13t-6 13l-22 23q-13 13 -27 0l-98 -99q-6 -5 -6 -13zM194 76l22 -22q13 -14 27 0 l22 22q14 14 0 27l-22 23q-14 13 -27 0l-22 -23q-14 -13 0 -27zM341 394.5q0 -8.5 5 -13.5l23 -22q5 -6 13 -6t13 6l23 22q5 5 5 13.5t-5 13.5l-23 22q-5 6 -13 6t-13 -6l-23 -22q-5 -5 -5 -13.5zM346 76l23 -22q5 -6 13 -6t13 6l23 22q13 14 0 27l-23 23q-13 13 -26 0 l-23 -23q-13 -13 0 -27zM346 229l23 -23q13 -13 26 0l23 23q13 13 0 27l-23 22q-13 13 -26 0l-23 -22q-13 -14 0 -27zM346 534l23 -23q13 -13 26 0l23 23q13 13 0 26l-23 23q-13 13 -26 0l-23 -23q-13 -13 0 -26zM346 686l23 -22q5 -6 13 -6t13 6l23 22q13 13 0 27l-23 22 q-13 13 -26 0l-23 -22q-13 -14 0 -27zM422 152l23 -22q13 -13 26 0l99 99q13 13 0 27l-99 98q-5 6 -13 6t-13 -6l-23 -22q-13 -14 0 -27l49 -49q14 -14 0 -27l-49 -49q-12 -14 0 -28zM499 686l22 -22q13 -14 27 0l22 22q13 13 0 27l-22 22q-14 13 -27 0l-22 -22 q-14 -14 0 -27z" />
<glyph unicode="%" horiz-adv-x="917" d="M64 0q-13 14 0 27l49 49q14 14 0 27l-49 49q-12 14 0 28q13 13 27 0l49 -50q5 -5 13.5 -5t13.5 5l99 99q13 13 0 27l-50 49q-13 13 0 27q14 13 27 0l50 -50q13 -13 26 0l99 99q5 5 5 13.5t-5 13.5l-49 49q-14 14 0 27q13 14 27 0l49 -49q13 -13 27 0l99 99q13 13 0 26 l-50 50q-13 13 0 26q14 14 27 0l49 -49q14 -13 27 0l99 99q13 13 0 27l-50 49q-13 14 0 27q14 12 28 0l49 -49q13 -14 27 0l49 49q13 13 27 0q13 -13 0 -27l-49 -49q-14 -14 0 -27l49 -50q13 -13 0 -26q-14 -14 -27 0l-49 49q-14 13 -27 0l-99 -99q-13 -13 0 -26l50 -50 q13 -13 0 -27q-14 -12 -28 0l-49 49q-13 14 -27 0l-98 -98q-6 -5 -6 -13.5t6 -13.5l49 -49q13 -14 0 -27t-27 0l-49 49q-5 6 -13.5 6t-13.5 -6l-98 -98q-14 -14 0 -27l49 -49q12 -14 0 -28q-14 -13 -27 0l-50 50q-13 13 -26 0l-99 -99q-13 -13 0 -27l49 -49q14 -13 0 -27 q-13 -13 -27 0l-49 49q-5 6 -13.5 6t-13.5 -6l-49 -49q-14 -13 -27 0zM64 457q-13 14 0 27l49 50q6 5 6 13t-6 13l-49 50q-13 13 0 26l49 50q14 13 0 27l-49 49q-13 14 0 27t27 0l49 -49q5 -6 13.5 -6t13.5 6l49 49q14 13 27 0l50 -49q5 -6 13 -6t13 6l50 49q13 13 27 0 q13 -13 0 -27l-49 -49q-14 -14 0 -27l49 -50q13 -13 0 -26q-14 -14 -27 0l-50 49q-13 13 -26 0l-99 -99q-13 -13 0 -26l49 -50q14 -13 0 -27q-13 -13 -27 0l-49 49q-5 6 -13.5 6t-13.5 -6l-49 -49q-14 -13 -27 0zM118 610l22 -23q14 -13 27 0l22 23q6 5 6 13t-6 13l-22 23 q-13 13 -27 0l-22 -23q-13 -13 0 -26zM194 686l22 -22q14 -14 27 0l23 22q13 13 0 27l-23 22q-13 13 -27 0l-22 -22q-13 -14 0 -27zM521 0q-13 14 0 27l50 49q13 14 0 27l-50 49q-12 14 0 28q14 13 27 0l49 -50q14 -13 27 0l99 99q13 13 0 27l-50 49q-13 13 0 27q14 12 28 0 l49 -50q13 -13 27 0l49 50q13 13 27 0q13 -14 0 -27l-49 -49q-14 -14 0 -27l49 -49q12 -14 0 -28l-49 -49q-14 -13 0 -27l49 -49q13 -13 0 -27q-14 -13 -27 0l-49 49q-14 14 -27 0l-49 -49q-14 -12 -28 0l-49 49q-13 14 -27 0l-49 -49q-13 -13 -27 0zM651 76l22 -22 q14 -14 28 0l22 22q13 14 0 27l-22 23q-14 12 -28 0l-22 -23q-13 -13 0 -27zM727 152l23 -22q13 -13 27 0l22 22q12 14 0 28l-22 22q-14 13 -27 0l-23 -22q-12 -14 0 -28z" />
<glyph unicode="&#x26;" horiz-adv-x="917" d="M59 470.5q0 8.5 5 13.5q14 14 27 0l49 -49q14 -12 28 0l98 98q13 14 0 27l-98 99q-14 12 -28 0l-49 -49q-13 -14 -27 0q-13 13 0 26l50 50q13 13 0 27l-50 49q-5 5 -5 13.5t5 13.5q14 13 27 0l49 -49q14 -14 28 0l49 49q13 13 27 0l49 -49q13 -14 27 0l49 49q13 13 27 0 l49 -49q14 -14 27 0l50 49q13 13 26 0l50 -49q13 -14 27 0l49 49q14 13 27 0t0 -27l-49 -49q-14 -14 0 -27l49 -50q13 -13 0 -26q-5 -6 -13.5 -6t-13.5 6l-49 49q-14 13 -27 0l-50 -49q-5 -6 -13 -6t-13 6l-50 49q-13 13 -27 0l-98 -99q-14 -13 0 -27l98 -98q14 -13 27 0 l50 49q5 6 13 6t13 -6q6 -5 6 -13.5t-6 -13.5l-49 -49q-13 -14 0 -27l99 -99q13 -13 27 0l49 50q5 5 13.5 5t13.5 -5q13 -14 0 -27l-49 -49q-14 -14 0 -27l98 -99q14 -13 27 0l49 49q14 14 27 0q14 -13 0 -27l-49 -49q-14 -13 0 -27l49 -49q14 -13 0 -27q-13 -13 -27 0 l-49 49q-13 14 -27 0l-49 -49q-5 -5 -13.5 -5t-13.5 5q-14 14 0 27l49 49q13 14 0 27l-98 99q-14 13 -27 0l-99 -99q-13 -13 0 -27l49 -49q14 -13 0 -27q-13 -13 -26 0l-50 49q-13 14 -27 0l-49 -49q-5 -5 -13.5 -5t-13.5 5l-49 49q-14 14 -27 0l-49 -49q-14 -13 -27 0 q-14 14 0 27l49 49q13 14 0 27l-98 99q-14 12 -28 0l-49 -50q-13 -13 -27 0q-13 14 0 27l50 50q13 13 0 27l-50 49q-13 13 0 27l50 49q13 13 0 27l-50 49q-5 5 -5 13.5zM118 305l22 -23q14 -12 28 0l22 23q13 13 0 27l-22 22q-14 14 -28 0l-22 -22q-13 -14 0 -27zM194 229 l99 -99q13 -13 27 0l49 49q5 6 13.5 6t13.5 -6l49 -49q14 -13 27 0l99 99q13 13 0 27l-99 98q-13 14 -27 0l-49 -49q-5 -6 -13.5 -6t-13.5 6q-13 13 0 27l49 49q14 13 0 27l-98 98q-14 14 -27 0l-99 -98q-13 -14 0 -27l50 -49q13 -14 0 -27l-50 -49q-13 -14 0 -27zM194 686 l23 -22q13 -14 27 0l22 22q13 13 0 27l-22 22q-14 13 -27 0l-23 -22q-13 -14 0 -27zM270 610l23 -23q13 -13 27 0l22 23q6 5 6 13t-6 13l-22 23q-14 13 -27 0l-23 -23q-13 -13 0 -26zM347 76l22 -22q5 -6 13.5 -6t13.5 6l22 22q14 14 0 27l-22 23q-5 5 -13.5 5t-13.5 -5 l-22 -23q-14 -13 0 -27zM347 686l22 -22q5 -6 13.5 -6t13.5 6l22 22q14 13 0 27l-22 22q-14 13 -27 0l-22 -22q-14 -14 0 -27zM499 686l23 -22q5 -6 13 -6t13 6l23 22q13 13 0 27l-23 22q-13 13 -26 0l-23 -22q-13 -14 0 -27z" />
<glyph unicode="'" horiz-adv-x="459" d="M64 458q-13 13 0 26l201 202q14 14 0 27l-49 50q-13 13 0 26q14 14 27 0l49 -49q14 -14 27 0l50 49q5 6 13 6t13 -6q6 -5 6 -13t-6 -13l-49 -50q-13 -13 0 -27l49 -49q6 -5 6 -13.5t-6 -13.5q-13 -13 -26 0l-50 49q-13 14 -27 0l-202 -201q-5 -6 -13 -6t-13 6z" />
<glyph unicode="(" horiz-adv-x="460" d="M64 0q-13 14 0 27l49 49q14 14 0 27l-49 49q-12 14 0 28l49 49q14 13 0 27l-49 49q-13 13 0 27l49 49q6 5 6 13.5t-6 13.5l-49 49q-13 14 0 27l49 50q6 5 6 13t-6 13l-49 50q-13 13 0 26l49 50q14 13 0 27l-49 49q-13 14 0 27t27 0l49 -49q5 -6 13.5 -6t13.5 6l99 98 q13 14 0 27l-50 49q-13 14 0 27q14 14 27 0l50 -49q13 -13 26 0l50 49q13 14 27 0q13 -13 0 -27l-49 -49q-14 -13 0 -27l49 -49q13 -13 0 -27q-14 -13 -27 0l-50 49q-5 6 -13 6t-13 -6l-99 -98q-13 -14 0 -27l49 -50q6 -5 6 -13t-6 -13l-49 -50q-13 -13 0 -26l49 -50 q14 -13 0 -27l-49 -49q-5 -5 -5 -13.5t5 -13.5l49 -49q14 -14 0 -27l-49 -49q-13 -14 0 -27l49 -49q14 -14 0 -28l-49 -49q-13 -13 0 -27l99 -98q5 -6 13 -6t13 6l50 49q13 13 27 0q13 -13 0 -27l-49 -49q-6 -5 -6 -13.5t6 -13.5l49 -49q13 -14 0 -27q-14 -14 -27 0l-50 49 q-13 13 -26 0l-50 -49q-13 -14 -27 0q-13 13 0 27l50 49q5 5 5 13.5t-5 13.5l-99 98q-5 6 -13.5 6t-13.5 -6l-49 -49q-14 -13 -27 0zM118 152l22 -22q5 -5 13.5 -5t13.5 5l22 22q14 14 0 28l-22 22q-5 5 -13.5 5t-13.5 -5l-22 -22q-12 -14 0 -28zM118 305l22 -23 q5 -5 13.5 -5t13.5 5l22 23q14 13 0 27l-22 22q-5 6 -13.5 6t-13.5 -6l-22 -22q-13 -14 0 -27zM118 457l22 -22q14 -13 27 0l22 22q14 14 0 27l-22 22q-5 6 -13.5 6t-13.5 -6l-22 -22q-13 -13 0 -27zM118 610l22 -23q14 -13 27 0l22 23q6 5 6 13t-6 13l-22 23q-13 13 -27 0 l-22 -23q-13 -13 0 -26z" />
<glyph unicode=")" horiz-adv-x="460" d="M64 0l49 -49q6 -5 6 -13.5t-6 -13.5l-49 -49q-13 -14 0 -27q14 -14 27 0l50 49q13 13 26 0l50 -49q13 -14 27 0q13 13 0 27l-50 49q-5 5 -5 13.5t5 13.5l99 98q5 6 13.5 6t13.5 -6l49 -49q14 -13 27 0q13 14 0 27l-49 49q-14 14 0 27l49 49q12 14 0 28l-49 49 q-14 13 0 27l49 49q13 13 0 27l-49 49q-6 5 -6 13.5t6 13.5l49 49q13 14 0 27l-49 50q-6 5 -6 13t6 13l49 50q13 13 0 26l-49 50q-14 13 0 27l49 49q13 14 0 27t-27 0l-49 -49q-5 -6 -13.5 -6t-13.5 6l-99 98q-13 14 0 27l50 49q13 14 0 27q-14 14 -27 0l-50 -49 q-13 -13 -26 0l-50 49q-13 14 -27 0q-13 -13 0 -27l49 -49q14 -13 0 -27l-49 -49q-13 -13 0 -27q14 -13 27 0l50 49q5 6 13 6t13 -6l99 -98q13 -14 0 -27l-49 -50q-6 -5 -6 -13t6 -13l49 -50q13 -13 0 -26l-49 -50q-14 -13 0 -27l49 -49q5 -5 5 -13.5t-5 -13.5l-49 -49 q-14 -14 0 -27l49 -49q13 -14 0 -27l-49 -49q-14 -14 0 -28l49 -49q13 -13 0 -27l-99 -98q-5 -6 -13 -6t-13 6l-50 49q-13 13 -27 0q-13 -13 0 -27zM265 623q0 8 6 13l22 23q13 13 27 0l22 -23q13 -13 0 -26l-22 -23q-14 -13 -27 0l-22 23q-6 5 -6 13zM271 152q-14 14 0 28 l22 22q5 5 13.5 5t13.5 -5l22 -22q12 -14 0 -28l-22 -22q-5 -5 -13.5 -5t-13.5 5zM271 305q-14 13 0 27l22 22q5 6 13.5 6t13.5 -6l22 -22q13 -14 0 -27l-22 -23q-5 -5 -13.5 -5t-13.5 5zM271 457q-14 14 0 27l22 22q5 6 13.5 6t13.5 -6l22 -22q13 -13 0 -27l-22 -22 q-14 -13 -27 0z" />
<glyph unicode="*" horiz-adv-x="613" d="M64 152q-13 14 0 27l50 49q12 14 0 28l-50 49q-13 13 0 27q14 13 27 0l50 -50q13 -13 26 0l99 99q13 13 0 26l-99 99q-13 13 -26 0l-50 -49q-13 -14 -27 0q-13 13 0 27l50 49q13 14 0 27l-50 49q-13 14 0 27q14 13 27 0l50 -49q5 -6 13 -6t13 6l50 49q13 13 27 0 q13 -13 0 -27l-49 -49q-14 -13 0 -27l98 -98q5 -6 13.5 -6t13.5 6l99 98q13 14 0 27l-50 49q-13 14 0 27q14 13 27 0l49 -49q14 -14 27 0l49 49q14 12 28 0q13 -13 0 -27l-50 -49q-13 -13 0 -27l50 -49q13 -14 0 -27q-14 -14 -28 0l-49 49q-13 13 -27 0l-98 -99 q-6 -5 -6 -13t6 -13l98 -99q14 -13 27 0l49 50q14 12 28 0q13 -14 0 -27l-50 -49q-12 -14 0 -28l50 -49q13 -13 0 -27q-14 -12 -28 0l-49 50q-13 13 -27 0l-49 -50q-13 -13 -27 0q-13 14 0 27l50 49q12 14 0 28l-99 98q-5 5 -13.5 5t-13.5 -5l-98 -98q-14 -14 0 -28l35 -35 l21 -21q6 -6 -7 -20q-14 -13 -21 -6l-20 20l-36 36q-13 13 -26 0l-50 -50q-13 -13 -27 0z" />
<glyph unicode="+" horiz-adv-x="459" d="M58 12.5q0 8.5 6 13.5q13 13 26 0l50 -50q13 -13 27 0l202 202q5 6 13 6t13 -6q13 -13 0 -26l-201 -202q-14 -14 0 -27l49 -50q13 -13 0 -26q-14 -14 -27 0l-49 49q-14 14 -27 0l-50 -49q-5 -6 -13 -6t-13 6q-6 5 -6 13t6 13l49 50q13 13 0 27l-49 49q-6 5 -6 13.5z" />
<glyph unicode="," horiz-adv-x="314" d="M-81 -126l201 202q14 14 0 27l-49 50q-13 13 0 26q14 14 27 0l49 -49q14 -14 27 0l50 49q5 6 13 6t13 -6q6 -5 6 -13t-6 -13l-49 -50q-13 -13 0 -27l49 -49q6 -5 6 -13.5t-6 -13.5q-13 -13 -26 0l-50 50q-13 13 -27 0l-202 -202q-5 -6 -13 -6t-13 6q-13 13 0 26z" />
<glyph unicode="-" horiz-adv-x="916" d="M64 152q-14 14 0 27l201 202q6 5 6 13.5t-6 13.5l-49 49q-13 14 0 27q14 13 27 0l49 -49q14 -14 28 0l48 49q14 12 28 0l49 -49q13 -14 27 0l49 49q13 13 27 0l49 -49q13 -14 27 0l202 202q13 13 26 0q14 -14 0 -27l-201 -202q-13 -14 0 -27l49 -49q14 -14 0 -27 q-13 -13 -27 0l-49 49q-14 14 -27 0l-49 -49q-14 -13 -27 0l-49 49q-14 14 -27 0l-49 -49q-14 -12 -28 0l-48 49q-14 14 -28 0l-201 -202q-13 -13 -27 0zM341 394.5q0 -8.5 5 -13.5l22 -23q14 -12 28 0l22 23q5 5 5 13.5t-5 13.5l-22 22q-14 14 -28 0l-22 -22 q-5 -5 -5 -13.5zM499 381l22 -23q13 -13 27 0l22 23q6 5 6 13.5t-6 13.5l-22 22q-14 14 -27 0l-22 -22q-13 -14 0 -27z" />
<glyph unicode="." horiz-adv-x="307" d="M64 0q-13 14 0 27l49 49q14 14 0 27l-49 49q-13 14 0 27q14 14 27 0l50 -49q13 -13 26 0l50 49q5 6 13 6t13 -6q14 -13 0 -27l-49 -49q-13 -13 0 -27l49 -49q14 -13 0 -27q-13 -13 -26 0l-50 49q-5 6 -13 6t-13 -6l-50 -49q-13 -13 -27 0z" />
<glyph unicode="/" horiz-adv-x="917" d="M64 0q-13 14 0 27l49 49q14 14 0 27l-49 49q-12 14 0 28q13 13 27 0l49 -50q5 -5 13.5 -5t13.5 5l99 99q13 13 0 27l-50 49q-13 13 0 27q14 13 27 0l50 -50q13 -13 26 0l99 99q5 5 5 13.5t-5 13.5l-49 49q-14 14 0 27q13 14 27 0l49 -49q13 -13 27 0l99 99q13 13 0 26 l-50 50q-13 13 0 26q14 14 27 0l49 -49q14 -13 27 0l99 99q13 13 0 27l-50 49q-13 14 0 27q14 12 28 0l49 -49q13 -14 27 0l49 49q13 13 27 0q13 -13 0 -27l-49 -49q-14 -14 0 -27l49 -50q13 -13 0 -26q-14 -14 -27 0l-49 49q-14 13 -27 0l-99 -99q-13 -13 0 -26l50 -50 q13 -13 0 -27q-14 -12 -28 0l-49 49q-13 14 -27 0l-98 -98q-6 -5 -6 -13.5t6 -13.5l49 -49q13 -14 0 -27t-27 0l-49 49q-5 6 -13.5 6t-13.5 -6l-98 -98q-14 -14 0 -27l49 -49q12 -14 0 -28q-14 -13 -27 0l-50 50q-13 13 -26 0l-99 -99q-13 -13 0 -27l49 -49q14 -13 0 -27 q-13 -13 -27 0l-49 49q-5 6 -13.5 6t-13.5 -6l-49 -49q-14 -13 -27 0z" />
<glyph unicode="0" horiz-adv-x="765" d="M59 470.5q0 8.5 5 13.5l50 49q13 14 0 27l-50 50q-13 13 0 26q14 14 27 0l50 -49q13 -13 26 0l99 99q13 13 0 27l-49 49q-6 5 -6 13.5t6 13.5q13 13 27 0l49 -49q5 -6 13.5 -6t13.5 6l49 49q14 13 27 0l49 -49q14 -14 27 0l49 49q14 12 28 0q13 -13 0 -27l-50 -49 q-13 -14 0 -27l99 -99q13 -13 27 0l49 49q13 14 27 0q13 -13 0 -26l-49 -50q-14 -13 0 -27l49 -49q13 -14 0 -27l-49 -49q-14 -14 0 -27l49 -49q13 -14 0 -27l-49 -49q-14 -14 0 -27l49 -50q13 -13 0 -27q-14 -13 -27 0l-49 50q-14 13 -27 0l-99 -99q-13 -13 0 -27l50 -49 q13 -13 0 -27q-14 -12 -28 0l-49 49q-13 14 -27 0l-49 -49q-13 -13 -27 0l-49 49q-5 6 -13.5 6t-13.5 -6l-49 -49q-14 -13 -27 0q-14 14 0 27l49 49q13 14 0 27l-99 99q-13 13 -26 0l-50 -50q-13 -13 -27 0q-13 14 0 27l50 50q13 13 0 27l-50 49q-13 13 0 27l50 49 q13 13 0 27l-50 49q-5 5 -5 13.5zM113 470.5q0 -8.5 5 -13.5l23 -22q13 -13 26 0l23 22q5 5 5 13.5t-5 13.5l-23 22q-5 6 -13 6t-13 -6l-23 -22q-5 -5 -5 -13.5zM118 305l23 -23q13 -13 26 0l23 23q13 13 0 27l-23 22q-5 6 -13 6t-13 -6l-23 -22q-13 -14 0 -27zM195 229 l98 -99q5 -5 13.5 -5t13.5 5l49 49q14 14 27 0l49 -49q14 -13 27 0l99 99q13 13 0 27l-50 49q-13 13 0 27l50 49q13 13 0 27l-50 49q-13 13 0 27l50 49q13 14 0 27l-99 99q-13 13 -27 0l-49 -49q-13 -14 -27 0l-49 49q-14 13 -27 0l-98 -99q-14 -13 0 -27l49 -49 q5 -5 5 -13.5t-5 -13.5l-49 -49q-14 -14 0 -27l49 -49q13 -14 0 -27l-49 -49q-14 -14 0 -27zM287 470.5q0 8.5 6 13.5q5 6 13.5 6t13.5 -6l49 -49q14 -13 27 0l49 49q14 14 27 0q6 -5 6 -13.5t-6 -13.5l-49 -49q-13 -14 0 -27l49 -49q14 -14 0 -27q-13 -14 -27 0l-49 49 q-13 14 -27 0l-49 -49q-5 -6 -13.5 -6t-13.5 6q-14 13 0 27l49 49q14 13 0 27l-49 49q-6 5 -6 13.5zM347 76l22 -22q14 -14 27 0l23 22q13 14 0 27l-23 23q-13 13 -27 0l-22 -23q-14 -13 0 -27zM347 686l22 -22q14 -14 27 0l23 22q13 13 0 27l-23 22q-13 13 -27 0l-22 -22 q-14 -14 0 -27zM575 305l23 -23q13 -13 27 0l22 23q13 13 0 27l-22 22q-14 14 -27 0l-23 -22q-13 -14 0 -27zM575 457l23 -22q13 -13 27 0l22 22q13 13 0 27l-22 22q-14 14 -27 0l-23 -22q-13 -14 0 -27z" />
<glyph unicode="1" horiz-adv-x="612" d="M59 470.5q0 8.5 5 13.5l49 49q14 14 0 27l-49 49q-13 14 0 27q13 14 27 0l49 -49q14 -13 27 0l99 98q13 14 0 27l-50 50q-13 13 0 27q14 13 27 0l49 -49q14 -14 27 0l50 49q13 13 27 0l49 -49q13 -14 27 0l49 49q13 13 27 0q13 -14 0 -27l-49 -50q-14 -13 0 -27l49 -49 q13 -13 0 -27l-49 -49q-14 -13 0 -27l49 -49q5 -5 5 -13.5t-5 -13.5l-49 -49q-14 -14 0 -27l49 -49q13 -14 0 -27l-49 -50q-14 -13 0 -27l49 -49q13 -13 0 -27l-49 -49q-6 -5 -6 -13.5t6 -13.5l49 -49q13 -14 0 -27q-5 -5 -13.5 -5t-13.5 5l-49 49q-14 14 -27 0l-49 -49 q-14 -13 -27 0q-14 13 0 27l49 49q5 5 5 13.5t-5 13.5l-49 49q-14 14 0 27l49 49q13 14 0 27l-49 50q-14 13 0 27l49 49q13 13 0 27l-49 49q-6 5 -6 13.5t6 13.5l49 49q13 14 0 27l-99 99q-13 13 -27 0l-98 -99q-13 -13 0 -27l49 -49q6 -5 6 -13.5t-6 -13.5q-13 -13 -27 0 l-49 49q-13 14 -27 0l-49 -49q-14 -13 -27 0q-5 5 -5 13.5zM346 685l23 -22q13 -13 27 0l22 22q13 14 0 27l-22 23q-14 13 -27 0l-23 -23q-13 -13 0 -27zM417 470.5q0 -8.5 6 -13.5l22 -22q13 -14 27 0l22 22q6 5 6 13.5t-6 13.5l-22 22q-14 14 -27 0l-22 -22 q-6 -5 -6 -13.5zM423 152l22 -22q13 -13 27 0l22 22q14 14 0 27l-22 23q-14 13 -27 0l-22 -23q-14 -13 0 -27zM423 305l22 -23q13 -13 27 0l22 23q14 13 0 27l-22 22q-14 13 -27 0l-22 -22q-14 -14 0 -27zM423 609l22 -22q13 -13 27 0l22 22q14 14 0 27l-22 23q-14 13 -27 0 l-22 -23q-14 -13 0 -27z" />
<glyph unicode="2" horiz-adv-x="765" d="M64 0q-13 13 0 27l49 49q14 14 0 27l-49 49q-13 14 0 27l49 49q14 14 0 27l-49 50q-13 13 0 27q13 13 27 0l49 -50q5 -5 13.5 -5t13.5 5l99 99q13 13 0 27l-50 49q-13 13 0 27q14 13 27 0l50 -49q5 -6 13 -6t13 6l50 49q13 13 27 0l49 -49q5 -6 13.5 -6t13.5 6l98 98 q14 14 0 27l-98 99q-14 13 -27 0l-49 -49q-14 -14 -27 0l-50 49q-13 13 -26 0l-50 -49q-13 -14 -27 0l-49 49q-13 13 -27 0l-49 -49q-14 -14 -27 0q-13 13 0 26l49 50q6 5 6 13t-6 13l-49 50q-13 13 0 27q13 13 27 0l49 -49q5 -6 13.5 -6t13.5 6l49 49q14 13 27 0l50 -49 q5 -6 13 -6t13 6l50 49q13 13 27 0l49 -49q5 -6 13.5 -6t13.5 6l49 49q14 13 27 0q13 -14 0 -27l-49 -50q-6 -5 -6 -13t6 -13l98 -99q14 -13 27 0l49 49q14 14 28 0q13 -13 0 -26l-50 -50q-13 -13 0 -27l50 -49q13 -14 0 -27q-14 -12 -28 0l-49 49q-13 14 -27 0l-98 -98 q-14 -14 0 -27l49 -49q13 -14 0 -27q-13 -14 -27 0l-49 49q-5 5 -13.5 5t-13.5 -5l-49 -49q-14 -14 -27 0l-50 49q-13 13 -26 0l-99 -99q-13 -13 0 -27l99 -98q5 -6 13 -6t13 6l50 49q13 13 27 0l49 -49q5 -6 13.5 -6t13.5 6l49 49q14 13 27 0l49 -49q14 -14 27 0l49 49 q14 12 28 0q13 -13 0 -27l-50 -49q-13 -13 0 -27l50 -49q13 -14 0 -27q-14 -14 -28 0l-49 49q-13 13 -27 0l-49 -49q-13 -14 -27 0l-49 49q-14 13 -27 0l-49 -49q-14 -14 -27 0l-50 49q-13 13 -26 0l-50 -49q-13 -14 -27 0l-49 49q-13 13 -27 0l-49 -49q-14 -14 -27 0z M118 152l22 -22q5 -6 13.5 -6t13.5 6l22 22q14 14 0 27l-22 23q-5 5 -13.5 5t-13.5 -5l-22 -23q-13 -13 0 -27zM194 76l22 -22q14 -14 27 0l23 22q13 14 0 27l-23 22q-13 14 -27 0l-22 -22q-13 -13 0 -27zM194 686l22 -23q14 -13 27 0l23 23q13 13 0 26l-23 23q-13 13 -27 0 l-22 -23q-13 -13 0 -26zM341 699q0 -8 6 -13l22 -23q13 -13 27 0l22 23q13 13 0 26l-22 23q-14 13 -27 0l-22 -23q-6 -5 -6 -13zM347 76l22 -22q13 -14 27 0l22 22q13 14 0 27l-22 22q-14 14 -27 0l-22 -22q-14 -13 0 -27zM347 381l22 -23q13 -13 27 0l22 23q13 13 0 27 l-22 22q-14 14 -27 0l-22 -22q-14 -14 0 -27zM499 76l22 -22q14 -14 27 0l22 22q14 14 0 27l-22 22q-13 14 -27 0l-22 -22q-14 -13 0 -27z" />
<glyph unicode="3" d="M59 470.5q0 8.5 5 13.5l49 49q14 14 0 27l-49 50q-13 13 0 26q14 14 27 0l49 -49q14 -13 27 0l99 99q13 13 0 27l-50 49q-5 5 -5 13.5t5 13.5q14 13 27 0l49 -49q14 -14 28 0l49 49q13 13 27 0l49 -49q13 -14 27 0l49 49q13 13 27 0q6 -5 6 -13.5t-6 -13.5l-49 -49 q-13 -14 0 -27l98 -99q14 -13 27 0l50 49q5 6 13 6t13 -6q6 -5 6 -13t-6 -13l-49 -50q-13 -13 0 -27l49 -49q6 -5 6 -13.5t-6 -13.5q-13 -13 -26 0l-50 49q-13 14 -27 0l-98 -98q-13 -14 0 -27l98 -99q14 -13 27 0l50 50q13 13 26 0q14 -14 0 -27l-49 -49q-12 -14 0 -28 l49 -49q14 -13 0 -27q-13 -13 -26 0l-50 50q-13 13 -27 0l-98 -99q-13 -13 0 -27l49 -49q14 -13 0 -27q-5 -5 -13.5 -5t-13.5 5l-49 49q-14 14 -27 0l-49 -49q-14 -13 -27 0l-49 49q-14 14 -28 0l-49 -49q-13 -13 -27 0l-49 49q-13 14 -27 0l-49 -49q-13 -13 -27 0 q-13 14 0 27l49 49q14 14 0 27l-49 49q-13 14 0 27q14 14 27 0l49 -49q14 -13 27 0l49 49q14 14 27 0l49 -49q14 -12 28 0l49 49q13 14 27 0l49 -49q13 -13 27 0l98 98q14 14 0 28l-98 98q-14 14 -27 0l-49 -49q-14 -14 -27 0q-14 13 0 27l49 49q14 13 0 27l-49 49 q-6 5 -6 13.5t6 13.5q13 14 27 0l49 -49q13 -13 27 0l98 98q14 14 0 27l-98 99q-14 13 -27 0l-49 -49q-14 -14 -27 0l-49 49q-14 12 -28 0l-98 -99q-13 -13 0 -27l49 -49q6 -5 6 -13.5t-6 -13.5q-13 -13 -27 0l-49 49q-13 14 -27 0l-49 -49q-13 -13 -27 0q-5 5 -5 13.5z M194 76l22 -22q14 -14 27 0l23 22q13 14 0 27l-23 23q-13 13 -27 0l-22 -23q-13 -13 0 -27zM346 76l23 -22q13 -14 27 0l22 22q14 14 0 27l-22 23q-14 13 -27 0l-23 -23q-13 -13 0 -27zM346 686l23 -22q13 -14 27 0l22 22q14 13 0 27l-22 22q-14 13 -27 0l-23 -22 q-13 -14 0 -27z" />
<glyph unicode="4" horiz-adv-x="917" d="M64 152q-12 14 0 28l50 49q13 13 0 27l-50 49q-13 13 0 27q14 13 27 0l50 -50q13 -13 27 0l98 99q6 5 6 13.5t-6 13.5l-49 49q-13 14 0 27q13 14 27 0l49 -49q13 -13 27 0l98 99q6 5 6 13t-6 13l-49 50q-13 13 0 26q14 14 27 0l49 -49q14 -13 27 0l99 99q13 13 0 27 l-49 49q-14 14 0 27q13 13 26 0l50 -49q13 -14 27 0l49 49q14 13 27 0t0 -27l-49 -49q-14 -14 0 -27l49 -50q13 -13 0 -26l-49 -50q-6 -5 -6 -13t6 -13l49 -50q13 -13 0 -27l-49 -49q-6 -5 -6 -13.5t6 -13.5l98 -99q14 -13 27 0l49 50q14 13 27 0q14 -14 0 -27l-49 -49 q-13 -14 0 -27l49 -49q14 -14 0 -28q-13 -13 -27 0l-49 50q-13 13 -27 0l-98 -99q-14 -13 0 -27l49 -49q13 -13 0 -27q-5 -5 -13.5 -5t-13.5 5l-49 49q-14 14 -27 0l-50 -49q-13 -13 -26 0q-14 14 0 27l49 49q13 14 0 27l-99 99q-13 13 -27 0l-49 -50q-13 -13 -27 0l-49 50 q-14 13 -27 0l-49 -50q-14 -13 -27 0l-49 50q-14 13 -27 0l-50 -50q-13 -13 -27 0zM194 229l23 -23q13 -13 27 0l22 23q14 13 0 27l-22 22q-14 13 -27 0l-23 -22q-13 -14 0 -27zM271 305l22 -23q13 -13 27 0l22 23q14 13 0 27l-22 22q-14 14 -27 0l-22 -22q-14 -14 0 -27z M347 229l22 -23q14 -13 27 0l22 23q14 13 0 27l-22 22q-13 13 -27 0l-22 -22q-13 -14 0 -27zM347 381l98 -99q14 -13 27 0l99 99q13 13 0 27l-99 98q-13 14 -27 0l-98 -98q-13 -14 0 -27zM499 229l23 -23q13 -13 26 0l23 23q13 13 0 27l-23 22q-13 13 -26 0l-23 -22 q-13 -14 0 -27zM499 534l23 -23q13 -13 26 0l23 23q13 13 0 26l-23 23q-13 13 -26 0l-23 -23q-13 -13 0 -26zM570 623q0 -8 6 -13l22 -23q13 -13 27 0l22 23q13 13 0 26l-22 23q-14 13 -27 0l-22 -23q-6 -5 -6 -13zM576 152l22 -22q13 -13 27 0l22 22q12 14 0 28l-22 22 q-14 13 -27 0l-22 -22q-14 -14 0 -28zM576 305l22 -23q13 -13 27 0l22 23q13 13 0 27l-22 22q-14 14 -27 0l-22 -22q-14 -14 0 -27zM576 457l22 -22q13 -13 27 0l22 22q13 14 0 27l-22 22q-14 14 -27 0l-22 -22q-14 -13 0 -27zM652 229l22 -23q5 -5 13.5 -5t13.5 5l22 23 q14 13 0 27l-22 22q-5 5 -13.5 5t-13.5 -5l-22 -22q-14 -14 0 -27z" />
<glyph unicode="5" horiz-adv-x="765" d="M59 470.5q0 8.5 5 13.5l49 49q14 14 0 27l-49 50q-13 13 0 26l49 50q14 13 0 27l-49 49q-5 5 -5 13.5t5 13.5q14 13 27 0l50 -49q5 -6 13 -6t13 6l50 49q13 13 27 0l49 -49q5 -6 13.5 -6t13.5 6l49 49q14 13 27 0l49 -49q14 -14 27 0l49 49q14 13 27 0l50 -49 q13 -14 27 0l49 49q13 13 27 0q13 -13 0 -27l-50 -49q-13 -14 0 -27l50 -50q13 -13 0 -26q-14 -14 -27 0l-49 49q-14 13 -27 0l-50 -49q-13 -14 -27 0l-49 49q-13 13 -27 0l-49 -49q-13 -14 -27 0l-49 49q-14 13 -27 0l-99 -99q-13 -13 0 -27l99 -98q13 -13 27 0l49 49 q14 14 27 0l49 -49q14 -13 27 0l49 49q14 14 27 0q6 -5 6 -13.5t-6 -13.5l-49 -49q-13 -14 0 -27l99 -99q13 -13 27 0l49 50q13 13 27 0q13 -14 0 -27l-50 -49q-13 -14 0 -27l50 -50q13 -13 0 -27q-14 -13 -27 0l-49 50q-14 13 -27 0l-99 -99q-13 -13 0 -27l49 -49 q14 -13 0 -27q-13 -13 -27 0l-49 49q-13 14 -27 0l-49 -49q-13 -13 -27 0l-49 49q-5 6 -13.5 6t-13.5 -6l-49 -49q-14 -13 -27 0l-50 49q-5 6 -13 6t-13 -6l-50 -49q-13 -13 -27 0q-13 14 0 27l49 49q14 14 0 27l-49 49q-13 14 0 27q14 14 27 0l50 -49q13 -13 26 0l50 49 q13 14 27 0l49 -49q5 -5 13.5 -5t13.5 5l49 49q14 14 27 0l49 -49q14 -13 27 0l99 99q13 13 0 27l-99 98q-13 14 -27 0l-49 -49q-13 -14 -27 0l-49 49q-5 6 -13.5 6t-13.5 -6l-49 -49q-14 -14 -27 0l-50 49q-5 6 -13 6t-13 -6l-50 -49q-13 -14 -27 0q-13 13 0 27l49 49 q14 13 0 27l-49 49q-5 5 -5 13.5zM113 470.5q0 -8.5 5 -13.5l23 -22q13 -13 26 0l23 22q5 5 5 13.5t-5 13.5l-23 22q-5 6 -13 6t-13 -6l-23 -22q-5 -5 -5 -13.5zM118 610l23 -23q13 -13 26 0l23 23q13 13 0 26l-23 23q-13 13 -26 0l-23 -23q-13 -13 0 -26zM194 76l23 -22 q13 -14 27 0l22 22q13 14 0 27l-22 23q-14 13 -27 0l-23 -23q-13 -13 0 -27zM194 381l23 -22q13 -14 27 0l22 22q13 13 0 27l-22 22q-14 14 -27 0l-23 -22q-13 -14 0 -27zM194 686l23 -22q13 -14 27 0l22 22q13 13 0 27l-22 22q-14 13 -27 0l-23 -22q-13 -14 0 -27zM347 76 l22 -22q14 -14 27 0l22 22q14 14 0 27l-22 23q-13 13 -27 0l-22 -23q-14 -13 0 -27zM347 381l22 -22q14 -14 27 0l22 22q14 13 0 27l-22 22q-13 14 -27 0l-22 -22q-14 -14 0 -27zM347 686l22 -22q14 -14 27 0l22 22q14 13 0 27l-22 22q-13 13 -27 0l-22 -22q-14 -14 0 -27z M499 686l22 -22q14 -14 27 0l23 22q13 13 0 27l-23 22q-13 13 -27 0l-22 -22q-13 -14 0 -27z" />
<glyph unicode="6" horiz-adv-x="765" d="M59 318.5q0 8.5 5 13.5l49 49q14 14 0 27l-49 49q-13 14 0 27l49 49q14 14 0 28l-49 49q-13 13 0 27q14 13 27 0l50 -50q13 -13 26 0l99 99q13 13 0 27l-49 49q-6 5 -6 13.5t6 13.5q13 14 27 0l49 -49q5 -5 13.5 -5t13.5 5l49 49q14 14 27 0l49 -49q14 -13 27 0l49 49 q14 14 28 0q13 -13 0 -27l-50 -49q-13 -14 0 -27l50 -49q13 -14 0 -27q-14 -14 -28 0l-49 49q-13 14 -27 0l-49 -49q-13 -14 -27 0l-49 49q-5 6 -13.5 6t-13.5 -6l-98 -98q-14 -14 0 -28l98 -98q13 -13 27 0l49 49q14 14 27 0l49 -49q14 -13 27 0l49 49q14 14 28 0 q13 -13 0 -27l-50 -49q-13 -13 0 -27l99 -98q13 -14 27 0l49 49q13 13 27 0q13 -14 0 -27l-50 -49q-13 -14 0 -27l50 -50q13 -13 0 -26q-14 -14 -27 0l-49 49q-14 13 -27 0l-99 -99q-13 -13 0 -27l50 -49q13 -13 0 -27q-14 -12 -28 0l-49 49q-13 14 -27 0l-49 -49 q-13 -13 -27 0l-49 49q-5 6 -13.5 6t-13.5 -6l-49 -49q-14 -13 -27 0q-6 5 -6 13.5t6 13.5l49 49q13 14 0 27l-99 99q-13 13 -26 0l-50 -49q-13 -14 -27 0q-13 13 0 26l49 50q14 13 0 27l-49 49q-5 5 -5 13.5zM113 318.5q0 -8.5 5 -13.5l23 -22q5 -6 13 -6t13 6l23 22 q5 5 5 13.5t-5 13.5l-23 22q-5 6 -13 6t-13 -6l-23 -22q-5 -5 -5 -13.5zM118 457l23 -22q13 -13 26 0l23 22q13 14 0 27l-23 23q-13 13 -26 0l-23 -23q-13 -13 0 -27zM195 229l98 -99q5 -5 13.5 -5t13.5 5l49 49q14 14 27 0l49 -49q14 -13 27 0l99 99q13 13 0 27l-99 98 q-13 14 -27 0l-49 -49q-13 -14 -27 0l-49 49q-5 6 -13.5 6t-13.5 -6l-98 -98q-14 -14 0 -27zM195 381l22 -22q13 -14 27 0l22 22q13 14 0 27l-22 23q-14 13 -27 0l-22 -23q-14 -13 0 -27zM347 76l22 -22q14 -13 27 0l22 22q14 14 0 27l-22 23q-13 13 -27 0l-22 -23 q-14 -13 0 -27zM347 381l22 -22q14 -14 27 0l22 22q14 14 0 27l-22 23q-13 13 -27 0l-22 -23q-14 -13 0 -27zM347 686l22 -22q14 -14 27 0l22 22q14 13 0 27l-22 22q-13 14 -27 0l-22 -22q-14 -14 0 -27z" />
<glyph unicode="7" d="M59 775.5q0 8.5 5 13.5q14 13 27 0l49 -49q14 -14 27 0l49 49q14 12 28 0l49 -49q13 -14 27 0l49 49q13 13 27 0l49 -49q13 -14 27 0l49 49q14 13 27 0l50 -49q5 -6 13 -6t13 6l50 49q13 13 26 0q6 -5 6 -13.5t-6 -13.5l-49 -49q-13 -14 0 -27l49 -50q6 -5 6 -13t-6 -13 l-49 -50q-13 -13 0 -27l49 -49q6 -5 6 -13.5t-6 -13.5q-13 -13 -26 0l-50 49q-5 6 -13 6t-13 -6l-99 -98q-13 -14 0 -27l49 -49q14 -14 0 -27q-13 -14 -27 0l-49 49q-14 14 -27 0l-99 -98q-13 -14 0 -27l50 -50q13 -13 0 -27l-50 -49q-13 -13 0 -27l50 -49q13 -13 0 -27 q-14 -13 -27 0l-49 49q-14 14 -27 0l-49 -49q-14 -12 -28 0q-13 14 0 27l50 49q13 14 0 27l-50 49q-13 14 0 27l50 50q13 13 0 27l-50 49q-13 13 0 27q14 12 28 0l49 -50q13 -13 27 0l98 99q14 13 0 27l-49 49q-13 13 0 27t27 0l49 -49q13 -13 27 0l98 98q14 14 0 27l-98 99 q-14 13 -27 0l-49 -49q-14 -14 -27 0l-49 49q-14 13 -27 0l-49 -49q-14 -14 -28 0l-49 49q-13 13 -27 0l-49 -49q-13 -14 -27 0q-13 13 0 26l49 50q14 13 0 27l-49 49q-5 5 -5 13.5zM194 686l22 -22q14 -14 28 0l22 22q13 13 0 27l-22 22q-14 12 -28 0l-22 -22 q-13 -14 0 -27zM270 152l23 -22q13 -13 27 0l22 22q13 14 0 27l-22 23q-14 13 -27 0l-23 -23q-13 -13 0 -27zM346 686l23 -22q13 -14 27 0l22 22q14 13 0 27l-22 22q-14 13 -27 0l-23 -22q-13 -14 0 -27zM499 686l22 -22q14 -14 27 0l22 22q14 13 0 27l-22 22q-13 13 -27 0 l-22 -22q-13 -14 0 -27zM575 610l23 -23q13 -13 26 0l23 23q13 13 0 26l-23 23q-13 13 -26 0l-23 -23q-13 -13 0 -26z" />
<glyph unicode="8" d="M64 152q-14 14 0 28l49 49q13 13 0 27l-49 49q-14 13 0 27q13 13 27 0l49 -49q5 -6 13.5 -6t13.5 6l98 98q6 5 6 13.5t-6 13.5l-98 99q-13 13 -27 0l-49 -50q-14 -13 -27 0q-14 14 0 27l49 50q13 13 0 26l-49 50q-14 13 0 27q13 13 27 0l49 -49q5 -6 13.5 -6t13.5 6 l98 98q6 5 6 13.5t-6 13.5l-49 49q-13 14 0 27q14 13 27 0l49 -49q14 -14 27 0l49 49q14 12 28 0l49 -49q13 -14 27 0l49 49q13 13 27 0q13 -13 0 -27l-50 -49q-5 -5 -5 -13.5t5 -13.5l99 -98q13 -14 27 0l49 49q14 13 27 0q14 -14 0 -27l-49 -50q-13 -13 0 -26l49 -50 q14 -13 0 -27q-13 -13 -27 0l-49 50q-14 13 -27 0l-99 -99q-5 -5 -5 -13.5t5 -13.5l99 -98q13 -14 27 0l49 49q14 13 27 0q14 -14 0 -27l-49 -49q-13 -14 0 -27l49 -49q14 -14 0 -28q-13 -13 -27 0l-49 50q-14 13 -27 0l-99 -99q-13 -13 0 -27l50 -49q13 -13 0 -27 q-14 -13 -27 0l-49 50q-14 13 -27 0l-49 -50q-14 -12 -28 0l-49 50q-13 13 -27 0l-49 -50q-13 -13 -27 0q-13 14 0 27l49 49q14 14 0 27l-98 99q-5 5 -13.5 5t-13.5 -5l-49 -50q-14 -13 -27 0zM188 547q0 -8 6 -13l98 -99q14 -13 27 0l49 49q14 14 28 0l49 -49q13 -13 27 0 l98 99q6 5 6 13t-6 13l-98 99q-14 13 -27 0l-49 -49q-14 -14 -28 0l-49 49q-13 13 -27 0l-98 -99q-6 -5 -6 -13zM194 229l98 -99q14 -13 27 0l49 50q14 12 28 0l49 -50q13 -13 27 0l98 99q14 13 0 27l-98 98q-14 14 -27 0l-49 -49q-14 -12 -28 0l-49 49q-13 14 -27 0 l-98 -98q-14 -14 0 -27zM341 394.5q0 -8.5 5 -13.5l22 -22q14 -12 28 0l22 22q5 5 5 13.5t-5 13.5l-22 22q-14 14 -28 0l-22 -22q-5 -5 -5 -13.5zM341 699.5q0 -8.5 5 -13.5l22 -22q14 -14 28 0l22 22q5 5 5 13.5t-5 13.5l-22 22q-14 12 -28 0l-22 -22q-5 -5 -5 -13.5z M346 76l22 -22q14 -12 28 0l22 22q13 14 0 27l-22 23q-14 12 -28 0l-22 -23q-13 -13 0 -27z" />
<glyph unicode="9" horiz-adv-x="765" d="M59 470.5q0 8.5 5 13.5l50 49q13 14 0 27l-50 50q-13 13 0 26q14 14 27 0l49 -49q14 -13 27 0l99 99q13 13 0 27l-50 49q-5 5 -5 13.5t5 13.5q14 12 28 0l49 -49q13 -14 27 0l49 49q13 13 27 0l49 -49q5 -6 13.5 -6t13.5 6l49 49q14 13 27 0q6 -5 6 -13.5t-6 -13.5 l-49 -49q-13 -14 0 -27l99 -99q13 -13 26 0l50 49q13 14 27 0q13 -13 0 -26l-49 -50q-14 -13 0 -27l49 -49q13 -14 0 -27l-49 -49q-14 -14 0 -27l49 -49q13 -14 0 -27l-49 -49q-14 -14 0 -28l49 -49q13 -13 0 -27q-14 -13 -27 0l-50 50q-13 13 -26 0l-99 -99q-13 -13 0 -27 l49 -49q6 -5 6 -13.5t-6 -13.5q-13 -14 -27 0l-49 49q-14 13 -27 0l-49 -49q-14 -14 -27 0l-49 49q-14 13 -27 0l-49 -49q-14 -14 -28 0q-5 5 -5 13.5t5 13.5l50 49q13 14 0 27l-50 49q-13 14 0 27q14 14 28 0l49 -49q13 -14 27 0l49 49q13 14 27 0l49 -49q5 -6 13.5 -6 t13.5 6l98 98q14 14 0 28l-98 98q-5 5 -13.5 5t-13.5 -5l-49 -49q-14 -14 -27 0l-49 49q-14 13 -27 0l-49 -49q-14 -14 -28 0q-13 13 0 27l50 49q13 13 0 27l-99 98q-13 14 -27 0l-49 -49q-13 -13 -27 0q-5 5 -5 13.5zM194 533l99 -98q13 -14 27 0l49 49q13 14 27 0l49 -49 q5 -6 13.5 -6t13.5 6l98 98q14 14 0 27l-98 99q-14 13 -27 0l-49 -49q-14 -14 -27 0l-49 49q-14 13 -27 0l-99 -99q-13 -13 0 -27zM347 76l22 -22q13 -14 27 0l22 22q14 14 0 27l-22 22q-14 14 -27 0l-22 -22q-14 -13 0 -27zM347 381l22 -23q13 -13 27 0l22 23q14 13 0 27 l-22 22q-14 14 -27 0l-22 -22q-14 -14 0 -27zM347 686l22 -23q13 -13 27 0l22 23q14 13 0 27l-22 22q-14 13 -27 0l-22 -22q-14 -14 0 -27zM499 381l22 -23q14 -13 27 0l22 23q14 13 0 27l-22 22q-13 14 -27 0l-22 -22q-13 -14 0 -27zM575 305l23 -23q13 -13 26 0l23 23 q13 13 0 27l-23 22q-13 13 -26 0l-23 -22q-13 -14 0 -27zM575 457l23 -22q5 -6 13 -6t13 6l23 22q13 13 0 27l-23 22q-5 6 -13 6t-13 -6l-23 -22q-13 -14 0 -27z" />
<glyph unicode=":" horiz-adv-x="307" d="M58 13.5q0 8.5 6 13.5l49 49q14 14 0 27l-49 49q-14 14 0 27q13 14 27 0l49 -49q13 -14 27 0l49 49q5 6 13.5 6t13.5 -6q14 -13 0 -27l-49 -49q-13 -13 0 -27l49 -49q6 -5 6 -13.5t-6 -13.5q-5 -6 -13.5 -6t-13.5 6l-49 49q-14 13 -27 0l-49 -49q-14 -14 -27 0 q-6 5 -6 13.5zM58 470.5q0 8.5 6 13.5q13 14 27 0l49 -49q13 -14 27 0l49 49q5 6 13.5 6t13.5 -6q6 -5 6 -13.5t-6 -13.5l-49 -49q-14 -14 0 -27l49 -49q14 -14 0 -27q-5 -6 -13.5 -6t-13.5 6l-49 49q-14 13 -27 0l-49 -49q-14 -14 -27 0q-14 13 0 27l49 49q13 13 0 27 l-49 49q-6 5 -6 13.5z" />
<glyph unicode=";" horiz-adv-x="459" d="M64 -126l201 202q14 14 0 27l-49 50q-13 13 0 26q14 14 27 0l49 -49q14 -14 27 0l50 49q5 6 13 6t13 -6q6 -5 6 -13t-6 -13l-49 -50q-13 -13 0 -27l49 -49q6 -5 6 -13.5t-6 -13.5q-13 -13 -26 0l-50 50q-13 13 -27 0l-202 -202q-5 -6 -13 -6t-13 6q-13 13 0 26z M208 470.5q0 8.5 6 13.5q13 14 27 0l49 -49q13 -14 27 0l49 49q5 6 13.5 6t13.5 -6q6 -5 6 -13.5t-6 -13.5l-49 -49q-14 -14 0 -27l49 -49q14 -14 0 -27q-5 -6 -13.5 -6t-13.5 6l-49 49q-14 13 -27 0l-49 -49q-14 -14 -27 0q-14 13 0 27l49 49q13 13 0 27l-49 49 q-6 5 -6 13.5z" />
<glyph unicode="&#x3c;" horiz-adv-x="460" d="M64 305q14 -13 27 0l49 49q14 14 27 0l99 -98q13 -14 0 -27l-49 -49q-14 -14 0 -28q13 -13 27 0l49 50q13 13 27 0l49 -50q13 -13 27 0q12 14 0 28l-49 49q-14 13 0 27l49 49q13 13 0 27q-14 13 -27 0l-49 -50q-14 -13 -27 0l-99 99q-5 5 -5 13.5t5 13.5l99 98 q13 14 27 0l49 -49q13 -13 27 0q13 14 0 27l-49 50q-6 5 -6 13t6 13l49 50q13 13 0 26q-14 14 -27 0l-49 -49q-14 -13 -27 0l-49 49q-14 14 -27 0q-6 -5 -6 -13t6 -13l49 -50q13 -13 0 -26l-99 -99q-13 -13 -27 0l-49 49q-13 14 -27 0q-13 -13 0 -27l50 -49q5 -5 5 -13.5 t-5 -13.5l-50 -49q-13 -14 0 -27z" />
<glyph unicode="=" horiz-adv-x="459" d="M64 152l201 -202q14 -14 0 -27l-49 -50q-13 -13 0 -26q14 -14 27 0l49 49q14 14 27 0l50 -49q5 -6 13 -6t13 6q6 5 6 13t-6 13l-49 50q-13 13 0 27l49 49q6 5 6 13.5t-6 13.5q-13 13 -26 0l-50 -50q-13 -13 -27 0l-202 202q-5 6 -13 6t-13 -6q-13 -13 0 -26z" />
<glyph unicode="&#x3e;" horiz-adv-x="460" d="M64 152q-12 14 0 28l49 49q14 13 0 27l-49 49q-13 13 0 27q14 13 27 0l49 -50q14 -13 27 0l99 99q5 5 5 13.5t-5 13.5l-99 98q-13 14 -27 0l-49 -49q-13 -13 -27 0q-13 14 0 27l49 50q6 5 6 13t-6 13l-49 50q-13 13 0 26q14 14 27 0l49 -49q14 -13 27 0l49 49q14 14 27 0 q6 -5 6 -13t-6 -13l-49 -50q-13 -13 0 -26l99 -99q13 -13 27 0l49 49q13 14 27 0q13 -13 0 -27l-50 -49q-5 -5 -5 -13.5t5 -13.5l50 -49q13 -14 0 -27q-14 -13 -27 0l-49 49q-14 14 -27 0l-99 -98q-13 -14 0 -27l49 -49q14 -14 0 -28q-13 -13 -27 0l-49 50q-13 13 -27 0 l-49 -50q-13 -13 -27 0z" />
<glyph unicode="?" d="M64 610q-13 13 0 26l49 50q14 13 0 27l-49 49q-13 14 0 27q14 13 27 0l49 -49q14 -14 27 0l49 49q14 13 27 0l49 -49q14 -14 28 0l49 49q13 13 27 0l49 -49q13 -14 27 0l49 49q13 13 27 0t0 -27l-49 -49q-13 -14 0 -27l98 -99q14 -13 27 0l50 49q5 6 13 6t13 -6 q6 -5 6 -13t-6 -13l-49 -50q-13 -13 0 -26l49 -50q14 -13 0 -27q-13 -13 -26 0l-50 49q-13 14 -27 0l-98 -98q-13 -14 0 -27l49 -49q14 -14 0 -27t-27 0l-49 49q-14 14 -27 0l-49 -49q-14 -13 -27 0l-49 49q-14 14 -28 0l-49 -49q-13 -13 -27 0q-13 13 0 27l50 49 q5 5 5 13.5t-5 13.5l-50 49q-13 14 0 27q14 14 27 0l49 -49q14 -12 28 0l49 49q13 14 27 0l49 -49q13 -13 27 0l98 99q6 5 6 13t-6 13l-98 99q-14 13 -27 0l-49 -49q-14 -14 -27 0l-49 49q-14 12 -28 0l-49 -49q-13 -14 -27 0l-49 49q-13 13 -27 0l-49 -49q-13 -14 -27 0z M194 686l22 -22q14 -14 27 0l23 22q13 13 0 27l-23 22q-13 13 -27 0l-22 -22q-13 -14 0 -27zM216 0q-13 14 0 27l50 49q13 14 0 27l-50 49q-12 14 0 28q14 13 27 0l49 -50q14 -12 28 0l49 50q13 13 27 0q12 -14 0 -28l-50 -49q-13 -13 0 -27l50 -49q13 -13 0 -27 q-14 -13 -27 0l-49 49q-14 14 -28 0l-49 -49q-13 -13 -27 0zM341 394.5q0 -8.5 5 -13.5l23 -22q13 -14 27 0l22 22q6 5 6 13.5t-6 13.5l-22 22q-14 14 -27 0l-23 -22q-5 -5 -5 -13.5zM346 686l23 -22q13 -14 27 0l22 22q14 13 0 27l-22 22q-14 13 -27 0l-23 -22 q-13 -14 0 -27z" />
<glyph unicode="@" horiz-adv-x="1069" d="M58 547q0 8 6 13q5 6 13 6t13 -6l50 -49q13 -13 27 0l98 99q6 5 6 13t-6 13l-49 50q-13 13 0 27q14 13 27 0l49 -49q14 -14 27 0l99 98q13 14 0 27l-50 49q-13 14 0 27q14 13 27 0l50 -49q13 -14 27 0l49 49q13 13 27 0l49 -49q13 -14 27 0l49 49q13 13 27 0l49 -49 q14 -14 27 0l50 49q13 13 26 0q14 -13 0 -27l-49 -49q-13 -13 0 -27l99 -98q13 -14 27 0l49 49q14 13 27 0q13 -14 0 -27l-49 -50q-6 -5 -6 -13t6 -13l49 -50q13 -13 0 -26l-49 -50q-14 -13 0 -27l49 -49q13 -14 0 -27l-49 -49q-14 -14 0 -27l49 -49q13 -14 0 -27 q-5 -6 -13.5 -6t-13.5 6l-49 49q-14 13 -27 0l-99 -99q-13 -13 0 -27l49 -49q14 -13 0 -27q-13 -13 -26 0l-50 50q-13 13 -27 0l-22 -23q-13 -13 0 -27l49 -49q14 -13 0 -27q-13 -13 -27 0l-49 49q-5 6 -13.5 6t-13.5 -6l-49 -49q-14 -13 -27 0l-49 49q-14 14 -27 0l-49 -49 q-14 -13 -27 0q-14 14 0 27l49 49q13 14 0 27l-99 99q-13 13 -27 0l-49 -50q-13 -13 -27 0q-13 14 0 27l50 50q13 13 0 27l-50 49q-13 13 0 27l50 49q13 13 0 27l-50 49q-13 14 0 27q14 14 27 0l49 -49q14 -13 27 0l99 99q13 13 0 26l-49 50q-6 5 -6 13t6 13q13 14 27 0 l49 -49q13 -13 27 0l49 49q13 14 27 0l49 -49q13 -13 27 0l49 49q14 14 27 0q6 -5 6 -13t-6 -13l-49 -50q-13 -13 0 -26l49 -50q14 -13 0 -27l-49 -49q-13 -14 0 -27l49 -49q14 -14 0 -27l-49 -49q-13 -14 0 -27l22 -23q14 -13 27 0l99 99q13 13 0 27l-49 49q-14 13 0 27 l49 49q13 14 0 27l-49 50q-6 5 -6 13t6 13l49 50q13 13 0 26l-99 99q-13 13 -27 0l-49 -49q-5 -6 -13.5 -6t-13.5 6l-49 49q-14 13 -27 0l-49 -49q-14 -14 -27 0l-49 49q-14 13 -27 0l-99 -99q-13 -13 0 -26l49 -50q6 -5 6 -13t-6 -13q-13 -14 -27 0l-49 49q-13 13 -27 0 l-98 -99q-14 -13 0 -27l49 -49q13 -14 0 -27l-49 -49q-14 -14 0 -27l49 -49q13 -14 0 -27l-49 -50q-14 -13 0 -27l22 -22l14 -13q6 -6 13 -14l49 -49q14 -14 27 0l49 49q14 14 27 0q14 -13 7 -20l-20 -20l-36 -36q-13 -13 0 -27l99 -98q13 -14 27 0l49 49q13 13 27 0l49 -49 q13 -14 27 0l49 49q13 13 27 0l49 -49q14 -14 27 0l202 201q14 13 27 0t0 -27l-202 -201q-13 -14 0 -27l49 -50q6 -5 6 -13t-6 -13q-5 -6 -13 -6t-13 6l-50 49q-13 13 -27 0l-49 -49q-5 -6 -13.5 -6t-13.5 6l-49 49q-14 13 -27 0l-49 -49q-14 -14 -27 0l-49 49q-14 13 -27 0 l-50 -49q-13 -14 -27 0q-13 13 0 26l50 50q13 13 0 27l-99 98q-13 13 -27 0l-49 -49q-13 -14 -27 0q-13 13 0 27l49 49q14 14 0 27l-22 22l-13 14q-6 6 -14 13l-49 50q-14 13 -27 0l-50 -50q-13 -13 -26 0q-14 14 0 27l49 49q13 14 0 27l-49 50q-14 13 0 27l49 49 q13 13 0 27l-49 49q-14 13 0 27l49 49q13 14 0 27l-49 50q-6 5 -6 13zM118 229l22 -23q13 -13 27 0l22 23q13 13 0 27l-22 22q-14 13 -27 0l-22 -22q-14 -14 0 -27zM118 381l22 -22q13 -14 27 0l22 22q13 13 0 27l-22 22q-14 14 -27 0l-22 -22q-14 -14 0 -27zM346 305 l22 -23q14 -13 27 0l23 23q13 13 0 27l-23 22q-13 14 -27 0l-22 -22q-13 -14 0 -27zM422 229l99 -99q13 -13 27 0l98 99q14 13 0 27l-49 49q-13 13 0 27l49 49q14 13 0 27l-98 98q-14 14 -27 0l-99 -98q-13 -14 0 -27l50 -49q13 -14 0 -27l-50 -49q-13 -14 0 -27zM498 -125 q-13 -14 0 -27l23 -23q13 -13 27 0l22 23q14 13 0 27l-22 22q-14 13 -27 0zM498 762l23 -22q13 -14 27 0l22 22q14 14 0 27l-22 22q-14 14 -27 0l-23 -22q-13 -13 0 -27zM569 547q0 -8 6 -13l22 -23q13 -13 27 0l22 23q6 5 6 13t-6 13l-22 23q-14 13 -27 0l-22 -23 q-6 -5 -6 -13zM575 76l22 -22q13 -14 27 0l22 22q14 14 0 27l-22 23q-14 13 -27 0l-22 -23q-14 -13 0 -27zM651 -125q-13 -14 0 -27l22 -23q13 -13 27 0l22 23q14 13 0 27l-22 22q-14 13 -27 0zM651 152l22 -22q5 -5 13.5 -5t13.5 5l22 22q14 14 0 27l-22 23q-5 5 -13.5 5 t-13.5 -5l-22 -23q-13 -13 0 -27zM651 305l22 -23q5 -5 13.5 -5t13.5 5l22 23q14 13 0 27l-22 22q-5 6 -13.5 6t-13.5 -6l-22 -22q-13 -14 0 -27zM651 457l22 -22q13 -13 27 0l22 22q14 14 0 27l-22 22q-5 6 -13.5 6t-13.5 -6l-22 -22q-13 -13 0 -27zM651 762l22 -22 q5 -6 13.5 -6t13.5 6l22 22q14 14 0 27l-22 22q-5 6 -13.5 6t-13.5 -6l-22 -22q-13 -13 0 -27zM874 547q0 -8 6 -13l22 -23q13 -13 27 0l22 23q13 13 0 26l-22 23q-14 13 -27 0l-22 -23q-6 -5 -6 -13zM880 381l22 -22q13 -14 27 0l22 22q13 13 0 27l-22 22q-14 14 -27 0 l-22 -22q-14 -14 0 -27z" />
<glyph unicode="A" horiz-adv-x="765" d="M59 470.5q0 8.5 5 13.5l27 27l23 22q13 14 0 27l-50 49q-13 14 0 27q14 14 27 0l49 -49q14 -13 27 0l23 22q13 14 27 27q13 14 27 27l22 22q13 14 0 27l-49 50q-14 13 0 27q13 13 27 0l49 -49q13 -14 27 0l22 22l27 27q13 13 27 0l27 -27l22 -22q14 -14 27 0l49 49 q14 13 27 0q14 -14 0 -27l-49 -50q-13 -13 0 -27l22 -22q14 -13 27 -27q14 -13 27 -27l23 -22q13 -13 27 0l49 49q13 14 27 0q13 -13 0 -27l-49 -49q-14 -13 0 -27l22 -22l27 -27q13 -14 0 -27l-27 -27l-22 -22q-14 -14 0 -27l22 -22q13 -14 27 -27q13 -14 0 -27l-27 -27 l-22 -23q-14 -13 0 -27l22 -22l27 -27q13 -13 0 -27q-14 -13 -27 -27l-22 -22q-6 -5 -6 -13.5t6 -13.5l49 -49q13 -14 0 -27q-14 -13 -27 0l-49 49q-14 14 -27 0l-50 -49q-13 -13 -27 0q-13 13 0 27l50 49q13 14 0 27l-23 22q-13 14 -27 27q-13 14 0 27l27 27l23 22 q13 14 0 27l-23 23l-27 27l-27 27l-22 22q-13 13 -27 0l-22 -22l-27 -27q-5 -6 -13.5 -6t-13.5 6l-27 27l-22 22q-14 13 -27 0l-22 -22l-27 -27l-27 -27l-23 -23q-13 -13 0 -27l23 -22l27 -27q13 -13 0 -27q-14 -13 -27 -27l-23 -22q-5 -5 -5 -13.5t5 -13.5l50 -49 q13 -14 0 -27q-14 -13 -27 0l-50 49q-13 14 -27 0l-49 -49q-13 -13 -27 0q-13 13 0 27l50 49q5 5 5 13.5t-5 13.5l-23 22q-13 14 -27 27q-13 14 0 27l27 27l23 22q13 14 0 27l-23 23l-27 27q-13 13 0 27q14 13 27 27l23 22q13 13 0 27l-23 22l-27 27q-5 5 -5 13.5z M113 470.5q0 -8.5 5 -13.5l22 -22q14 -14 27 0l23 22q5 5 5 13.5t-5 13.5l-23 22q-13 14 -27 0l-22 -22q-5 -5 -5 -13.5zM118 152l22 -22q14 -13 27 0l23 22q13 14 0 27l-23 23q-13 13 -27 0l-22 -23q-13 -13 0 -27zM118 305l22 -23q14 -13 27 0l23 23q13 13 0 27l-23 22 q-13 13 -27 0l-22 -22q-13 -14 0 -27zM194 381l23 -22q13 -14 27 0l22 22q13 13 0 27l-22 22q-14 13 -27 0l-23 -22q-13 -14 0 -27zM194 533l23 -22l27 -27l27 -27l22 -22q13 -14 27 0l22 22l27 27q5 5 13.5 5t13.5 -5l27 -27l22 -22q14 -14 27 0l22 22l27 27l27 27l23 22 q13 14 0 27l-23 23q-19 19 -27 26q-13 14 -27 27l-22 23q-13 13 -27 0l-22 -23l-27 -27q-14 -13 -27 0l-27 27l-22 23q-14 13 -27 0l-22 -23q-14 -13 -27 -27q-8 -7 -27 -26l-23 -23q-13 -13 0 -27zM347 381l22 -22q5 -6 13.5 -6t13.5 6l22 22q14 13 0 27l-22 22 q-5 5 -13.5 5t-13.5 -5l-22 -22q-14 -14 0 -27zM347 685l22 -22q13 -13 27 0l22 22q14 14 0 27l-22 23q-14 13 -27 0l-22 -23q-14 -13 0 -27zM499 381l22 -22q14 -14 27 0l23 22q13 13 0 27l-23 22q-13 13 -27 0l-22 -22q-13 -14 0 -27zM575 152l23 -22q13 -13 27 0l22 22 q13 14 0 27l-22 23q-14 13 -27 0l-23 -23q-13 -13 0 -27zM575 305l23 -23q13 -13 27 0l22 23q13 13 0 27l-22 22q-14 13 -27 0l-23 -22q-13 -14 0 -27zM575 457l23 -22q13 -14 27 0l22 22q13 13 0 27l-22 22q-14 14 -27 0l-23 -22q-13 -14 0 -27z" />
<glyph unicode="B" d="M58 470.5q0 8.5 6 13.5l49 49q13 14 0 27l-49 50q-6 5 -6 13t6 13l49 50q13 13 0 27l-49 49q-6 5 -6 13.5t6 13.5q13 13 27 0l49 -49q14 -14 27 0l49 49q14 13 27 0l49 -49q14 -14 27 0l50 49q13 13 27 0l49 -49q13 -14 27 0l49 49q13 13 27 0q5 -5 5 -13.5t-5 -13.5 l-49 -49q-14 -14 0 -27l98 -99q14 -13 27 0l50 49q5 6 13 6t13 -6q6 -5 6 -13t-6 -13l-49 -50q-13 -13 0 -27l49 -49q6 -5 6 -13.5t-6 -13.5q-13 -13 -26 0l-50 49q-13 14 -27 0l-98 -98q-14 -14 0 -27l98 -99q14 -13 27 0l50 50q13 13 26 0q14 -14 0 -27l-49 -49 q-12 -14 0 -28l49 -49q14 -13 0 -27q-13 -13 -26 0l-50 50q-13 13 -27 0l-98 -99q-14 -13 0 -27l49 -49q13 -13 0 -27q-14 -14 -27 0l-49 49q-14 14 -27 0l-49 -49q-14 -14 -27 0l-50 49q-13 14 -27 0l-49 -49q-13 -14 -27 0l-49 49q-13 14 -27 0l-49 -49q-14 -14 -27 0 q-14 14 0 27l49 49q13 14 0 27l-49 49q-14 14 0 27l49 49q12 14 0 28l-49 49q-14 13 0 27l49 49q13 13 0 27l-49 49q-6 5 -6 13.5zM112 470.5q0 -8.5 6 -13.5l22 -22q14 -13 27 0l22 22q6 5 6 13.5t-6 13.5l-22 22q-13 14 -27 0l-22 -22q-6 -5 -6 -13.5zM112 623q0 -8 6 -13 l22 -23q14 -13 27 0l22 23q6 5 6 13t-6 13l-22 23q-13 13 -27 0l-22 -23q-6 -5 -6 -13zM118 152l22 -22q14 -13 27 0l22 22q14 14 0 27l-22 23q-13 13 -27 0l-22 -23q-14 -13 0 -27zM118 305l22 -23q14 -13 27 0l22 23q14 13 0 27l-22 22q-13 14 -27 0l-22 -22 q-14 -14 0 -27zM194 76l22 -22q14 -14 27 0l23 22q13 14 0 27l-23 23q-13 13 -27 0l-22 -23q-14 -13 0 -27zM194 228l98 -98q14 -13 27 0l50 49q13 14 27 0l49 -49q13 -13 27 0l98 98q14 14 0 28l-98 98q-14 14 -27 0l-49 -49q-14 -14 -27 0l-50 49q-13 14 -27 0l-98 -98 q-14 -14 0 -28zM194 381l22 -22q14 -14 27 0l23 22q13 13 0 27l-23 22q-13 14 -27 0l-22 -22q-14 -14 0 -27zM194 533l98 -98q14 -13 27 0l50 49q13 14 27 0l49 -49q13 -13 27 0l98 98q14 14 0 27l-98 99q-14 13 -27 0l-49 -49q-14 -14 -27 0l-50 49q-13 13 -27 0l-98 -99 q-14 -13 0 -27zM194 686l22 -22q14 -14 27 0l23 22q13 13 0 27l-23 22q-13 13 -27 0l-22 -22q-14 -14 0 -27zM346 76l23 -22q13 -14 27 0l22 22q13 14 0 27l-22 23q-14 13 -27 0l-23 -23q-13 -13 0 -27zM346 381l23 -22q13 -14 27 0l22 22q13 13 0 27l-22 22q-14 14 -27 0 l-23 -22q-13 -14 0 -27zM346 686l23 -22q13 -14 27 0l22 22q13 13 0 27l-22 22q-14 13 -27 0l-23 -22q-13 -14 0 -27z" />
<glyph unicode="C" d="M58 470.5q0 8.5 6 13.5l49 49q13 14 0 27l-49 50q-6 5 -6 13t6 13q13 14 27 0l49 -49q13 -13 27 0l98 99q14 13 0 27l-49 49q-5 5 -5 13.5t5 13.5q13 13 27 0l49 -49q14 -14 27 0l50 49q13 13 26 0l50 -49q5 -6 13 -6t13 6l50 49q13 13 27 0q5 -5 5 -13.5t-5 -13.5 l-49 -49q-14 -14 0 -27l98 -99q14 -13 27 0l49 49q14 14 27 0q13 -13 0 -26l-49 -50q-14 -13 0 -27l49 -49q5 -5 5 -13.5t-5 -13.5q-13 -13 -27 0l-49 49q-13 14 -27 0l-49 -49q-14 -13 -27 0q-6 5 -6 13.5t6 13.5l49 49q13 14 0 27l-99 99q-13 13 -26 0l-50 -49 q-5 -6 -13 -6t-13 6l-50 49q-13 13 -27 0l-98 -99q-14 -13 0 -27l49 -49q13 -14 0 -27l-49 -49q-14 -14 0 -27l49 -49q13 -14 0 -27l-49 -49q-14 -14 0 -28l98 -98q14 -13 27 0l50 49q5 6 13 6t13 -6l50 -49q13 -13 26 0l99 98q12 14 0 28l-49 49q-14 13 0 27q13 13 27 0 l49 -50q14 -13 27 0l49 50q14 13 27 0q13 -14 0 -27l-49 -49q-14 -14 0 -28l49 -49q13 -13 0 -27q-13 -13 -27 0l-49 50q-13 13 -27 0l-98 -99q-14 -13 0 -27l49 -49q13 -13 0 -27q-14 -14 -27 0l-50 49q-5 6 -13 6t-13 -6l-50 -49q-5 -6 -13 -6t-13 6l-50 49q-13 14 -27 0 l-49 -49q-14 -14 -27 0t0 27l49 49q14 14 0 27l-98 99q-14 13 -27 0l-49 -50q-14 -13 -27 0q-14 14 0 27l49 49q12 14 0 28l-49 49q-14 13 0 27l49 49q13 13 0 27l-49 49q-6 5 -6 13.5zM117 305l23 -23q13 -13 27 0l22 23q14 13 0 27l-22 22q-14 14 -27 0l-23 -22 q-13 -14 0 -27zM117 457l23 -22q13 -13 27 0l22 22q6 5 6 13.5t-6 13.5l-22 22q-14 14 -27 0l-23 -22q-13 -14 0 -27zM346 76l23 -22q5 -6 13 -6t13 6l23 22q13 14 0 27l-23 23q-13 13 -26 0l-23 -23q-13 -13 0 -27zM346 686l23 -22q5 -6 13 -6t13 6l23 22q13 13 0 27 l-23 22q-13 13 -26 0l-23 -22q-13 -14 0 -27z" />
<glyph unicode="D" horiz-adv-x="765" d="M59 470.5q0 8.5 5 13.5l49 49q14 14 0 27l-49 50q-13 13 0 26l49 50q14 13 0 27l-49 49q-5 5 -5 13.5t5 13.5q13 13 27 0l49 -49q14 -14 27 0l50 49q13 13 26 0l50 -49q5 -6 13 -6t13 6l50 49q13 13 27 0l49 -49q14 -14 27 0l49 49q14 13 27 0q5 -5 5 -13.5t-5 -13.5 l-49 -49q-14 -14 0 -27l98 -99q14 -13 27 0l50 49q13 14 27 0q13 -13 0 -26l-50 -50q-13 -13 0 -27l50 -49q13 -14 0 -27l-50 -49q-13 -14 0 -27l50 -49q13 -14 0 -27l-50 -49q-12 -14 0 -28l50 -49q13 -13 0 -27q-14 -13 -27 0l-50 50q-13 13 -27 0l-98 -99q-14 -13 0 -27 l49 -49q13 -13 0 -27t-27 0l-49 49q-13 14 -27 0l-49 -49q-14 -14 -27 0l-50 49q-5 6 -13 6t-13 -6l-50 -49q-5 -6 -13 -6t-13 6l-50 49q-13 14 -27 0l-49 -49q-14 -14 -27 0t0 27l49 49q14 14 0 27l-49 49q-13 14 0 27l49 49q14 14 0 28l-49 49q-13 13 0 27l49 49 q14 13 0 27l-49 49q-5 5 -5 13.5zM113 470.5q0 -8.5 5 -13.5l22 -22q14 -13 27 0l22 22q6 5 6 13.5t-6 13.5l-22 22q-13 14 -27 0l-22 -22q-5 -5 -5 -13.5zM118 152l22 -22q14 -13 27 0l22 22q14 14 0 27l-22 23q-13 13 -27 0l-22 -23q-13 -13 0 -27zM118 305l22 -23 q14 -13 27 0l22 23q14 13 0 27l-22 22q-13 14 -27 0l-22 -22q-13 -14 0 -27zM118 610l22 -23q14 -13 27 0l22 23q6 5 6 13t-6 13l-22 23q-13 13 -27 0l-22 -23q-13 -13 0 -26zM194 76l23 -22q5 -6 13 -6t13 6l23 22q13 14 0 27l-23 23q-13 13 -26 0l-23 -23q-13 -13 0 -27z M194 228l99 -98q13 -13 26 0l50 49q13 14 27 0l49 -49q14 -13 27 0l99 98q12 14 0 28l-50 49q-13 13 0 27l50 49q13 13 0 27l-50 49q-13 13 0 27l50 49q13 14 0 27l-99 99q-13 13 -27 0l-49 -49q-14 -14 -27 0l-50 49q-13 13 -26 0l-99 -99q-13 -13 0 -27l49 -49 q6 -5 6 -13.5t-6 -13.5l-49 -49q-13 -14 0 -27l49 -49q14 -14 0 -27l-49 -49q-12 -14 0 -28zM194 686l23 -22q5 -6 13 -6t13 6l23 22q13 13 0 27l-23 22q-13 13 -26 0l-23 -22q-13 -14 0 -27zM347 76l22 -22q13 -14 27 0l22 22q13 14 0 27l-22 23q-14 13 -27 0l-22 -23 q-14 -13 0 -27zM347 686l22 -22q13 -14 27 0l22 22q13 13 0 27l-22 22q-14 13 -27 0l-22 -22q-14 -14 0 -27zM575 305l22 -23q14 -13 27 0l23 23q13 13 0 27l-23 22q-13 14 -27 0l-22 -22q-13 -14 0 -27zM575 457l22 -22q14 -13 27 0l23 22q13 13 0 27l-23 22q-13 14 -27 0 l-22 -22q-13 -14 0 -27z" />
<glyph unicode="E" horiz-adv-x="765" d="M59 470.5q0 8.5 5 13.5l49 49q14 14 0 27l-49 50q-13 13 0 26q13 14 27 0l49 -49q14 -13 27 0l99 99q13 13 0 27l-49 49q-6 5 -6 13.5t6 13.5q13 13 26 0l50 -49q5 -6 13 -6t13 6l50 49q13 13 27 0l49 -49q14 -14 27 0l49 49q14 13 27 0l49 -49q14 -14 27 0l50 49 q13 13 27 0q13 -13 0 -27l-50 -49q-13 -14 0 -27l50 -50q13 -13 0 -26q-14 -14 -27 0l-50 49q-13 13 -27 0l-49 -49q-13 -14 -27 0l-49 49q-13 13 -27 0l-49 -49q-14 -14 -27 0l-50 49q-13 13 -26 0l-99 -99q-13 -13 0 -27l99 -98q5 -6 13 -6t13 6l50 49q13 14 27 0l49 -49 q14 -14 27 0l49 49q14 14 27 0q5 -5 5 -13.5t-5 -13.5l-49 -49q-14 -14 0 -27l49 -49q13 -14 0 -27q-13 -14 -27 0l-49 49q-13 13 -27 0l-49 -49q-14 -14 -27 0l-50 49q-13 13 -26 0l-99 -98q-12 -14 0 -28l99 -98q13 -13 26 0l50 49q13 14 27 0l49 -49q14 -13 27 0l49 49 q14 14 27 0l49 -49q14 -13 27 0l50 49q13 14 27 0q13 -13 0 -27l-50 -49q-13 -13 0 -27l50 -49q13 -13 0 -27q-14 -14 -27 0l-50 49q-13 14 -27 0l-49 -49q-13 -14 -27 0l-49 49q-13 14 -27 0l-49 -49q-14 -14 -27 0l-50 49q-5 6 -13 6t-13 -6l-50 -49q-5 -6 -13 -6t-13 6 q-6 5 -6 13.5t6 13.5l49 49q13 14 0 27l-99 99q-13 13 -27 0l-49 -50q-14 -13 -27 0q-13 14 0 27l49 49q14 14 0 28l-49 49q-13 13 0 27l49 49q14 13 0 27l-49 49q-5 5 -5 13.5zM113 470.5q0 -8.5 5 -13.5l22 -22q14 -14 27 0l22 22q6 5 6 13.5t-6 13.5l-22 22q-13 14 -27 0 l-22 -22q-5 -5 -5 -13.5zM118 305l22 -23q14 -13 27 0l22 23q14 13 0 27l-22 22q-13 13 -27 0l-22 -22q-13 -14 0 -27zM194 381l23 -23q13 -13 26 0l23 23q13 13 0 27l-23 22q-5 6 -13 6t-13 -6l-23 -22q-13 -14 0 -27zM347 76l22 -22q13 -14 27 0l22 22q13 14 0 27l-22 22 q-14 14 -27 0l-22 -22q-14 -13 0 -27zM347 381l22 -23q13 -13 27 0l22 23q13 13 0 27l-22 22q-14 14 -27 0l-22 -22q-14 -14 0 -27zM347 686l22 -23q13 -13 27 0l22 23q13 13 0 27l-22 22q-14 13 -27 0l-22 -22q-14 -14 0 -27zM499 76l22 -22q14 -14 27 0l23 22q13 14 0 27 l-23 22q-13 14 -27 0l-22 -22q-14 -13 0 -27zM499 686l22 -23q14 -13 27 0l23 23q13 13 0 27l-23 22q-13 13 -27 0l-22 -22q-14 -14 0 -27z" />
<glyph unicode="F" d="M58 623q0 8 6 13q5 6 13 6t13 -6l50 -49q13 -13 27 0l98 99q6 5 6 13t-6 13l-49 50q-14 13 0 27q14 13 27 0l49 -49q14 -14 27 0l49 49q14 13 27 0l49 -49q14 -14 28 0l49 49q13 13 27 0l49 -49q13 -14 27 0l49 49q13 13 27 0q14 -14 0 -27l-49 -50q-13 -13 0 -26l49 -50 q6 -5 6 -13t-6 -13q-5 -6 -13.5 -6t-13.5 6l-49 49q-14 13 -27 0l-49 -49q-14 -14 -27 0l-49 49q-14 12 -28 0l-49 -49q-13 -14 -27 0l-49 49q-13 13 -27 0l-98 -99q-14 -13 0 -27l98 -98q14 -14 27 0l49 49q14 13 27 0l49 -49q14 -14 28 0l49 49q13 13 27 0q13 -14 0 -27 l-50 -49q-13 -14 0 -27l50 -49q13 -14 0 -27q-14 -14 -27 0l-49 49q-14 12 -28 0l-49 -49q-13 -14 -27 0l-49 49q-13 13 -27 0l-98 -99q-14 -13 0 -27l49 -49q13 -13 0 -27l-49 -49q-14 -13 0 -27l49 -49q13 -14 0 -27q-5 -6 -13.5 -6t-13.5 6l-49 49q-14 13 -27 0l-50 -49 q-5 -6 -13 -6t-13 6q-14 13 0 27l49 49q13 14 0 27l-49 49q-14 14 0 27l49 49q13 14 0 27l-49 50q-14 13 0 27l49 49q13 13 0 27l-49 49q-14 13 0 27l49 49q13 14 0 27l-49 50q-6 5 -6 13zM118 152l22 -22q13 -14 27 0l22 22q13 14 0 27l-22 23q-14 13 -27 0l-22 -23 q-14 -13 0 -27zM118 305l22 -23q13 -13 27 0l22 23q13 13 0 27l-22 22q-14 13 -27 0l-22 -22q-14 -14 0 -27zM118 457l22 -22q13 -14 27 0l22 22q13 13 0 27l-22 22q-14 14 -27 0l-22 -22q-14 -14 0 -27zM194 381l22 -23q5 -5 13.5 -5t13.5 5l22 23q14 13 0 27l-22 22 q-5 6 -13.5 6t-13.5 -6l-22 -22q-14 -14 0 -27zM346 381l22 -23q14 -13 27 0l23 23q13 13 0 27l-23 22q-13 14 -27 0l-22 -22q-13 -14 0 -27zM346 686l22 -23q14 -13 27 0l23 23q13 13 0 26l-23 23q-13 13 -27 0l-22 -23q-13 -13 0 -26zM498 686l23 -23q13 -13 27 0l22 23 q6 5 6 13t-6 13l-22 23q-14 13 -27 0l-23 -23q-13 -13 0 -26z" />
<glyph unicode="G" d="M59 470.5q0 8.5 5 13.5l49 49q14 14 0 27l-49 50q-13 13 0 26q14 14 27 0l49 -49q14 -13 27 0l99 99q13 13 0 27l-50 49q-5 5 -5 13.5t5 13.5q14 13 27 0l49 -49q14 -14 28 0l49 49q13 13 27 0l49 -49q13 -14 27 0l49 49q13 13 27 0l49 -49q14 -14 27 0l50 49q13 13 26 0 q6 -5 6 -13.5t-6 -13.5l-49 -49q-13 -14 0 -27l49 -50q6 -5 6 -13t-6 -13q-5 -6 -13 -6t-13 6l-50 49q-13 13 -27 0l-49 -49q-5 -6 -13.5 -6t-13.5 6l-49 49q-14 13 -27 0l-49 -49q-14 -14 -27 0l-49 49q-14 12 -28 0l-98 -99q-13 -13 0 -27l49 -49q6 -5 6 -13.5t-6 -13.5 l-49 -49q-13 -14 0 -27l49 -49q14 -14 0 -27l-49 -49q-12 -14 0 -28l98 -98q14 -14 28 0l49 49q13 14 27 0l49 -49q13 -14 27 0l98 98q14 14 0 28l-98 98q-14 13 -27 0l-49 -49q-14 -14 -27 0q-14 13 0 27l49 49q14 13 0 27l-49 49q-6 5 -6 13.5t6 13.5q13 14 27 0l49 -49 q13 -14 27 0l49 49q5 6 13.5 6t13.5 -6q6 -5 6 -13.5t-6 -13.5l-49 -49q-13 -14 0 -27l98 -99q14 -13 27 0l50 50q13 13 26 0q14 -14 0 -27l-49 -49q-12 -14 0 -28l49 -49q14 -13 0 -27l-49 -49q-13 -13 0 -27l49 -49q6 -5 6 -13.5t-6 -13.5q-5 -6 -13 -6t-13 6l-50 49 q-13 13 -27 0l-49 -49q-5 -6 -13.5 -6t-13.5 6l-49 49q-14 13 -27 0l-49 -49q-14 -14 -27 0l-49 49q-14 12 -28 0l-49 -49q-13 -14 -27 0q-5 5 -5 13.5t5 13.5l50 49q13 14 0 27l-99 99q-13 13 -27 0l-49 -50q-13 -13 -27 0q-13 14 0 27l49 49q14 14 0 28l-49 49 q-13 13 0 27l49 49q14 13 0 27l-49 49q-5 5 -5 13.5zM112 470.5q0 -8.5 6 -13.5l22 -22q14 -14 27 0l23 22q5 5 5 13.5t-5 13.5l-23 22q-13 14 -27 0l-22 -22q-6 -5 -6 -13.5zM118 305l22 -23q14 -13 27 0l23 23q13 13 0 27l-23 22q-13 13 -27 0l-22 -22q-14 -14 0 -27z M346 76l23 -22q13 -14 27 0l22 22q14 14 0 27l-22 22q-14 14 -27 0l-23 -22q-13 -13 0 -27zM346 686l23 -23q13 -13 27 0l22 23q14 13 0 27l-22 22q-14 13 -27 0l-23 -22q-13 -14 0 -27zM499 76l22 -22q5 -6 13.5 -6t13.5 6l22 22q14 14 0 27l-22 22q-5 6 -13.5 6t-13.5 -6 l-22 -22q-13 -13 0 -27zM499 686l22 -23q13 -13 27 0l22 23q14 13 0 27l-22 22q-14 13 -27 0l-22 -22q-13 -14 0 -27zM575 152l22 -22q14 -14 27 0l23 22q13 14 0 27l-23 23q-13 13 -27 0l-22 -23q-13 -13 0 -27z" />
<glyph unicode="H" d="M58 623q0 8 6 13l49 50q13 13 0 26l-49 50q-14 13 0 27q13 13 26 0l50 -49q13 -14 27 0l49 49q14 13 27 0q13 -14 0 -27l-49 -50q-6 -5 -6 -13t6 -13l49 -50q13 -13 0 -26l-49 -50q-14 -13 0 -27l98 -98q14 -14 27 0l49 49q14 13 27 0l49 -49q14 -14 28 0l98 98 q14 14 0 27l-49 50q-6 5 -6 13t6 13l49 50q6 5 6 13t-6 13l-49 50q-14 13 0 27q13 13 27 0l49 -49q13 -14 27 0l49 49q13 13 27 0q14 -14 0 -27l-49 -50q-13 -13 0 -26l49 -50q6 -5 6 -13t-6 -13l-49 -50q-13 -13 0 -27l49 -49q14 -14 0 -27l-49 -49q-13 -14 0 -27l49 -49 q14 -14 0 -27l-49 -50q-13 -13 0 -27l49 -49q14 -13 0 -27l-49 -49q-13 -13 0 -27l49 -49q14 -14 0 -27q-5 -6 -13.5 -6t-13.5 6l-49 49q-14 13 -27 0l-49 -49q-14 -14 -27 0q-14 13 0 27l49 49q14 14 0 27l-49 49q-14 14 0 27l49 49q14 14 0 27l-98 99q-14 12 -28 0 l-49 -49q-13 -14 -27 0l-49 49q-13 13 -27 0l-98 -99q-14 -13 0 -27l49 -49q13 -13 0 -27l-49 -49q-14 -13 0 -27l49 -49q13 -14 0 -27q-5 -6 -13.5 -6t-13.5 6l-49 49q-14 13 -27 0l-50 -49q-5 -6 -13 -6t-13 6q-14 13 0 27l49 49q13 14 0 27l-49 49q-14 14 0 27l49 49 q13 14 0 27l-49 50q-14 13 0 27l49 49q13 13 0 27l-49 49q-14 13 0 27l49 49q13 14 0 27l-49 50q-6 5 -6 13zM112 623q0 -8 6 -13l22 -23q13 -13 27 0l22 23q13 13 0 26l-22 23q-14 13 -27 0l-22 -23q-6 -5 -6 -13zM118 152l22 -22q13 -14 27 0l22 22q13 14 0 27l-22 23 q-14 13 -27 0l-22 -23q-14 -13 0 -27zM118 305l22 -23q13 -13 27 0l22 23q13 13 0 27l-22 22q-14 13 -27 0l-22 -22q-14 -14 0 -27zM118 457l22 -22q13 -14 27 0l22 22q13 13 0 27l-22 22q-14 14 -27 0l-22 -22q-14 -14 0 -27zM194 381l22 -23q5 -5 13.5 -5t13.5 5l22 23 q14 13 0 27l-22 22q-5 6 -13.5 6t-13.5 -6l-22 -22q-14 -14 0 -27zM346 381l22 -23q14 -13 27 0l23 23q13 13 0 27l-23 22q-13 14 -27 0l-22 -22q-13 -14 0 -27zM498 381l23 -23q13 -13 27 0l22 23q14 13 0 27l-22 22q-14 14 -27 0l-23 -22q-13 -14 0 -27zM569 623 q0 -8 6 -13l22 -23q13 -13 27 0l22 23q6 5 6 13t-6 13l-22 23q-14 13 -27 0l-22 -23q-6 -5 -6 -13zM575 152l22 -22q13 -14 27 0l22 22q14 14 0 27l-22 23q-14 13 -27 0l-22 -23q-14 -13 0 -27zM575 305l22 -23q13 -13 27 0l22 23q14 13 0 27l-22 22q-14 13 -27 0l-22 -22 q-14 -14 0 -27zM575 457l22 -22q13 -14 27 0l22 22q14 13 0 27l-22 22q-14 14 -27 0l-22 -22q-14 -14 0 -27z" />
<glyph unicode="I" horiz-adv-x="307" d="M58 623q0 8 6 13l49 50q13 13 0 27l-49 49q-14 14 0 27q13 13 27 0l49 -49q13 -14 27 0l49 49q14 13 27 0q14 -13 0 -27l-49 -49q-14 -14 0 -27l49 -50q6 -5 6 -13t-6 -13l-49 -50q-6 -5 -6 -13t6 -13l49 -50q14 -13 0 -27l-49 -49q-6 -5 -6 -13.5t6 -13.5l49 -49 q14 -14 0 -27l-49 -49q-14 -14 0 -27l49 -49q14 -14 0 -28l-49 -49q-14 -13 0 -27l49 -49q14 -13 0 -27q-5 -5 -13.5 -5t-13.5 5l-49 49q-14 14 -27 0l-49 -49q-14 -13 -27 0q-14 14 0 27l49 49q13 14 0 27l-49 49q-14 14 0 28l49 49q13 13 0 27l-49 49q-14 13 0 27l49 49 q13 13 0 27l-49 49q-14 14 0 27l49 50q13 13 0 26l-49 50q-6 5 -6 13zM117 152l23 -22q13 -13 27 0l22 22q14 14 0 28l-22 22q-14 13 -27 0l-23 -22q-12 -14 0 -28zM117 305l23 -23q13 -13 27 0l22 23q14 13 0 27l-22 22q-14 14 -27 0l-23 -22q-13 -14 0 -27zM117 457 l23 -22q13 -13 27 0l22 22q14 14 0 27l-22 22q-14 14 -27 0l-23 -22q-13 -13 0 -27zM117 610l23 -23q13 -13 27 0l22 23q6 5 6 13t-6 13l-22 23q-14 13 -27 0l-23 -23q-13 -13 0 -26z" />
<glyph unicode="J" d="M64 152q-13 14 0 27l49 49q14 14 0 28l-49 49q-13 13 0 27q13 13 27 0l49 -50q13 -13 27 0l49 50q5 5 13.5 5t13.5 -5q14 -14 0 -27l-49 -49q-12 -14 0 -28l98 -98q14 -14 27 0l50 49q5 6 13 6t13 -6l50 -49q13 -14 27 0l98 98q14 14 0 28l-49 49q-14 13 0 27l49 49 q14 13 0 27l-49 49q-6 5 -6 13.5t6 13.5l49 49q14 14 0 27l-49 50q-6 5 -6 13t6 13l49 50q14 13 0 27l-49 49q-6 5 -6 13.5t6 13.5q13 13 27 0l49 -49q14 -14 27 0l49 49q14 13 27 0q6 -5 6 -13.5t-6 -13.5l-49 -49q-13 -14 0 -27l49 -50q6 -5 6 -13t-6 -13l-49 -50 q-13 -13 0 -27l49 -49q6 -5 6 -13.5t-6 -13.5l-49 -49q-13 -14 0 -27l49 -49q14 -14 0 -27l-49 -49q-12 -14 0 -28l49 -49q14 -13 0 -27q-13 -13 -27 0l-49 50q-13 13 -27 0l-98 -99q-14 -13 0 -27l49 -49q5 -5 5 -13.5t-5 -13.5q-5 -6 -13.5 -6t-13.5 6l-49 49 q-14 13 -27 0l-50 -49q-5 -6 -13 -6t-13 6l-50 49q-13 13 -27 0l-49 -49q-5 -6 -13.5 -6t-13.5 6q-5 5 -5 13.5t5 13.5l49 49q14 14 0 27l-98 99q-14 13 -27 0l-49 -50q-14 -13 -27 0zM346 76l23 -22q5 -6 13 -6t13 6l23 22q13 14 0 27l-23 22q-5 6 -13 6t-13 -6l-23 -22 q-13 -13 0 -27zM569 470.5q0 -8.5 6 -13.5l22 -22q14 -14 27 0l23 22q13 13 0 27l-23 22q-13 14 -27 0l-22 -22q-6 -5 -6 -13.5zM569 623q0 -8 6 -13l22 -23q14 -13 27 0l23 23q13 13 0 26l-23 23q-13 13 -27 0l-22 -23q-6 -5 -6 -13zM575 305l22 -23q14 -13 27 0l23 23 q13 13 0 27l-23 22q-13 13 -27 0l-22 -22q-14 -14 0 -27z" />
<glyph unicode="K" horiz-adv-x="765" d="M59 13.5q0 8.5 5 13.5l50 49q13 14 0 27l-50 49q-13 14 0 27l50 49q12 14 0 28l-50 49q-13 13 0 27l50 49q13 13 0 27l-50 49q-5 5 -5 13.5t5 13.5l50 49q13 14 0 27l-50 50q-13 13 0 26l50 50q13 13 0 27l-50 49q-5 5 -5 13.5t5 13.5q14 13 27 0l49 -49q14 -14 28 0 l49 49q13 13 27 0q5 -5 5 -13.5t-5 -13.5l-50 -49q-13 -14 0 -27l50 -50q13 -13 0 -26l-50 -50q-13 -13 0 -27l99 -98q13 -14 27 0l98 98q14 14 0 27l-49 50q-13 13 0 26q5 6 13.5 6t13.5 -6l49 -49q14 -13 27 0l99 99q13 13 0 27l-49 49q-6 5 -6 13.5t6 13.5q13 13 26 0 l50 -49q13 -14 27 0l49 49q14 13 27 0t0 -27l-49 -49q-14 -14 0 -27l49 -50q13 -13 0 -26q-5 -6 -13.5 -6t-13.5 6l-49 49q-14 13 -27 0l-99 -99q-13 -13 0 -27l49 -49q6 -5 6 -13.5t-6 -13.5q-13 -13 -26 0l-50 49q-13 14 -27 0l-98 -98q-13 -14 0 -27l98 -99q14 -13 27 0 l50 50q13 13 26 0q14 -14 0 -27l-49 -49q-12 -14 0 -28l99 -98q13 -14 27 0l49 49q5 6 13.5 6t13.5 -6q13 -13 0 -27l-49 -49q-14 -13 0 -27l49 -49q13 -13 0 -27q-5 -6 -13.5 -6t-13.5 6l-49 49q-14 13 -27 0l-50 -49q-5 -6 -13 -6t-13 6q-6 5 -6 13.5t6 13.5l49 49 q13 14 0 27l-99 99q-13 13 -27 0l-49 -50q-5 -5 -13.5 -5t-13.5 5q-13 14 0 27l49 49q14 14 0 28l-98 98q-14 13 -27 0l-99 -98q-12 -14 0 -28l50 -49q13 -13 0 -27l-50 -49q-13 -13 0 -27l50 -49q5 -5 5 -13.5t-5 -13.5q-14 -14 -27 0l-49 49q-14 12 -28 0l-49 -49 q-13 -14 -27 0q-5 5 -5 13.5zM113 470.5q0 -8.5 5 -13.5l22 -22q14 -14 28 0l22 22q5 5 5 13.5t-5 13.5l-22 22q-14 14 -28 0l-22 -22q-5 -5 -5 -13.5zM118 152l22 -22q14 -14 28 0l22 22q13 14 0 27l-22 23q-14 12 -28 0l-22 -23q-13 -13 0 -27zM118 305l22 -23 q14 -12 28 0l22 23q13 13 0 27l-22 22q-14 12 -28 0l-22 -22q-13 -14 0 -27zM118 610l22 -23q14 -12 28 0l22 23q13 13 0 26l-22 23q-14 12 -28 0l-22 -23q-13 -13 0 -26zM194 381l23 -23q13 -13 27 0l22 23q14 13 0 27l-22 22q-14 14 -27 0l-23 -22q-13 -14 0 -27z" />
<glyph unicode="L" horiz-adv-x="612" d="M64 0q-13 13 0 27l49 49q14 14 0 27l-49 49q-13 14 0 27l49 49q14 14 0 27l-49 50q-13 13 0 27l49 49q14 13 0 27l-49 49q-13 13 0 27l49 49q14 14 0 27l-49 50q-13 13 0 26l49 50q6 5 6 13t-6 13l-49 50q-13 13 0 27q14 13 27 0l49 -49q14 -14 27 0l49 49q14 12 28 0 q13 -14 0 -27l-50 -50q-13 -13 0 -26l50 -50q13 -13 0 -26l-50 -50q-13 -13 0 -27l50 -49q13 -14 0 -27l-50 -49q-13 -14 0 -27l50 -49q13 -14 0 -27l-50 -50q-13 -13 0 -27l99 -98q13 -14 27 0l49 49q13 13 27 0l49 -49q13 -14 27 0l49 49q14 13 27 0q14 -13 0 -27l-49 -49 q-13 -13 0 -27l49 -49q14 -14 0 -27q-13 -14 -27 0l-49 49q-14 13 -27 0l-49 -49q-14 -14 -27 0l-49 49q-14 13 -27 0l-49 -49q-14 -14 -28 0l-49 49q-13 13 -27 0l-49 -49q-13 -14 -27 0zM112 623q0 -8 6 -13l22 -23q14 -13 27 0l23 23q13 13 0 26l-23 23q-13 13 -27 0 l-22 -23q-6 -5 -6 -13zM118 152l22 -22q14 -14 27 0l23 22q13 14 0 27l-23 23q-13 13 -27 0l-22 -23q-14 -13 0 -27zM118 305l22 -23q14 -13 27 0l23 23q13 13 0 27l-23 22q-13 13 -27 0l-22 -22q-14 -14 0 -27zM118 457l22 -22q14 -14 27 0l23 22q13 13 0 27l-23 22 q-13 14 -27 0l-22 -22q-14 -14 0 -27zM194 76l22 -22q14 -14 28 0l22 22q13 14 0 27l-22 22q-14 14 -28 0l-22 -22q-13 -13 0 -27zM346 76l23 -22q13 -14 27 0l22 22q14 14 0 27l-22 22q-14 14 -27 0l-23 -22q-13 -13 0 -27z" />
<glyph unicode="M" horiz-adv-x="917" d="M58 13.5q0 8.5 6 13.5l49 49q13 14 0 27l-49 49q-14 14 0 27l49 49q12 14 0 28l-49 49q-14 13 0 27l49 49q13 13 0 27l-49 49q-6 5 -6 13.5t6 13.5l49 49q13 14 0 27l-49 50q-6 5 -6 13t6 13l49 50q13 13 0 27l-49 49q-6 5 -6 13.5t6 13.5q13 13 27 0l49 -49q13 -14 27 0 l49 49q14 13 27 0q6 -5 6 -13.5t-6 -13.5l-49 -49q-14 -14 0 -27l98 -99q14 -13 27 0l50 49q5 6 13 6t13 -6q6 -5 6 -13t-6 -13l-49 -50q-13 -13 0 -27l99 -98q13 -14 27 0l98 98q13 14 0 27l-49 50q-6 5 -6 13t6 13q5 6 13.5 6t13.5 -6l49 -49q14 -13 27 0l99 99 q13 13 0 27l-50 49q-13 14 0 27q14 13 27 0l49 -49q14 -14 28 0l49 49q13 13 27 0q13 -13 0 -27l-50 -49q-13 -14 0 -27l50 -50q13 -13 0 -26l-50 -50q-13 -13 0 -27l50 -49q13 -14 0 -27l-50 -49q-13 -14 0 -27l50 -49q13 -14 0 -27l-50 -49q-12 -14 0 -28l50 -49 q13 -13 0 -27l-50 -49q-13 -13 0 -27l50 -49q13 -13 0 -27q-14 -14 -27 0l-49 49q-14 12 -28 0l-49 -49q-13 -14 -27 0q-13 14 0 27l50 49q13 14 0 27l-50 49q-13 14 0 27l50 49q12 14 0 28l-50 49q-13 13 0 27l50 49q13 13 0 27l-99 98q-13 14 -27 0l-98 -98q-14 -14 0 -27 l49 -49q13 -14 0 -27q-5 -6 -13.5 -6t-13.5 6l-49 49q-14 13 -27 0l-50 -49q-5 -6 -13 -6t-13 6q-14 13 0 27l49 49q13 13 0 27l-99 98q-13 14 -27 0l-98 -98q-14 -14 0 -27l49 -49q14 -14 0 -27l-49 -49q-14 -14 0 -28l49 -49q14 -13 0 -27l-49 -49q-14 -13 0 -27l49 -49 q6 -5 6 -13.5t-6 -13.5q-5 -6 -13.5 -6t-13.5 6l-49 49q-14 13 -27 0l-49 -49q-14 -14 -27 0q-6 5 -6 13.5zM112 470.5q0 -8.5 6 -13.5l22 -22q13 -14 27 0l22 22q6 5 6 13.5t-6 13.5l-22 22q-14 14 -27 0l-22 -22q-6 -5 -6 -13.5zM112 623q0 -8 6 -13l22 -23q13 -13 27 0 l22 23q6 5 6 13t-6 13l-22 23q-14 13 -27 0l-22 -23q-6 -5 -6 -13zM118 152l22 -22q13 -14 27 0l22 22q14 14 0 27l-22 23q-14 13 -27 0l-22 -23q-14 -13 0 -27zM118 305l22 -23q13 -13 27 0l22 23q14 13 0 27l-22 22q-14 13 -27 0l-22 -22q-14 -14 0 -27zM194 533l22 -22 q14 -13 27 0l22 22q14 14 0 27l-22 22q-5 6 -13.5 6t-13.5 -6l-22 -22q-14 -13 0 -27zM651 533l22 -22q14 -13 27 0l23 22q13 14 0 27l-23 22q-13 14 -27 0l-22 -22q-14 -13 0 -27zM727 152l22 -22q14 -14 28 0l22 22q13 14 0 27l-22 23q-14 12 -28 0l-22 -23q-13 -13 0 -27 zM727 305l22 -23q14 -12 28 0l22 23q13 13 0 27l-22 22q-14 12 -28 0l-22 -22q-13 -14 0 -27zM727 457l22 -22q14 -14 28 0l22 22q13 13 0 27l-22 22q-14 14 -28 0l-22 -22q-13 -14 0 -27zM727 610l22 -23q14 -12 28 0l22 23q13 13 0 26l-22 23q-14 12 -28 0l-22 -23 q-13 -13 0 -26z" />
<glyph unicode="N" d="M58 623q0 8 6 13l49 50q13 13 0 26l-49 50q-14 13 0 27q13 13 26 0l50 -49q13 -14 27 0l49 49q14 13 27 0q13 -14 0 -27l-49 -50q-6 -5 -6 -13t6 -13l98 -99q14 -13 27 0l49 49q14 14 27 0q6 -5 6 -13t-6 -13l-49 -50q-13 -13 0 -27l98 -98q14 -14 28 0l98 98q14 14 0 27 l-49 50q-6 5 -6 13t6 13l49 50q6 5 6 13t-6 13l-49 50q-14 13 0 27q13 13 27 0l49 -49q13 -14 27 0l49 49q13 13 27 0q14 -14 0 -27l-49 -50q-13 -13 0 -26l49 -50q6 -5 6 -13t-6 -13l-49 -50q-13 -13 0 -27l49 -49q14 -14 0 -27l-49 -49q-13 -14 0 -27l49 -49q14 -14 0 -27 l-49 -50q-13 -13 0 -27l49 -49q14 -13 0 -27l-49 -49q-13 -13 0 -27l49 -49q14 -14 0 -27q-5 -6 -13.5 -6t-13.5 6l-49 49q-14 13 -27 0l-49 -49q-14 -14 -27 0q-14 13 0 27l49 49q14 14 0 27l-49 49q-14 14 0 27l49 49q14 14 0 27l-98 99q-14 12 -28 0l-49 -49 q-13 -14 -27 0q-13 13 0 27l50 49q13 13 0 27l-99 98q-13 14 -27 0l-98 -98q-14 -14 0 -27l49 -49q13 -14 0 -27l-49 -50q-14 -13 0 -27l49 -49q13 -13 0 -27l-49 -49q-14 -13 0 -27l49 -49q13 -14 0 -27q-5 -6 -13.5 -6t-13.5 6l-49 49q-14 13 -27 0l-50 -49q-5 -6 -13 -6 t-13 6q-14 13 0 27l49 49q13 14 0 27l-49 49q-14 14 0 27l49 49q13 14 0 27l-49 50q-14 13 0 27l49 49q13 13 0 27l-49 49q-14 13 0 27l49 49q13 14 0 27l-49 50q-6 5 -6 13zM112 623q0 -8 6 -13l22 -23q13 -13 27 0l22 23q13 13 0 26l-22 23q-14 13 -27 0l-22 -23 q-6 -5 -6 -13zM118 152l22 -22q13 -14 27 0l22 22q13 14 0 27l-22 23q-14 13 -27 0l-22 -23q-14 -13 0 -27zM118 305l22 -23q13 -13 27 0l22 23q13 13 0 27l-22 22q-14 13 -27 0l-22 -22q-14 -14 0 -27zM118 457l22 -22q13 -14 27 0l22 22q13 13 0 27l-22 22q-14 14 -27 0 l-22 -22q-14 -14 0 -27zM194 533l22 -22q14 -13 27 0l22 22q14 14 0 27l-22 22q-5 6 -13.5 6t-13.5 -6l-22 -22q-14 -13 0 -27zM498 381l23 -23q13 -13 27 0l22 23q14 13 0 27l-22 22q-14 14 -27 0l-23 -22q-13 -14 0 -27zM569 623q0 -8 6 -13l22 -23q13 -13 27 0l22 23 q6 5 6 13t-6 13l-22 23q-14 13 -27 0l-22 -23q-6 -5 -6 -13zM575 152l22 -22q13 -14 27 0l22 22q14 14 0 27l-22 23q-14 13 -27 0l-22 -23q-14 -13 0 -27zM575 305l22 -23q13 -13 27 0l22 23q14 13 0 27l-22 22q-14 13 -27 0l-22 -22q-14 -14 0 -27zM575 457l22 -22 q13 -14 27 0l22 22q14 13 0 27l-22 22q-14 14 -27 0l-22 -22q-14 -14 0 -27z" />
<glyph unicode="O" d="M58 470.5q0 8.5 6 13.5l49 49q13 14 0 27l-49 50q-6 5 -6 13t6 13q5 6 13 6t13 -6l50 -49q13 -13 27 0l98 99q13 13 0 27l-49 49q-6 5 -6 13.5t6 13.5q14 13 27 0l49 -49q14 -14 27 0l49 49q14 13 27 0l49 -49q14 -14 28 0l49 49q13 13 27 0q5 -5 5 -13.5t-5 -13.5 l-50 -49q-13 -14 0 -27l99 -99q13 -13 27 0l49 49q5 6 13.5 6t13.5 -6q6 -5 6 -13t-6 -13l-49 -50q-14 -13 0 -27l49 -49q6 -5 6 -13.5t-6 -13.5l-49 -49q-14 -14 0 -27l49 -49q14 -14 0 -27l-49 -49q-14 -14 0 -27l49 -50q14 -13 0 -27q-5 -5 -13.5 -5t-13.5 5l-49 50 q-14 13 -27 0l-99 -99q-13 -13 0 -27l50 -49q13 -13 0 -27q-14 -13 -27 0l-49 49q-14 14 -28 0l-49 -49q-13 -13 -27 0l-49 49q-13 14 -27 0l-49 -49q-5 -5 -13.5 -5t-13.5 5q-14 14 0 27l49 49q13 14 0 27l-98 99q-14 13 -27 0l-50 -50q-13 -13 -26 0q-14 14 0 27l49 50 q13 13 0 27l-49 49q-14 13 0 27l49 49q13 13 0 27l-49 49q-6 5 -6 13.5zM117 305l23 -23q13 -13 27 0l22 23q13 13 0 27l-22 22q-14 14 -27 0l-23 -22q-13 -14 0 -27zM117 457l23 -22q13 -13 27 0l22 22q13 13 0 27l-22 22q-14 14 -27 0l-23 -22q-13 -14 0 -27zM194 229 l98 -99q14 -13 27 0l49 49q14 14 27 0l49 -49q14 -12 28 0l98 99q13 13 0 27l-49 49q-14 13 0 27l49 49q13 13 0 27l-49 49q-6 5 -6 13.5t6 13.5l49 49q13 14 0 27l-98 99q-14 12 -28 0l-49 -49q-13 -14 -27 0l-49 49q-13 13 -27 0l-98 -99q-14 -13 0 -27l49 -49 q13 -14 0 -27l-49 -49q-14 -14 0 -27l49 -49q13 -14 0 -27l-49 -49q-14 -14 0 -27zM346 76l22 -22q14 -14 27 0l23 22q13 14 0 27l-23 23q-13 13 -27 0l-22 -23q-14 -13 0 -27zM346 686l22 -22q14 -14 27 0l23 22q13 13 0 27l-23 22q-13 13 -27 0l-22 -22q-14 -14 0 -27z M569 470.5q0 -8.5 5 -13.5l23 -22q13 -13 27 0l22 22q6 5 6 13.5t-6 13.5l-22 22q-14 14 -27 0l-23 -22q-5 -5 -5 -13.5zM574 305l23 -23q13 -13 27 0l22 23q14 13 0 27l-22 22q-14 14 -27 0l-23 -22q-13 -14 0 -27z" />
<glyph unicode="P" horiz-adv-x="765" d="M59 13.5q0 8.5 5 13.5l50 49q13 14 0 27l-50 49q-13 14 0 27l50 49q12 14 0 28l-50 49q-13 13 0 27l50 49q13 13 0 27l-50 49q-5 5 -5 13.5t5 13.5l50 49q13 14 0 27l-50 50q-13 13 0 26l50 50q13 13 0 27l-50 49q-5 5 -5 13.5t5 13.5q14 13 27 0l49 -49q14 -14 28 0 l49 49q13 13 27 0l49 -49q13 -14 27 0l49 49q13 13 27 0l49 -49q14 -14 27 0l50 49q13 13 26 0q6 -5 6 -13.5t-6 -13.5l-49 -49q-13 -14 0 -27l99 -99q13 -13 27 0l49 49q5 6 13.5 6t13.5 -6q13 -13 0 -26l-49 -50q-14 -13 0 -27l49 -49q13 -14 0 -27t-27 0l-49 49 q-14 14 -27 0l-99 -98q-13 -14 0 -27l49 -49q14 -14 0 -27q-5 -6 -13 -6t-13 6l-50 49q-13 13 -27 0l-49 -49q-5 -6 -13.5 -6t-13.5 6l-49 49q-14 13 -27 0l-99 -98q-12 -14 0 -28l50 -49q13 -13 0 -27l-50 -49q-13 -13 0 -27l50 -49q5 -5 5 -13.5t-5 -13.5q-14 -14 -27 0 l-49 49q-14 12 -28 0l-49 -49q-13 -14 -27 0q-5 5 -5 13.5zM113 470.5q0 -8.5 5 -13.5l22 -22q14 -14 28 0l22 22q5 5 5 13.5t-5 13.5l-22 22q-14 14 -28 0l-22 -22q-5 -5 -5 -13.5zM118 152l22 -22q14 -14 28 0l22 22q13 14 0 27l-22 23q-14 12 -28 0l-22 -23 q-13 -13 0 -27zM118 305l22 -23q14 -12 28 0l22 23q13 13 0 27l-22 22q-14 12 -28 0l-22 -22q-13 -14 0 -27zM118 610l22 -23q14 -12 28 0l22 23q13 13 0 26l-22 23q-14 12 -28 0l-22 -23q-13 -13 0 -26zM194 381l23 -23q13 -13 27 0l22 23q13 13 0 27l-22 22q-14 14 -27 0 l-23 -22q-13 -14 0 -27zM194 533l99 -98q13 -14 27 0l49 49q5 6 13.5 6t13.5 -6l49 -49q14 -14 27 0l99 98q13 14 0 27l-99 99q-13 13 -27 0l-49 -49q-5 -6 -13.5 -6t-13.5 6l-49 49q-14 13 -27 0l-99 -99q-13 -13 0 -27zM194 686l23 -23q13 -13 27 0l22 23q13 13 0 27 l-22 22q-14 13 -27 0l-23 -22q-13 -14 0 -27zM347 381l22 -23q5 -5 13.5 -5t13.5 5l22 23q14 13 0 27l-22 22q-5 6 -13.5 6t-13.5 -6l-22 -22q-14 -14 0 -27zM347 686l22 -23q13 -13 27 0l22 23q14 13 0 27l-22 22q-14 13 -27 0l-22 -22q-14 -14 0 -27z" />
<glyph unicode="Q" horiz-adv-x="841" d="M64 152q-14 14 0 28l49 49q14 13 0 27l-22 22l-27 27q-14 13 0 27l49 49q6 5 6 13.5t-6 13.5l-49 49q-14 14 0 27l49 50q6 5 6 13t-6 13l-49 50q-14 13 0 27q14 13 27 0l49 -49q14 -14 27 0l99 98q5 5 5 13.5t-5 13.5l-50 49q-13 14 0 27q14 13 27 0l49 -49q14 -14 28 0 l49 49q13 13 27 0l49 -49q13 -14 27 0l49 49q13 13 27 0t0 -27l-49 -49q-13 -13 0 -27l98 -98q14 -14 27 0l50 49q13 13 26 0q14 -14 0 -27l-49 -50q-13 -13 0 -26l49 -50q14 -13 0 -27l-49 -49q-13 -14 0 -27l49 -49q14 -14 0 -27q-19 -19 -26 -27l-23 -22q-13 -14 0 -27 l49 -49q14 -14 0 -28q-13 -13 -26 0l-50 50q-13 13 -27 0l-22 -22q-12 -14 0 -28l99 -98q13 -13 26 0l50 49q13 14 27 0q13 -13 0 -27l-49 -49q-14 -13 0 -27l49 -49q13 -13 0 -27q-14 -14 -27 0l-50 49q-5 6 -13 6t-13 -6l-50 -49q-13 -14 -27 0q-13 14 0 27l49 49 q14 14 0 27l-98 99q-5 5 -13.5 5t-13.5 -5l-22 -23q-13 -13 0 -27l49 -49q14 -13 0 -27q-5 -5 -13.5 -5t-13.5 5l-49 50q-14 13 -27 0l-49 -50q-14 -13 -27 0l-49 50q-14 12 -28 0l-49 -50q-13 -13 -27 0q-13 14 0 27l50 49q13 14 0 27l-99 99q-13 13 -27 0l-49 -50 q-5 -5 -13.5 -5t-13.5 5zM118 305l22 -22q14 -14 27 0l23 22q13 13 0 27l-23 22q-13 14 -27 0l-22 -22q-14 -14 0 -27zM118 457l22 -22q14 -13 27 0l23 22q13 14 0 27l-23 23q-13 13 -27 0l-22 -23q-14 -13 0 -27zM189 394.5q0 -8.5 5 -13.5l49 -49q14 -14 0 -27l-27 -27 l-22 -22q-13 -14 0 -27l98 -99q14 -12 28 0l49 50q13 13 27 0l49 -50q13 -13 27 0l22 22q14 14 0 28l-49 49q-13 13 0 27q13 13 27 0l49 -50q5 -5 13.5 -5t13.5 5l22 23q14 13 0 27l-22 22l-27 27q-13 13 0 27l49 49q6 5 6 13.5t-6 13.5l-49 49q-13 14 0 27l49 50q6 5 6 13 t-6 13l-98 99q-14 13 -27 0l-49 -49q-14 -14 -27 0l-49 49q-14 12 -28 0l-98 -99q-13 -13 0 -26l49 -50q14 -13 0 -27l-49 -49q-5 -5 -5 -13.5zM341 699.5q0 -8.5 5 -13.5l23 -22q13 -14 27 0l22 22q6 5 6 13.5t-6 13.5l-22 22q-14 14 -27 0l-23 -22q-5 -5 -5 -13.5zM346 76 l23 -22q13 -13 27 0l22 22q14 14 0 27l-22 23q-14 13 -27 0l-23 -23q-13 -13 0 -27zM575 305l22 -22q14 -14 27 0l22 22q14 13 0 27l-22 22q-13 14 -27 0l-22 -22q-13 -14 0 -27zM575 457l22 -22q14 -13 27 0l22 22q14 14 0 27l-22 23q-13 13 -27 0l-22 -23q-13 -13 0 -27z " />
<glyph unicode="R" d="M58 623q0 8 6 13l49 50q13 13 0 27l-49 49q-14 14 0 27q13 13 26 0l50 -49q13 -14 27 0l49 49q14 13 27 0l49 -49q14 -14 27 0l49 49q14 13 27 0l49 -49q14 -14 28 0l49 49q13 13 27 0q13 -13 0 -27l-50 -49q-13 -14 0 -27l99 -99q13 -13 27 0l49 49q5 6 13.5 6t13.5 -6 q6 -5 6 -13t-6 -13l-49 -50q-13 -13 0 -26l49 -50q14 -13 0 -27q-14 -13 -27 0l-49 49q-14 14 -27 0l-99 -98q-5 -5 -5 -13.5t5 -13.5l99 -99q13 -13 27 0l49 50q5 5 13.5 5t13.5 -5q14 -14 0 -27l-49 -49q-13 -14 0 -27l49 -49q14 -14 0 -28l-49 -49q-13 -13 0 -27l49 -49 q14 -13 0 -27q-5 -5 -13.5 -5t-13.5 5l-49 49q-14 14 -27 0l-49 -49q-14 -13 -27 0q-14 14 0 27l49 49q14 14 0 27l-49 49q-14 14 0 28l49 49q14 13 0 27l-98 98q-14 14 -28 0l-49 -49q-13 -13 -27 0l-49 49q-13 14 -27 0l-98 -98q-14 -14 0 -27l49 -49q12 -14 0 -28 l-49 -49q-14 -13 0 -27l49 -49q13 -13 0 -27q-5 -5 -13.5 -5t-13.5 5l-49 49q-14 14 -27 0l-50 -49q-13 -13 -26 0q-14 14 0 27l49 49q13 14 0 27l-49 49q-14 14 0 28l49 49q13 13 0 27l-49 49q-14 13 0 27l49 49q13 13 0 27l-49 49q-14 14 0 27l49 50q13 13 0 26l-49 50 q-6 5 -6 13zM112 623q0 -8 6 -13l22 -23q13 -13 27 0l22 23q13 13 0 26l-22 23q-14 13 -27 0l-22 -23q-6 -5 -6 -13zM118 152l22 -22q13 -13 27 0l22 22q12 14 0 28l-22 22q-14 13 -27 0l-22 -22q-14 -14 0 -28zM118 305l22 -23q13 -13 27 0l22 23q13 13 0 27l-22 22 q-14 14 -27 0l-22 -22q-14 -14 0 -27zM118 457l22 -22q13 -13 27 0l22 22q13 14 0 27l-22 22q-14 14 -27 0l-22 -22q-14 -13 0 -27zM188 394.5q0 -8.5 6 -13.5l22 -22q5 -6 13.5 -6t13.5 6l22 22q6 5 6 13.5t-6 13.5l-22 22q-5 6 -13.5 6t-13.5 -6l-22 -22q-6 -5 -6 -13.5z M188 547q0 -8 6 -13l98 -99q14 -13 27 0l49 49q14 14 27 0l49 -49q14 -12 28 0l98 99q6 5 6 13t-6 13l-98 99q-14 12 -28 0l-49 -49q-13 -14 -27 0l-49 49q-13 13 -27 0l-98 -99q-6 -5 -6 -13zM194 686l22 -22q5 -6 13.5 -6t13.5 6l22 22q14 13 0 27l-22 22q-13 13 -27 0 l-22 -22q-14 -14 0 -27zM341 394.5q0 -8.5 5 -13.5l22 -22q14 -14 27 0l23 22q5 5 5 13.5t-5 13.5l-23 22q-13 14 -27 0l-22 -22q-5 -5 -5 -13.5zM346 686l22 -22q14 -14 27 0l23 22q13 13 0 27l-23 22q-13 13 -27 0l-22 -22q-13 -14 0 -27zM575 152l22 -22q13 -13 27 0 l22 22q14 14 0 28l-22 22q-14 13 -27 0l-22 -22q-14 -14 0 -28z" />
<glyph unicode="S" horiz-adv-x="765" d="M64 0q-13 14 0 27l49 49q14 14 0 27l-49 49q-12 14 0 28q5 5 13.5 5t13.5 -5l49 -50q14 -13 27 0l50 50q13 13 26 0l50 -50q13 -13 27 0l49 50q5 5 13.5 5t13.5 -5l49 -50q14 -13 27 0l99 99q13 13 0 27l-99 98q-13 14 -27 0l-49 -49q-14 -13 -27 0l-49 49q-14 14 -27 0 l-50 -49q-13 -13 -26 0q-14 13 0 27l49 49q5 5 5 13.5t-5 13.5l-99 99q-13 13 -27 0l-49 -50q-13 -13 -27 0q-13 14 0 27l49 50q6 5 6 13t-6 13l-49 50q-13 13 0 27q14 13 27 0l49 -49q14 -14 27 0l99 98q5 5 5 13.5t-5 13.5l-49 49q-14 14 0 27q13 13 26 0l50 -49 q13 -14 27 0l49 49q13 13 27 0l49 -49q14 -14 27 0l49 49q14 13 27 0l49 -49q14 -14 28 0l49 49q13 13 27 0q13 -13 0 -27l-50 -49q-13 -13 0 -27l50 -49q13 -14 0 -27q-14 -14 -27 0l-49 49q-14 12 -28 0l-49 -49q-13 -14 -27 0l-49 49q-13 13 -27 0l-49 -49 q-5 -6 -13.5 -6t-13.5 6l-49 49q-14 13 -27 0l-99 -99q-13 -13 0 -26l99 -99q13 -13 27 0l49 49q5 6 13.5 6t13.5 -6l49 -49q14 -13 27 0l49 49q14 14 27 0q14 -13 0 -27l-49 -49q-6 -5 -6 -13.5t6 -13.5l98 -98q14 -14 28 0l49 49q13 13 27 0q13 -14 0 -27l-50 -49 q-13 -14 0 -27l50 -49q12 -14 0 -28q-14 -13 -27 0l-49 50q-14 12 -28 0l-98 -99q-14 -13 0 -27l49 -49q14 -13 0 -27q-13 -13 -27 0l-49 50q-13 13 -27 0l-49 -50q-5 -5 -13.5 -5t-13.5 5l-49 50q-14 13 -27 0l-50 -50q-13 -13 -26 0l-50 50q-13 13 -27 0l-49 -50 q-5 -5 -13.5 -5t-13.5 5zM194 76l23 -22q13 -13 26 0l23 22q13 14 0 27l-23 23q-13 13 -26 0l-23 -23q-13 -13 0 -27zM341 394.5q0 -8.5 6 -13.5l22 -22q13 -13 27 0l22 22q5 5 5 13.5t-5 13.5l-22 22q-5 6 -13.5 6t-13.5 -6l-22 -22q-6 -5 -6 -13.5zM341 699.5 q0 -8.5 6 -13.5l22 -22q5 -6 13.5 -6t13.5 6l22 22q5 5 5 13.5t-5 13.5l-22 22q-14 13 -27 0l-22 -22q-6 -5 -6 -13.5zM347 76l22 -22q5 -5 13.5 -5t13.5 5l22 22q13 14 0 27l-22 23q-5 5 -13.5 5t-13.5 -5l-22 -23q-14 -13 0 -27zM493 699.5q0 -8.5 6 -13.5l22 -22 q14 -14 27 0l23 22q13 14 0 27l-23 22q-13 13 -27 0l-22 -22q-6 -5 -6 -13.5z" />
<glyph unicode="T" horiz-adv-x="917" d="M64 610q-13 13 0 26l49 50q14 13 0 27l-49 49q-13 14 0 27q14 13 27 0l49 -49q14 -14 27 0l49 49q14 13 27 0l50 -49q13 -14 27 0l49 49q13 13 27 0l49 -49q13 -14 27 0l49 49q13 13 27 0l49 -49q14 -14 27 0l50 49q13 13 26 0l50 -49q13 -14 27 0l49 49q14 13 27 0 t0 -27l-49 -49q-14 -14 0 -27l49 -50q13 -13 0 -26q-5 -6 -13.5 -6t-13.5 6l-49 49q-14 13 -27 0l-50 -49q-5 -6 -13 -6t-13 6l-50 49q-13 13 -27 0l-98 -99q-13 -13 0 -26l49 -50q14 -13 0 -27l-49 -49q-13 -14 0 -27l49 -49q14 -14 0 -27l-49 -49q-13 -14 0 -27l49 -49 q14 -14 0 -28l-49 -49q-13 -13 0 -27l49 -49q14 -13 0 -27q-5 -5 -13.5 -5t-13.5 5l-49 49q-14 14 -27 0l-49 -49q-14 -13 -27 0q-14 14 0 27l49 49q14 14 0 27l-49 49q-14 14 0 28l49 49q14 13 0 27l-49 49q-14 13 0 27l49 49q6 5 6 13.5t-6 13.5l-49 49q-14 14 0 27l49 50 q6 5 6 13t-6 13l-98 99q-14 13 -27 0l-50 -49q-13 -14 -27 0l-49 49q-13 13 -27 0l-49 -49q-13 -14 -27 0zM194 686l22 -22q14 -14 27 0l23 22q13 13 0 27l-23 22q-13 13 -27 0l-22 -22q-13 -14 0 -27zM346 686l23 -22q13 -14 27 0l22 22q14 13 0 27l-22 22q-14 13 -27 0 l-23 -22q-13 -14 0 -27zM417 623q0 -8 6 -13l22 -23q13 -13 27 0l22 23q6 5 6 13t-6 13l-22 23q-14 13 -27 0l-22 -23q-6 -5 -6 -13zM423 152l22 -22q13 -13 27 0l22 22q14 14 0 28l-22 22q-14 13 -27 0l-22 -22q-14 -14 0 -28zM423 305l22 -23q13 -13 27 0l22 23 q14 13 0 27l-22 22q-14 14 -27 0l-22 -22q-14 -14 0 -27zM423 457l22 -22q13 -13 27 0l22 22q14 14 0 27l-22 22q-14 14 -27 0l-22 -22q-14 -13 0 -27zM499 686l22 -22q5 -6 13.5 -6t13.5 6l22 22q14 13 0 27l-22 22q-14 13 -27 0l-22 -22q-13 -14 0 -27zM651 686l23 -22 q5 -6 13 -6t13 6l23 22q13 13 0 27l-23 22q-13 13 -26 0l-23 -22q-13 -14 0 -27z" />
<glyph unicode="U" d="M58 470.5q0 8.5 6 13.5l49 49q13 14 0 27l-49 50q-6 5 -6 13t6 13l49 50q13 13 0 27l-49 49q-6 5 -6 13.5t6 13.5q13 13 27 0l49 -49q14 -14 27 0l49 49q14 13 27 0t0 -27l-49 -49q-14 -14 0 -27l49 -50q13 -13 0 -26l-49 -50q-14 -13 0 -27l49 -49q13 -14 0 -27l-49 -49 q-14 -14 0 -27l49 -49q13 -14 0 -27l-49 -49q-14 -14 0 -28l98 -98q14 -14 27 0l50 49q13 14 27 0l49 -49q13 -14 27 0l98 98q14 14 0 28l-49 49q-13 13 0 27l49 49q14 13 0 27l-49 49q-13 13 0 27l49 49q14 14 0 27l-49 50q-13 13 0 26l49 50q14 13 0 27l-49 49 q-13 14 0 27t27 0l49 -49q14 -14 27 0l50 49q13 13 26 0q6 -5 6 -13.5t-6 -13.5l-49 -49q-13 -14 0 -27l49 -50q6 -5 6 -13t-6 -13l-49 -50q-13 -13 0 -27l49 -49q6 -5 6 -13.5t-6 -13.5l-49 -49q-13 -14 0 -27l49 -49q14 -14 0 -27l-49 -49q-12 -14 0 -28l49 -49 q14 -13 0 -27q-13 -13 -26 0l-50 50q-13 13 -27 0l-98 -99q-14 -13 0 -27l49 -49q5 -5 5 -13.5t-5 -13.5q-14 -14 -27 0l-49 49q-14 13 -27 0l-49 -49q-14 -14 -27 0l-50 49q-13 13 -27 0l-49 -49q-13 -14 -27 0q-5 5 -5 13.5t5 13.5l50 49q13 14 0 27l-99 99q-13 13 -27 0 l-49 -50q-14 -13 -27 0q-14 14 0 27l49 49q12 14 0 28l-49 49q-14 13 0 27l49 49q13 13 0 27l-49 49q-6 5 -6 13.5zM112 470.5q0 -8.5 6 -13.5l22 -22q14 -14 27 0l22 22q6 5 6 13.5t-6 13.5l-22 22q-13 14 -27 0l-22 -22q-6 -5 -6 -13.5zM112 623q0 -8 6 -13l22 -23 q14 -13 27 0l22 23q6 5 6 13t-6 13l-22 23q-13 13 -27 0l-22 -23q-6 -5 -6 -13zM118 305l22 -23q14 -13 27 0l22 23q14 13 0 27l-22 22q-13 13 -27 0l-22 -22q-14 -14 0 -27zM346 76l23 -22q13 -14 27 0l22 22q13 14 0 27l-22 22q-14 14 -27 0l-23 -22q-13 -13 0 -27z M575 305l22 -23q14 -13 27 0l22 23q14 13 0 27l-22 22q-13 13 -27 0l-22 -22q-13 -14 0 -27zM575 457l22 -22q14 -14 27 0l22 22q6 5 6 13.5t-6 13.5l-22 22q-13 14 -27 0l-22 -22q-13 -14 0 -27zM575 610l22 -23q14 -13 27 0l22 23q6 5 6 13t-6 13l-22 23q-13 13 -27 0 l-22 -23q-13 -13 0 -26z" />
<glyph unicode="V" horiz-adv-x="917" d="M64 305q-13 13 0 27l49 49q6 5 6 13.5t-6 13.5l-49 49q-13 14 0 27l49 50q6 5 6 13t-6 13l-49 50q-13 13 0 26l49 50q14 13 0 27l-49 49q-13 14 0 27q14 13 27 0l50 -49q5 -6 13 -6t13 6l50 49q13 13 27 0q13 -13 0 -27l-50 -49q-13 -14 0 -27l50 -50q13 -13 0 -26 l-50 -50q-13 -13 0 -26l50 -50q13 -13 0 -27l-50 -49q-5 -5 -5 -13.5t5 -13.5l99 -99q5 -5 13.5 -5t13.5 5l49 50q14 13 27 0q13 -14 0 -27l-49 -49q-14 -14 0 -27l98 -99q14 -13 27 0l99 99q13 13 0 27l-50 49q-13 13 0 27q14 12 28 0l49 -50q13 -13 27 0l98 99q6 5 6 13.5 t-6 13.5l-49 49q-13 14 0 27l49 50q6 5 6 13t-6 13l-49 50q-13 13 0 26l49 50q14 13 0 27l-49 49q-13 14 0 27t27 0l49 -49q13 -14 27 0l49 49q14 13 27 0q14 -13 0 -27l-49 -49q-13 -14 0 -27l49 -50q6 -5 6 -13t-6 -13l-49 -50q-13 -13 0 -26l49 -50q14 -13 0 -27l-49 -49 q-5 -5 -5 -13.5t5 -13.5l49 -49q14 -14 0 -27q-13 -13 -27 0l-49 49q-14 14 -27 0l-99 -98q-13 -14 0 -27l50 -49q12 -14 0 -28q-14 -13 -27 0l-49 50q-14 13 -27 0l-99 -99q-13 -13 0 -27l50 -49q13 -13 0 -27q-14 -12 -28 0l-49 49q-13 14 -27 0l-49 -49q-13 -13 -27 0 q-13 14 0 27l49 49q14 14 0 27l-98 99q-5 5 -13.5 5t-13.5 -5l-49 -50q-14 -13 -27 0q-14 14 0 28l49 49q13 13 0 27l-99 98q-5 6 -13 6t-13 -6l-50 -49q-13 -13 -27 0zM118 457l23 -22q13 -13 26 0l23 22q13 14 0 27l-23 22q-5 6 -13 6t-13 -6l-23 -22q-13 -13 0 -27z M118 610l23 -23q13 -13 26 0l23 23q13 13 0 26l-23 23q-13 13 -26 0l-23 -23q-13 -13 0 -26zM722 623q0 -8 6 -13l22 -23q13 -13 27 0l22 23q6 5 6 13t-6 13l-22 23q-14 13 -27 0l-22 -23q-6 -5 -6 -13zM728 457l22 -22q13 -13 27 0l22 22q14 14 0 27l-22 22q-14 14 -27 0 l-22 -22q-14 -13 0 -27z" />
<glyph unicode="W" horiz-adv-x="916" d="M58 470.5q0 8.5 6 13.5l49 49q13 14 0 27l-49 50q-6 5 -6 13t6 13l49 50q13 13 0 27l-49 49q-6 5 -6 13.5t6 13.5q13 13 26 0l50 -49q5 -6 13 -6t13 6l50 49q13 13 27 0q13 -13 0 -27l-49 -49q-14 -14 0 -27l49 -50q13 -13 0 -26l-49 -50q-14 -13 0 -27l49 -49 q13 -14 0 -27l-49 -49q-14 -14 0 -27l49 -49q13 -14 0 -27l-49 -49q-14 -14 0 -28l98 -98q14 -13 27 0l99 98q12 14 0 28l-50 49q-13 13 0 27l50 49q13 13 0 27l-50 49q-5 5 -5 13.5t5 13.5l50 49q13 14 0 27l-50 50q-13 13 0 26l50 50q13 13 0 27l-50 49q-5 5 -5 13.5 t5 13.5q14 13 27 0l49 -49q14 -14 27 0l50 49q13 13 27 0q5 -5 5 -13.5t-5 -13.5l-50 -49q-13 -14 0 -27l50 -50q13 -13 0 -26l-50 -50q-13 -13 0 -27l50 -49q5 -5 5 -13.5t-5 -13.5l-50 -49q-13 -14 0 -27l50 -49q13 -14 0 -27l-50 -49q-12 -14 0 -28l99 -98q13 -13 27 0 l98 98q14 14 0 28l-49 49q-13 13 0 27l49 49q14 13 0 27l-49 49q-13 13 0 27l49 49q14 14 0 27l-49 50q-13 13 0 26l49 50q14 13 0 27l-49 49q-13 14 0 27t27 0l49 -49q14 -14 27 0l50 49q13 13 26 0q6 -5 6 -13.5t-6 -13.5l-49 -49q-13 -14 0 -27l49 -50q6 -5 6 -13t-6 -13 l-49 -50q-13 -13 0 -27l49 -49q6 -5 6 -13.5t-6 -13.5l-49 -49q-13 -14 0 -27l49 -49q14 -14 0 -27l-49 -49q-12 -14 0 -28l49 -49q14 -13 0 -27q-13 -13 -26 0l-50 50q-13 13 -27 0l-98 -99q-14 -13 0 -27l49 -49q5 -5 5 -13.5t-5 -13.5q-14 -14 -27 0l-49 49q-14 14 -27 0 l-49 -49q-14 -14 -27 0q-6 5 -6 13.5t6 13.5l49 49q13 14 0 27l-99 99q-13 13 -27 0l-98 -99q-14 -13 0 -27l49 -49q13 -13 0 -27t-27 0l-49 49q-13 14 -27 0l-49 -49q-14 -14 -27 0q-6 5 -6 13.5t6 13.5l49 49q13 14 0 27l-99 99q-13 13 -26 0l-50 -50q-13 -13 -26 0 q-14 14 0 27l49 49q12 14 0 28l-49 49q-14 13 0 27l49 49q13 13 0 27l-49 49q-6 5 -6 13.5zM117 305l23 -23q13 -13 26 0l23 23q13 13 0 27l-23 22q-13 13 -26 0l-23 -22q-13 -14 0 -27zM117 457l23 -22q5 -6 13 -6t13 6l23 22q13 13 0 27l-23 22q-5 6 -13 6t-13 -6l-23 -22 q-13 -14 0 -27zM117 610l23 -23q13 -13 26 0l23 23q13 13 0 26l-23 23q-13 13 -26 0l-23 -23q-13 -13 0 -26zM417 470.5q0 -8.5 5 -13.5l22 -22q14 -14 27 0l23 22q5 5 5 13.5t-5 13.5l-23 22q-13 14 -27 0l-22 -22q-5 -5 -5 -13.5zM422 305l22 -23q14 -13 27 0l23 23 q13 13 0 27l-23 22q-13 13 -27 0l-22 -22q-13 -14 0 -27zM422 610l22 -23q14 -13 27 0l23 23q13 13 0 26l-23 23q-13 13 -27 0l-22 -23q-13 -13 0 -26zM727 305l22 -23q14 -13 27 0l22 23q14 13 0 27l-22 22q-13 13 -27 0l-22 -22q-13 -14 0 -27zM727 457l22 -22 q14 -14 27 0l22 22q6 5 6 13.5t-6 13.5l-22 22q-13 14 -27 0l-22 -22q-13 -14 0 -27zM727 610l22 -23q14 -13 27 0l22 23q6 5 6 13t-6 13l-22 23q-13 13 -27 0l-22 -23q-13 -13 0 -26z" />
<glyph unicode="X" horiz-adv-x="917" d="M59 775.5q0 8.5 5 13.5q14 13 27 0l50 -49q5 -6 13 -6t13 6l50 49q13 13 26 0q6 -5 6 -13.5t-6 -13.5l-49 -49q-13 -14 0 -27l99 -99q13 -13 27 0l49 49q5 6 13.5 6t13.5 -6q13 -13 0 -26l-49 -50q-14 -13 0 -27l98 -98q14 -13 27 0l99 98q13 14 0 27l-50 50q-13 13 0 26 q14 14 27 0l49 -49q14 -12 28 0l98 99q14 13 0 27l-49 49q-6 5 -6 13.5t6 13.5q13 13 27 0l49 -49q13 -14 27 0l49 49q14 13 27 0q6 -5 6 -13.5t-6 -13.5l-49 -49q-13 -14 0 -27l49 -50q6 -5 6 -13t-6 -13q-5 -6 -13.5 -6t-13.5 6l-49 49q-14 13 -27 0l-99 -99 q-13 -13 0 -27l50 -49q13 -14 0 -27q-14 -13 -27 0l-49 49q-14 14 -28 0l-98 -98q-13 -14 0 -27l98 -99q14 -12 28 0l49 50q13 13 27 0q13 -14 0 -27l-50 -49q-13 -14 0 -27l99 -99q13 -13 27 0l49 49q5 6 13.5 6t13.5 -6q14 -13 0 -27l-49 -49q-13 -13 0 -27l49 -49 q14 -13 0 -27q-5 -5 -13.5 -5t-13.5 5l-49 49q-14 14 -27 0l-49 -49q-14 -13 -27 0q-14 14 0 27l49 49q14 14 0 27l-98 99q-14 12 -28 0l-49 -50q-13 -13 -27 0q-13 14 0 27l50 50q13 13 0 27l-99 98q-13 14 -27 0l-98 -98q-14 -14 0 -27l49 -50q13 -13 0 -27 q-5 -5 -13.5 -5t-13.5 5l-49 50q-14 13 -27 0l-99 -99q-13 -13 0 -27l49 -49q14 -13 0 -27q-13 -13 -26 0l-50 49q-5 6 -13 6t-13 -6l-50 -49q-13 -13 -27 0q-13 14 0 27l49 49q14 14 0 27l-49 49q-13 14 0 27q14 14 27 0l50 -49q13 -13 26 0l99 99q13 13 0 27l-49 49 q-14 13 0 27q13 13 26 0l50 -50q13 -13 27 0l98 99q14 13 0 27l-98 98q-14 14 -27 0l-50 -49q-13 -13 -26 0q-6 5 -6 13.5t6 13.5l49 49q13 14 0 27l-99 99q-13 13 -26 0l-50 -49q-13 -14 -27 0q-13 13 0 26l49 50q14 13 0 27l-49 49q-5 5 -5 13.5z" />
<glyph unicode="Y" horiz-adv-x="917" d="M64 609q-13 14 0 27l49 49q14 14 0 27l-49 50q-13 13 0 27q14 13 27 0l49 -50q14 -13 27 0l50 50q13 13 27 0q13 -14 0 -27l-50 -50q-13 -13 0 -27l99 -98q13 -13 27 0l49 49q13 14 27 0q13 -13 0 -27l-50 -49q-5 -5 -5 -13.5t5 -13.5l99 -98q13 -14 27 0l98 98 q6 5 6 13.5t-6 13.5l-49 49q-13 14 0 27q5 6 13.5 6t13.5 -6l49 -49q14 -13 27 0l99 98q13 14 0 27l-50 50q-13 13 0 27q14 13 27 0l50 -50q13 -13 27 0l49 50q13 13 27 0q13 -14 0 -27l-50 -50q-13 -13 0 -27l50 -49q13 -13 0 -27q-14 -13 -27 0l-49 50q-14 13 -27 0 l-99 -99q-13 -14 0 -27l49 -49q6 -5 6 -13.5t-6 -13.5q-13 -13 -27 0l-49 49q-13 14 -27 0l-98 -98q-14 -14 0 -27l49 -49q13 -14 0 -27l-49 -50q-14 -13 0 -27l49 -49q13 -13 0 -27l-49 -49q-14 -13 0 -27l49 -49q5 -5 5 -13.5t-5 -13.5t-13.5 -5t-13.5 5l-49 49 q-14 14 -27 0l-49 -49q-14 -13 -27 0q-6 5 -6 13.5t6 13.5l49 49q13 14 0 27l-49 49q-14 14 0 27l49 49q13 14 0 27l-49 50q-14 13 0 27l49 49q13 13 0 27l-98 98q-14 14 -27 0l-49 -49q-14 -13 -27 0q-6 5 -6 13.5t6 13.5l49 49q5 5 5 13.5t-5 13.5l-99 99q-13 13 -27 0 l-49 -50q-13 -13 -27 0zM423 152l22 -22q13 -13 27 0l22 22q14 14 0 27l-22 22q-14 14 -27 0l-22 -22q-14 -13 0 -27zM423 305l22 -23q13 -13 27 0l22 23q14 13 0 27l-22 22q-14 13 -27 0l-22 -22q-14 -14 0 -27z" />
<glyph unicode="Z" horiz-adv-x="765" d="M64 0q-13 14 0 27l50 49q13 14 0 27l-50 49q-12 14 0 28q14 12 28 0l49 -50q13 -13 27 0l98 99q14 13 0 27l-49 49q-13 13 0 27q13 13 27 0l49 -49q5 -6 13.5 -6t13.5 6l98 98q6 5 6 13.5t-6 13.5l-49 49q-13 14 0 27q14 14 27 0l50 -49q13 -13 26 0l99 99q13 13 0 26 l-99 99q-13 13 -26 0l-50 -49q-13 -14 -27 0l-49 49q-14 13 -27 0l-49 -49q-14 -14 -27 0l-49 49q-14 13 -27 0l-49 -49q-14 -14 -28 0q-13 13 0 27l50 49q5 5 5 13.5t-5 13.5l-50 49q-13 14 0 27q14 12 28 0l49 -49q13 -14 27 0l49 49q13 13 27 0l49 -49q5 -6 13.5 -6 t13.5 6l49 49q14 13 27 0l50 -49q5 -6 13 -6t13 6l50 49q13 13 26 0l50 -49q13 -14 27 0l49 49q14 13 27 0t0 -27l-49 -49q-6 -5 -6 -13.5t6 -13.5l49 -49q13 -14 0 -27l-49 -50q-6 -5 -6 -13t6 -13l49 -50q13 -13 0 -27q-13 -13 -27 0l-49 50q-14 13 -27 0l-99 -99 q-13 -14 0 -27l49 -49q14 -14 0 -27q-13 -13 -26 0l-50 49q-5 6 -13 6t-13 -6l-99 -98q-13 -14 0 -27l99 -99q13 -13 26 0l50 50q13 13 26 0l50 -50q13 -13 27 0l49 50q14 13 27 0q12 -14 0 -28l-49 -49q-14 -13 0 -27l49 -49q13 -13 0 -27q-13 -13 -27 0l-49 50 q-14 13 -27 0l-50 -50q-13 -13 -26 0l-50 50q-13 13 -26 0l-50 -50q-13 -13 -27 0l-49 50q-5 5 -13.5 5t-13.5 -5l-49 -50q-14 -13 -27 0l-49 50q-14 13 -27 0l-49 -50q-14 -12 -28 0zM189 699.5q0 -8.5 5 -13.5l23 -22q13 -14 27 0l22 22q6 5 6 13.5t-6 13.5l-22 22 q-14 14 -27 0l-23 -22q-5 -5 -5 -13.5zM194 76l23 -22q13 -13 27 0l22 22q14 14 0 27l-22 23q-14 13 -27 0l-23 -23q-13 -13 0 -27zM271 152l22 -22q5 -5 13.5 -5t13.5 5l22 22q14 14 0 28l-22 22q-5 5 -13.5 5t-13.5 -5l-22 -22q-14 -14 0 -28zM347 76l22 -22q14 -13 27 0 l22 22q14 14 0 27l-22 23q-13 13 -27 0l-22 -23q-13 -13 0 -27zM347 686l22 -22q14 -14 27 0l22 22q6 5 6 13.5t-6 13.5l-22 22q-13 14 -27 0l-22 -22q-13 -13 0 -27zM499 76l23 -22q13 -13 26 0l23 22q13 14 0 27l-23 23q-13 13 -26 0l-23 -23q-13 -13 0 -27zM499 686 l23 -22q5 -6 13 -6t13 6l23 22q13 14 0 27l-23 22q-5 6 -13 6t-13 -6l-23 -22q-13 -13 0 -27zM576 610l22 -22q13 -14 27 0l22 22q13 13 0 27l-22 22q-14 13 -27 0l-22 -22q-14 -14 0 -27z" />
<glyph unicode="[" horiz-adv-x="460" d="M64 305q-13 13 0 27q14 13 27 0l305 -305q14 -14 0 -27q-13 -14 -27 0z" />
<glyph unicode="\" horiz-adv-x="918" d="M64 610q14 -14 27 0l49 49q14 13 27 0l99 -99q13 -13 0 -26l-50 -50q-13 -13 0 -27q14 -12 28 0l49 49q13 14 27 0l98 -98q6 -5 6 -13.5t-6 -13.5l-49 -49q-13 -14 0 -27t27 0l49 49q5 6 13.5 6t13.5 -6l98 -98q14 -14 0 -27l-49 -49q-12 -14 0 -28q14 -13 27 0l50 50 q13 13 26 0l99 -99q13 -13 0 -27l-49 -49q-14 -13 0 -27q13 -13 27 0l49 49q5 6 13.5 6t13.5 -6l49 -49q14 -13 27 0q13 14 0 27l-49 49q-14 14 0 27l49 49q12 14 0 28q-13 13 -27 0l-49 -50q-5 -5 -13.5 -5t-13.5 5l-99 99q-13 13 0 27l50 49q13 13 0 27q-14 13 -27 0 l-50 -50q-13 -13 -26 0l-99 99q-13 13 0 27l49 49q14 14 0 27q-13 14 -27 0l-49 -49q-14 -13 -27 0l-99 99q-13 13 0 26l50 50q13 13 0 26q-14 14 -27 0l-49 -49q-14 -13 -27 0l-99 99q-13 13 0 27l50 49q13 14 0 27q-14 12 -28 0l-49 -49q-13 -14 -27 0l-49 49 q-13 13 -27 0q-13 -13 0 -27l49 -49q14 -14 0 -27l-49 -50q-13 -13 0 -26z" />
<glyph unicode="]" horiz-adv-x="460" d="M64 0q13 -14 27 0l305 305q13 13 0 27q-14 13 -27 0l-305 -305q-14 -14 0 -27z" />
<glyph unicode="_" horiz-adv-x="963" d="M64 153q-14 13 0 27q14 13 27 0l240 -240q5 -5 13.5 -5t13.5 5l49 49q14 14 27 0l50 -49q13 -13 26 0l50 49q13 14 27 0l49 -49q13 -13 27 0l49 49q14 14 27 0l49 -49q14 -13 27 0l49 49q14 14 27 0q14 -13 0 -27l-49 -49q-13 -13 0 -27l202 -202q13 -13 0 -26 q-14 -14 -28 0l-201 201q-13 13 -27 0l-49 -49q-13 -14 -27 0l-49 49q-14 13 -27 0l-49 -49q-14 -14 -27 0l-50 49q-13 13 -26 0l-50 -49q-13 -14 -27 0l-49 49q-14 13 -27 0l-49 -49q-14 -14 -27 0t0 27l49 49q14 14 0 27zM384 -87q-13 -13 0 -27l23 -22q14 -14 27 0l22 22 q14 14 0 27l-22 22q-13 13 -27 0zM537 -87q-13 -13 0 -27l23 -22q13 -14 27 0l21 22q14 14 0 27l-21 22q-14 13 -27 0zM689 -87q-13 -13 0 -27l23 -22q14 -14 27 0l22 22q13 14 0 27l-22 22q-13 13 -27 0z" />
<glyph unicode="a" horiz-adv-x="765" d="M64 0q13 -13 27 0l49 49q5 6 13.5 6t13.5 -6l49 -49q14 -13 27 0q14 14 0 27l-49 49q-13 14 0 27l99 99q13 13 26 0l50 -50q13 -13 27 0q12 14 0 28l-50 49q-13 13 0 27l99 98q5 6 13.5 6t13.5 -6l98 -98q14 -14 0 -27l-49 -49q-12 -14 0 -28l49 -49q14 -13 0 -27 l-49 -49q-13 -13 0 -27q14 -13 27 0l49 49q14 14 27 0l49 -49q14 -12 28 0q13 14 0 27l-50 49q-13 14 0 27l50 49q12 14 0 28l-50 49q-13 13 0 27l50 49q13 13 0 27l-50 49q-13 13 0 27l50 49q13 14 0 27l-50 50q-13 13 0 26l50 50q13 13 0 26q-14 14 -28 0l-49 -49 q-13 -13 -27 0l-98 99q-14 13 0 27l49 49q13 14 0 27t-27 0l-49 -49q-5 -6 -13.5 -6t-13.5 6l-49 49q-14 13 -27 0l-50 -49q-5 -6 -13 -6t-13 6l-50 49q-13 13 -27 0q-13 -13 0 -27l49 -49q14 -14 0 -27l-98 -99q-13 -13 -27 0l-49 49q-14 14 -27 0q-13 -13 0 -26l49 -50 q6 -5 6 -13t-6 -13l-49 -50q-13 -13 0 -27l49 -49q6 -5 6 -13.5t-6 -13.5l-49 -49q-13 -14 0 -27l49 -49q14 -14 0 -27l-49 -49q-12 -14 0 -28l49 -49q14 -13 0 -27l-49 -49q-13 -13 0 -27zM118 152q-12 14 0 28l22 22q5 5 13.5 5t13.5 -5l22 -22q14 -14 0 -28l-22 -22 q-5 -5 -13.5 -5t-13.5 5zM118 305q-13 13 0 27l22 22q5 6 13.5 6t13.5 -6l22 -22q14 -14 0 -27l-22 -23q-5 -5 -13.5 -5t-13.5 5zM118 457q-13 14 0 27l22 22q5 6 13.5 6t13.5 -6l22 -22q14 -13 0 -27l-22 -22q-13 -13 -27 0zM189 394.5q0 8.5 5 13.5l49 49q14 14 0 27 l-49 50q-13 13 0 26l99 99q13 13 26 0l50 -49q13 -14 27 0l49 49q13 13 27 0l98 -99q6 -5 6 -13t-6 -13l-98 -99q-14 -13 -27 0l-49 49q-14 14 -27 0q-14 -13 0 -27l49 -49q5 -5 5 -13.5t-5 -13.5l-99 -99q-13 -13 -26 0l-99 99q-5 5 -5 13.5zM194 229q-13 13 0 27l22 22 q14 13 27 0l22 -22q14 -14 0 -27l-22 -23q-13 -13 -27 0zM346 686q-13 13 0 27l23 22q13 13 27 0l22 -22q13 -14 0 -27l-22 -22q-14 -14 -27 0zM493 394.5q0 8.5 6 13.5l22 22q14 14 27 0l22 -22q6 -5 6 -13.5t-6 -13.5l-22 -22q-13 -14 -27 0l-22 22q-6 5 -6 13.5zM575 152 q-14 14 0 28l22 22q14 13 27 0l23 -22q12 -14 0 -28l-23 -22q-13 -13 -27 0zM575 305q-14 13 0 27l22 22q14 14 27 0l23 -22q13 -14 0 -27l-23 -23q-13 -13 -27 0zM575 457q-14 14 0 27l22 22q14 14 27 0l23 -22q13 -13 0 -27l-23 -22q-13 -13 -27 0z" />
<glyph unicode="b" d="M58 470.5q0 8.5 6 13.5l49 49q13 14 0 27l-49 50q-6 5 -6 13t6 13l49 50q13 13 0 27l-49 49q-6 5 -6 13.5t6 13.5q13 13 27 0l49 -49q14 -14 27 0l49 49q14 13 27 0l49 -49q14 -14 27 0l50 49q13 13 27 0l49 -49q13 -14 27 0l49 49q13 13 27 0q5 -5 5 -13.5t-5 -13.5 l-49 -49q-14 -14 0 -27l98 -99q14 -13 27 0l50 49q5 6 13 6t13 -6q6 -5 6 -13t-6 -13l-49 -50q-13 -13 0 -27l49 -49q6 -5 6 -13.5t-6 -13.5q-13 -13 -26 0l-50 49q-13 14 -27 0l-98 -98q-14 -14 0 -27l98 -99q14 -13 27 0l50 50q13 13 26 0q14 -14 0 -27l-49 -49 q-12 -14 0 -28l49 -49q14 -13 0 -27q-13 -13 -26 0l-50 50q-13 13 -27 0l-98 -99q-14 -13 0 -27l49 -49q13 -13 0 -27q-14 -14 -27 0l-49 49q-14 14 -27 0l-49 -49q-14 -14 -27 0l-50 49q-13 14 -27 0l-49 -49q-13 -14 -27 0l-49 49q-13 14 -27 0l-49 -49q-14 -14 -27 0 q-14 14 0 27l49 49q13 14 0 27l-49 49q-14 14 0 27l49 49q12 14 0 28l-49 49q-14 13 0 27l49 49q13 13 0 27l-49 49q-6 5 -6 13.5zM112 470.5q0 -8.5 6 -13.5l22 -22q14 -13 27 0l22 22q6 5 6 13.5t-6 13.5l-22 22q-13 14 -27 0l-22 -22q-6 -5 -6 -13.5zM112 623q0 -8 6 -13 l22 -23q14 -13 27 0l22 23q6 5 6 13t-6 13l-22 23q-13 13 -27 0l-22 -23q-6 -5 -6 -13zM118 152l22 -22q14 -13 27 0l22 22q14 14 0 27l-22 23q-13 13 -27 0l-22 -23q-14 -13 0 -27zM118 305l22 -23q14 -13 27 0l22 23q14 13 0 27l-22 22q-13 14 -27 0l-22 -22 q-14 -14 0 -27zM194 76l22 -22q14 -14 27 0l23 22q13 14 0 27l-23 23q-13 13 -27 0l-22 -23q-14 -13 0 -27zM194 228l98 -98q14 -13 27 0l50 49q13 14 27 0l49 -49q13 -13 27 0l98 98q14 14 0 28l-98 98q-14 14 -27 0l-49 -49q-14 -14 -27 0l-50 49q-13 14 -27 0l-98 -98 q-14 -14 0 -28zM194 381l22 -22q14 -14 27 0l23 22q13 13 0 27l-23 22q-13 14 -27 0l-22 -22q-14 -14 0 -27zM194 533l98 -98q14 -13 27 0l50 49q13 14 27 0l49 -49q13 -13 27 0l98 98q14 14 0 27l-98 99q-14 13 -27 0l-49 -49q-14 -14 -27 0l-50 49q-13 13 -27 0l-98 -99 q-14 -13 0 -27zM194 686l22 -22q14 -14 27 0l23 22q13 13 0 27l-23 22q-13 13 -27 0l-22 -22q-14 -14 0 -27zM346 76l23 -22q13 -14 27 0l22 22q13 14 0 27l-22 23q-14 13 -27 0l-23 -23q-13 -13 0 -27zM346 381l23 -22q13 -14 27 0l22 22q13 13 0 27l-22 22q-14 14 -27 0 l-23 -22q-13 -14 0 -27zM346 686l23 -22q13 -14 27 0l22 22q13 13 0 27l-22 22q-14 13 -27 0l-23 -22q-13 -14 0 -27z" />
<glyph unicode="c" d="M58 470.5q0 8.5 6 13.5l49 49q13 14 0 27l-49 50q-6 5 -6 13t6 13q13 14 27 0l49 -49q13 -13 27 0l98 99q14 13 0 27l-49 49q-5 5 -5 13.5t5 13.5q13 13 27 0l49 -49q14 -14 27 0l50 49q13 13 26 0l50 -49q5 -6 13 -6t13 6l50 49q13 13 27 0q5 -5 5 -13.5t-5 -13.5 l-49 -49q-14 -14 0 -27l98 -99q14 -13 27 0l49 49q14 14 27 0q13 -13 0 -26l-49 -50q-14 -13 0 -27l49 -49q5 -5 5 -13.5t-5 -13.5q-13 -13 -27 0l-49 49q-13 14 -27 0l-49 -49q-14 -13 -27 0q-6 5 -6 13.5t6 13.5l49 49q13 14 0 27l-99 99q-13 13 -26 0l-50 -49 q-5 -6 -13 -6t-13 6l-50 49q-13 13 -27 0l-98 -99q-14 -13 0 -27l49 -49q13 -14 0 -27l-49 -49q-14 -14 0 -27l49 -49q13 -14 0 -27l-49 -49q-14 -14 0 -28l98 -98q14 -13 27 0l50 49q5 6 13 6t13 -6l50 -49q13 -13 26 0l99 98q12 14 0 28l-49 49q-14 13 0 27q13 13 27 0 l49 -50q14 -13 27 0l49 50q14 13 27 0q13 -14 0 -27l-49 -49q-14 -14 0 -28l49 -49q13 -13 0 -27q-13 -13 -27 0l-49 50q-13 13 -27 0l-98 -99q-14 -13 0 -27l49 -49q13 -13 0 -27q-14 -14 -27 0l-50 49q-5 6 -13 6t-13 -6l-50 -49q-5 -6 -13 -6t-13 6l-50 49q-13 14 -27 0 l-49 -49q-14 -14 -27 0t0 27l49 49q14 14 0 27l-98 99q-14 13 -27 0l-49 -50q-14 -13 -27 0q-14 14 0 27l49 49q12 14 0 28l-49 49q-14 13 0 27l49 49q13 13 0 27l-49 49q-6 5 -6 13.5zM117 305l23 -23q13 -13 27 0l22 23q14 13 0 27l-22 22q-14 14 -27 0l-23 -22 q-13 -14 0 -27zM117 457l23 -22q13 -13 27 0l22 22q6 5 6 13.5t-6 13.5l-22 22q-14 14 -27 0l-23 -22q-13 -14 0 -27zM346 76l23 -22q5 -6 13 -6t13 6l23 22q13 14 0 27l-23 23q-13 13 -26 0l-23 -23q-13 -13 0 -27zM346 686l23 -22q5 -6 13 -6t13 6l23 22q13 13 0 27 l-23 22q-13 13 -26 0l-23 -22q-13 -14 0 -27z" />
<glyph unicode="d" horiz-adv-x="765" d="M59 470.5q0 8.5 5 13.5l49 49q14 14 0 27l-49 50q-13 13 0 26l49 50q14 13 0 27l-49 49q-5 5 -5 13.5t5 13.5q13 13 27 0l49 -49q14 -14 27 0l50 49q13 13 26 0l50 -49q5 -6 13 -6t13 6l50 49q13 13 27 0l49 -49q14 -14 27 0l49 49q14 13 27 0q5 -5 5 -13.5t-5 -13.5 l-49 -49q-14 -14 0 -27l98 -99q14 -13 27 0l50 49q13 14 27 0q13 -13 0 -26l-50 -50q-13 -13 0 -27l50 -49q13 -14 0 -27l-50 -49q-13 -14 0 -27l50 -49q13 -14 0 -27l-50 -49q-12 -14 0 -28l50 -49q13 -13 0 -27q-14 -13 -27 0l-50 50q-13 13 -27 0l-98 -99q-14 -13 0 -27 l49 -49q13 -13 0 -27t-27 0l-49 49q-13 14 -27 0l-49 -49q-14 -14 -27 0l-50 49q-5 6 -13 6t-13 -6l-50 -49q-5 -6 -13 -6t-13 6l-50 49q-13 14 -27 0l-49 -49q-14 -14 -27 0t0 27l49 49q14 14 0 27l-49 49q-13 14 0 27l49 49q14 14 0 28l-49 49q-13 13 0 27l49 49 q14 13 0 27l-49 49q-5 5 -5 13.5zM113 470.5q0 -8.5 5 -13.5l22 -22q14 -13 27 0l22 22q6 5 6 13.5t-6 13.5l-22 22q-13 14 -27 0l-22 -22q-5 -5 -5 -13.5zM118 152l22 -22q14 -13 27 0l22 22q14 14 0 27l-22 23q-13 13 -27 0l-22 -23q-13 -13 0 -27zM118 305l22 -23 q14 -13 27 0l22 23q14 13 0 27l-22 22q-13 14 -27 0l-22 -22q-13 -14 0 -27zM118 610l22 -23q14 -13 27 0l22 23q6 5 6 13t-6 13l-22 23q-13 13 -27 0l-22 -23q-13 -13 0 -26zM194 76l23 -22q5 -6 13 -6t13 6l23 22q13 14 0 27l-23 23q-13 13 -26 0l-23 -23q-13 -13 0 -27z M194 228l99 -98q13 -13 26 0l50 49q13 14 27 0l49 -49q14 -13 27 0l99 98q12 14 0 28l-50 49q-13 13 0 27l50 49q13 13 0 27l-50 49q-13 13 0 27l50 49q13 14 0 27l-99 99q-13 13 -27 0l-49 -49q-14 -14 -27 0l-50 49q-13 13 -26 0l-99 -99q-13 -13 0 -27l49 -49 q6 -5 6 -13.5t-6 -13.5l-49 -49q-13 -14 0 -27l49 -49q14 -14 0 -27l-49 -49q-12 -14 0 -28zM194 686l23 -22q5 -6 13 -6t13 6l23 22q13 13 0 27l-23 22q-13 13 -26 0l-23 -22q-13 -14 0 -27zM347 76l22 -22q13 -14 27 0l22 22q13 14 0 27l-22 23q-14 13 -27 0l-22 -23 q-14 -13 0 -27zM347 686l22 -22q13 -14 27 0l22 22q13 13 0 27l-22 22q-14 13 -27 0l-22 -22q-14 -14 0 -27zM575 305l22 -23q14 -13 27 0l23 23q13 13 0 27l-23 22q-13 14 -27 0l-22 -22q-13 -14 0 -27zM575 457l22 -22q14 -13 27 0l23 22q13 13 0 27l-23 22q-13 14 -27 0 l-22 -22q-13 -14 0 -27z" />
<glyph unicode="e" horiz-adv-x="765" d="M59 470.5q0 8.5 5 13.5l49 49q14 14 0 27l-49 50q-13 13 0 26q13 14 27 0l49 -49q14 -13 27 0l99 99q13 13 0 27l-49 49q-6 5 -6 13.5t6 13.5q13 13 26 0l50 -49q5 -6 13 -6t13 6l50 49q13 13 27 0l49 -49q14 -14 27 0l49 49q14 13 27 0l49 -49q14 -14 27 0l50 49 q13 13 27 0q13 -13 0 -27l-50 -49q-13 -14 0 -27l50 -50q13 -13 0 -26q-14 -14 -27 0l-50 49q-13 13 -27 0l-49 -49q-13 -14 -27 0l-49 49q-13 13 -27 0l-49 -49q-14 -14 -27 0l-50 49q-13 13 -26 0l-99 -99q-13 -13 0 -27l99 -98q5 -6 13 -6t13 6l50 49q13 14 27 0l49 -49 q14 -14 27 0l49 49q14 14 27 0q5 -5 5 -13.5t-5 -13.5l-49 -49q-14 -14 0 -27l49 -49q13 -14 0 -27q-13 -14 -27 0l-49 49q-13 13 -27 0l-49 -49q-14 -14 -27 0l-50 49q-13 13 -26 0l-99 -98q-12 -14 0 -28l99 -98q13 -13 26 0l50 49q13 14 27 0l49 -49q14 -13 27 0l49 49 q14 14 27 0l49 -49q14 -13 27 0l50 49q13 14 27 0q13 -13 0 -27l-50 -49q-13 -13 0 -27l50 -49q13 -13 0 -27q-14 -14 -27 0l-50 49q-13 14 -27 0l-49 -49q-13 -14 -27 0l-49 49q-13 14 -27 0l-49 -49q-14 -14 -27 0l-50 49q-5 6 -13 6t-13 -6l-50 -49q-5 -6 -13 -6t-13 6 q-6 5 -6 13.5t6 13.5l49 49q13 14 0 27l-99 99q-13 13 -27 0l-49 -50q-14 -13 -27 0q-13 14 0 27l49 49q14 14 0 28l-49 49q-13 13 0 27l49 49q14 13 0 27l-49 49q-5 5 -5 13.5zM113 470.5q0 -8.5 5 -13.5l22 -22q14 -14 27 0l22 22q6 5 6 13.5t-6 13.5l-22 22q-13 14 -27 0 l-22 -22q-5 -5 -5 -13.5zM118 305l22 -23q14 -13 27 0l22 23q14 13 0 27l-22 22q-13 13 -27 0l-22 -22q-13 -14 0 -27zM194 381l23 -23q13 -13 26 0l23 23q13 13 0 27l-23 22q-5 6 -13 6t-13 -6l-23 -22q-13 -14 0 -27zM347 76l22 -22q13 -14 27 0l22 22q13 14 0 27l-22 22 q-14 14 -27 0l-22 -22q-14 -13 0 -27zM347 381l22 -23q13 -13 27 0l22 23q13 13 0 27l-22 22q-14 14 -27 0l-22 -22q-14 -14 0 -27zM347 686l22 -23q13 -13 27 0l22 23q13 13 0 27l-22 22q-14 13 -27 0l-22 -22q-14 -14 0 -27zM499 76l22 -22q14 -14 27 0l23 22q13 14 0 27 l-23 22q-13 14 -27 0l-22 -22q-14 -13 0 -27zM499 686l22 -23q14 -13 27 0l23 23q13 13 0 27l-23 22q-13 13 -27 0l-22 -22q-14 -14 0 -27z" />
<glyph unicode="f" d="M58 623q0 8 6 13q5 6 13 6t13 -6l50 -49q13 -13 27 0l98 99q6 5 6 13t-6 13l-49 50q-14 13 0 27q14 13 27 0l49 -49q14 -14 27 0l49 49q14 13 27 0l49 -49q14 -14 28 0l49 49q13 13 27 0l49 -49q13 -14 27 0l49 49q13 13 27 0q14 -14 0 -27l-49 -50q-13 -13 0 -26l49 -50 q6 -5 6 -13t-6 -13q-5 -6 -13.5 -6t-13.5 6l-49 49q-14 13 -27 0l-49 -49q-14 -14 -27 0l-49 49q-14 12 -28 0l-49 -49q-13 -14 -27 0l-49 49q-13 13 -27 0l-98 -99q-14 -13 0 -27l98 -98q14 -14 27 0l49 49q14 13 27 0l49 -49q14 -14 28 0l49 49q13 13 27 0q13 -14 0 -27 l-50 -49q-13 -14 0 -27l50 -49q13 -14 0 -27q-14 -14 -27 0l-49 49q-14 12 -28 0l-49 -49q-13 -14 -27 0l-49 49q-13 13 -27 0l-98 -99q-14 -13 0 -27l49 -49q13 -13 0 -27l-49 -49q-14 -13 0 -27l49 -49q13 -14 0 -27q-5 -6 -13.5 -6t-13.5 6l-49 49q-14 13 -27 0l-50 -49 q-5 -6 -13 -6t-13 6q-14 13 0 27l49 49q13 14 0 27l-49 49q-14 14 0 27l49 49q13 14 0 27l-49 50q-14 13 0 27l49 49q13 13 0 27l-49 49q-14 13 0 27l49 49q13 14 0 27l-49 50q-6 5 -6 13zM118 152l22 -22q13 -14 27 0l22 22q13 14 0 27l-22 23q-14 13 -27 0l-22 -23 q-14 -13 0 -27zM118 305l22 -23q13 -13 27 0l22 23q13 13 0 27l-22 22q-14 13 -27 0l-22 -22q-14 -14 0 -27zM118 457l22 -22q13 -14 27 0l22 22q13 13 0 27l-22 22q-14 14 -27 0l-22 -22q-14 -14 0 -27zM194 381l22 -23q5 -5 13.5 -5t13.5 5l22 23q14 13 0 27l-22 22 q-5 6 -13.5 6t-13.5 -6l-22 -22q-14 -14 0 -27zM346 381l22 -23q14 -13 27 0l23 23q13 13 0 27l-23 22q-13 14 -27 0l-22 -22q-13 -14 0 -27zM346 686l22 -23q14 -13 27 0l23 23q13 13 0 26l-23 23q-13 13 -27 0l-22 -23q-13 -13 0 -26zM498 686l23 -23q13 -13 27 0l22 23 q6 5 6 13t-6 13l-22 23q-14 13 -27 0l-23 -23q-13 -13 0 -26z" />
<glyph unicode="g" d="M59 470.5q0 8.5 5 13.5l49 49q14 14 0 27l-49 50q-13 13 0 26q14 14 27 0l49 -49q14 -13 27 0l99 99q13 13 0 27l-50 49q-5 5 -5 13.5t5 13.5q14 13 27 0l49 -49q14 -14 28 0l49 49q13 13 27 0l49 -49q13 -14 27 0l49 49q13 13 27 0l49 -49q14 -14 27 0l50 49q13 13 26 0 q6 -5 6 -13.5t-6 -13.5l-49 -49q-13 -14 0 -27l49 -50q6 -5 6 -13t-6 -13q-5 -6 -13 -6t-13 6l-50 49q-13 13 -27 0l-49 -49q-5 -6 -13.5 -6t-13.5 6l-49 49q-14 13 -27 0l-49 -49q-14 -14 -27 0l-49 49q-14 12 -28 0l-98 -99q-13 -13 0 -27l49 -49q6 -5 6 -13.5t-6 -13.5 l-49 -49q-13 -14 0 -27l49 -49q14 -14 0 -27l-49 -49q-12 -14 0 -28l98 -98q14 -14 28 0l49 49q13 14 27 0l49 -49q13 -14 27 0l98 98q14 14 0 28l-98 98q-14 13 -27 0l-49 -49q-14 -14 -27 0q-14 13 0 27l49 49q14 13 0 27l-49 49q-6 5 -6 13.5t6 13.5q13 14 27 0l49 -49 q13 -14 27 0l49 49q5 6 13.5 6t13.5 -6q6 -5 6 -13.5t-6 -13.5l-49 -49q-13 -14 0 -27l98 -99q14 -13 27 0l50 50q13 13 26 0q14 -14 0 -27l-49 -49q-12 -14 0 -28l49 -49q14 -13 0 -27l-49 -49q-13 -13 0 -27l49 -49q6 -5 6 -13.5t-6 -13.5q-5 -6 -13 -6t-13 6l-50 49 q-13 13 -27 0l-49 -49q-5 -6 -13.5 -6t-13.5 6l-49 49q-14 13 -27 0l-49 -49q-14 -14 -27 0l-49 49q-14 12 -28 0l-49 -49q-13 -14 -27 0q-5 5 -5 13.5t5 13.5l50 49q13 14 0 27l-99 99q-13 13 -27 0l-49 -50q-13 -13 -27 0q-13 14 0 27l49 49q14 14 0 28l-49 49 q-13 13 0 27l49 49q14 13 0 27l-49 49q-5 5 -5 13.5zM112 470.5q0 -8.5 6 -13.5l22 -22q14 -14 27 0l23 22q5 5 5 13.5t-5 13.5l-23 22q-13 14 -27 0l-22 -22q-6 -5 -6 -13.5zM118 305l22 -23q14 -13 27 0l23 23q13 13 0 27l-23 22q-13 13 -27 0l-22 -22q-14 -14 0 -27z M346 76l23 -22q13 -14 27 0l22 22q14 14 0 27l-22 22q-14 14 -27 0l-23 -22q-13 -13 0 -27zM346 686l23 -23q13 -13 27 0l22 23q14 13 0 27l-22 22q-14 13 -27 0l-23 -22q-13 -14 0 -27zM499 76l22 -22q5 -6 13.5 -6t13.5 6l22 22q14 14 0 27l-22 22q-5 6 -13.5 6t-13.5 -6 l-22 -22q-13 -13 0 -27zM499 686l22 -23q13 -13 27 0l22 23q14 13 0 27l-22 22q-14 13 -27 0l-22 -22q-13 -14 0 -27zM575 152l22 -22q14 -14 27 0l23 22q13 14 0 27l-23 23q-13 13 -27 0l-22 -23q-13 -13 0 -27z" />
<glyph unicode="h" d="M58 623q0 8 6 13l49 50q13 13 0 26l-49 50q-14 13 0 27q13 13 26 0l50 -49q13 -14 27 0l49 49q14 13 27 0q13 -14 0 -27l-49 -50q-6 -5 -6 -13t6 -13l49 -50q13 -13 0 -26l-49 -50q-14 -13 0 -27l98 -98q14 -14 27 0l49 49q14 13 27 0l49 -49q14 -14 28 0l98 98 q14 14 0 27l-49 50q-6 5 -6 13t6 13l49 50q6 5 6 13t-6 13l-49 50q-14 13 0 27q13 13 27 0l49 -49q13 -14 27 0l49 49q13 13 27 0q14 -14 0 -27l-49 -50q-13 -13 0 -26l49 -50q6 -5 6 -13t-6 -13l-49 -50q-13 -13 0 -27l49 -49q14 -14 0 -27l-49 -49q-13 -14 0 -27l49 -49 q14 -14 0 -27l-49 -50q-13 -13 0 -27l49 -49q14 -13 0 -27l-49 -49q-13 -13 0 -27l49 -49q14 -14 0 -27q-5 -6 -13.5 -6t-13.5 6l-49 49q-14 13 -27 0l-49 -49q-14 -14 -27 0q-14 13 0 27l49 49q14 14 0 27l-49 49q-14 14 0 27l49 49q14 14 0 27l-98 99q-14 12 -28 0 l-49 -49q-13 -14 -27 0l-49 49q-13 13 -27 0l-98 -99q-14 -13 0 -27l49 -49q13 -13 0 -27l-49 -49q-14 -13 0 -27l49 -49q13 -14 0 -27q-5 -6 -13.5 -6t-13.5 6l-49 49q-14 13 -27 0l-50 -49q-5 -6 -13 -6t-13 6q-14 13 0 27l49 49q13 14 0 27l-49 49q-14 14 0 27l49 49 q13 14 0 27l-49 50q-14 13 0 27l49 49q13 13 0 27l-49 49q-14 13 0 27l49 49q13 14 0 27l-49 50q-6 5 -6 13zM112 623q0 -8 6 -13l22 -23q13 -13 27 0l22 23q13 13 0 26l-22 23q-14 13 -27 0l-22 -23q-6 -5 -6 -13zM118 152l22 -22q13 -14 27 0l22 22q13 14 0 27l-22 23 q-14 13 -27 0l-22 -23q-14 -13 0 -27zM118 305l22 -23q13 -13 27 0l22 23q13 13 0 27l-22 22q-14 13 -27 0l-22 -22q-14 -14 0 -27zM118 457l22 -22q13 -14 27 0l22 22q13 13 0 27l-22 22q-14 14 -27 0l-22 -22q-14 -14 0 -27zM194 381l22 -23q5 -5 13.5 -5t13.5 5l22 23 q14 13 0 27l-22 22q-5 6 -13.5 6t-13.5 -6l-22 -22q-14 -14 0 -27zM346 381l22 -23q14 -13 27 0l23 23q13 13 0 27l-23 22q-13 14 -27 0l-22 -22q-13 -14 0 -27zM498 381l23 -23q13 -13 27 0l22 23q14 13 0 27l-22 22q-14 14 -27 0l-23 -22q-13 -14 0 -27zM569 623 q0 -8 6 -13l22 -23q13 -13 27 0l22 23q6 5 6 13t-6 13l-22 23q-14 13 -27 0l-22 -23q-6 -5 -6 -13zM575 152l22 -22q13 -14 27 0l22 22q14 14 0 27l-22 23q-14 13 -27 0l-22 -23q-14 -13 0 -27zM575 305l22 -23q13 -13 27 0l22 23q14 13 0 27l-22 22q-14 13 -27 0l-22 -22 q-14 -14 0 -27zM575 457l22 -22q13 -14 27 0l22 22q14 13 0 27l-22 22q-14 14 -27 0l-22 -22q-14 -14 0 -27z" />
<glyph unicode="i" horiz-adv-x="612" d="M58 623q0 8 6 13l49 50q6 5 6 13t-6 13l-49 50q-14 13 0 27q13 13 27 0l49 -49q13 -14 27 0l49 49q14 13 27 0q14 -14 0 -27l-49 -50q-13 -13 0 -26l98 -99q14 -13 27 0l99 99q13 13 0 26l-49 50q-14 13 0 27q13 13 26 0l50 -49q13 -14 27 0l49 49q13 13 27 0 q13 -14 0 -27l-49 -50q-6 -5 -6 -13t6 -13l49 -50q13 -13 0 -26q-5 -6 -13.5 -6t-13.5 6l-49 49q-14 13 -27 0l-99 -99q-13 -13 0 -27l49 -49q14 -14 0 -27l-49 -49q-13 -14 0 -27l49 -49q14 -14 0 -27l-49 -50q-13 -13 0 -27l99 -98q13 -14 27 0l49 49q13 13 27 0 q13 -13 0 -27l-49 -49q-14 -13 0 -27l49 -49q13 -14 0 -27q-5 -6 -13.5 -6t-13.5 6l-49 49q-14 13 -27 0l-50 -49q-5 -6 -13 -6t-13 6q-14 13 0 27l49 49q13 14 0 27l-99 99q-13 13 -27 0l-98 -99q-13 -13 0 -27l49 -49q14 -14 0 -27q-5 -6 -13.5 -6t-13.5 6l-49 49 q-14 13 -27 0l-49 -49q-14 -14 -27 0q-14 13 0 27l49 49q14 14 0 27l-49 49q-14 14 0 27q13 13 27 0l49 -49q13 -14 27 0l98 98q14 14 0 27l-49 50q-13 13 0 27l49 49q14 13 0 27l-49 49q-13 13 0 27l49 49q14 14 0 27l-98 99q-14 13 -27 0l-49 -49q-14 -14 -27 0 q-6 5 -6 13zM270 305l22 -23q14 -13 27 0l23 23q13 13 0 27l-23 22q-13 13 -27 0l-22 -22q-13 -14 0 -27zM270 457l22 -22q14 -14 27 0l23 22q13 13 0 27l-23 22q-13 14 -27 0l-22 -22q-13 -14 0 -27z" />
<glyph unicode="j" d="M64 152q-13 14 0 27l49 49q14 14 0 28l-49 49q-13 13 0 27q13 13 27 0l49 -50q13 -13 27 0l49 50q5 5 13.5 5t13.5 -5q14 -14 0 -27l-49 -49q-12 -14 0 -28l98 -98q14 -14 27 0l50 49q5 6 13 6t13 -6l50 -49q13 -14 27 0l98 98q14 14 0 28l-49 49q-14 13 0 27l49 49 q14 13 0 27l-49 49q-6 5 -6 13.5t6 13.5l49 49q14 14 0 27l-49 50q-6 5 -6 13t6 13l49 50q14 13 0 27l-49 49q-6 5 -6 13.5t6 13.5q13 13 27 0l49 -49q14 -14 27 0l49 49q14 13 27 0q6 -5 6 -13.5t-6 -13.5l-49 -49q-13 -14 0 -27l49 -50q6 -5 6 -13t-6 -13l-49 -50 q-13 -13 0 -27l49 -49q6 -5 6 -13.5t-6 -13.5l-49 -49q-13 -14 0 -27l49 -49q14 -14 0 -27l-49 -49q-12 -14 0 -28l49 -49q14 -13 0 -27q-13 -13 -27 0l-49 50q-13 13 -27 0l-98 -99q-14 -13 0 -27l49 -49q5 -5 5 -13.5t-5 -13.5q-5 -6 -13.5 -6t-13.5 6l-49 49 q-14 13 -27 0l-50 -49q-5 -6 -13 -6t-13 6l-50 49q-13 13 -27 0l-49 -49q-5 -6 -13.5 -6t-13.5 6q-5 5 -5 13.5t5 13.5l49 49q14 14 0 27l-98 99q-14 13 -27 0l-49 -50q-14 -13 -27 0zM346 76l23 -22q5 -6 13 -6t13 6l23 22q13 14 0 27l-23 22q-5 6 -13 6t-13 -6l-23 -22 q-13 -13 0 -27zM569 470.5q0 -8.5 6 -13.5l22 -22q14 -14 27 0l23 22q13 13 0 27l-23 22q-13 14 -27 0l-22 -22q-6 -5 -6 -13.5zM569 623q0 -8 6 -13l22 -23q14 -13 27 0l23 23q13 13 0 26l-23 23q-13 13 -27 0l-22 -23q-6 -5 -6 -13zM575 305l22 -23q14 -13 27 0l23 23 q13 13 0 27l-23 22q-13 13 -27 0l-22 -22q-14 -14 0 -27z" />
<glyph unicode="k" horiz-adv-x="765" d="M59 13.5q0 8.5 5 13.5l50 49q13 14 0 27l-50 49q-13 14 0 27l50 49q12 14 0 28l-50 49q-13 13 0 27l50 49q13 13 0 27l-50 49q-5 5 -5 13.5t5 13.5l50 49q13 14 0 27l-50 50q-13 13 0 26l50 50q13 13 0 27l-50 49q-5 5 -5 13.5t5 13.5q14 13 27 0l49 -49q14 -14 28 0 l49 49q13 13 27 0q5 -5 5 -13.5t-5 -13.5l-50 -49q-13 -14 0 -27l50 -50q13 -13 0 -26l-50 -50q-13 -13 0 -27l99 -98q13 -14 27 0l98 98q14 14 0 27l-49 50q-13 13 0 26q5 6 13.5 6t13.5 -6l49 -49q14 -13 27 0l99 99q13 13 0 27l-49 49q-6 5 -6 13.5t6 13.5q13 13 26 0 l50 -49q13 -14 27 0l49 49q14 13 27 0t0 -27l-49 -49q-14 -14 0 -27l49 -50q13 -13 0 -26q-5 -6 -13.5 -6t-13.5 6l-49 49q-14 13 -27 0l-99 -99q-13 -13 0 -27l49 -49q6 -5 6 -13.5t-6 -13.5q-13 -13 -26 0l-50 49q-13 14 -27 0l-98 -98q-13 -14 0 -27l98 -99q14 -13 27 0 l50 50q13 13 26 0q14 -14 0 -27l-49 -49q-12 -14 0 -28l99 -98q13 -14 27 0l49 49q5 6 13.5 6t13.5 -6q13 -13 0 -27l-49 -49q-14 -13 0 -27l49 -49q13 -13 0 -27q-5 -6 -13.5 -6t-13.5 6l-49 49q-14 13 -27 0l-50 -49q-5 -6 -13 -6t-13 6q-6 5 -6 13.5t6 13.5l49 49 q13 14 0 27l-99 99q-13 13 -27 0l-49 -50q-5 -5 -13.5 -5t-13.5 5q-13 14 0 27l49 49q14 14 0 28l-98 98q-14 13 -27 0l-99 -98q-12 -14 0 -28l50 -49q13 -13 0 -27l-50 -49q-13 -13 0 -27l50 -49q5 -5 5 -13.5t-5 -13.5q-14 -14 -27 0l-49 49q-14 12 -28 0l-49 -49 q-13 -14 -27 0q-5 5 -5 13.5zM113 470.5q0 -8.5 5 -13.5l22 -22q14 -14 28 0l22 22q5 5 5 13.5t-5 13.5l-22 22q-14 14 -28 0l-22 -22q-5 -5 -5 -13.5zM118 152l22 -22q14 -14 28 0l22 22q13 14 0 27l-22 23q-14 12 -28 0l-22 -23q-13 -13 0 -27zM118 305l22 -23 q14 -12 28 0l22 23q13 13 0 27l-22 22q-14 12 -28 0l-22 -22q-13 -14 0 -27zM118 610l22 -23q14 -12 28 0l22 23q13 13 0 26l-22 23q-14 12 -28 0l-22 -23q-13 -13 0 -26zM194 381l23 -23q13 -13 27 0l22 23q14 13 0 27l-22 22q-14 14 -27 0l-23 -22q-13 -14 0 -27z" />
<glyph unicode="l" horiz-adv-x="612" d="M64 0q-13 13 0 27l49 49q14 14 0 27l-49 49q-13 14 0 27l49 49q14 14 0 27l-49 50q-13 13 0 27l49 49q14 13 0 27l-49 49q-13 13 0 27l49 49q14 14 0 27l-49 50q-13 13 0 26l49 50q6 5 6 13t-6 13l-49 50q-13 13 0 27q14 13 27 0l49 -49q14 -14 27 0l49 49q14 12 28 0 q13 -14 0 -27l-50 -50q-13 -13 0 -26l50 -50q13 -13 0 -26l-50 -50q-13 -13 0 -27l50 -49q13 -14 0 -27l-50 -49q-13 -14 0 -27l50 -49q13 -14 0 -27l-50 -50q-13 -13 0 -27l99 -98q13 -14 27 0l49 49q13 13 27 0l49 -49q13 -14 27 0l49 49q14 13 27 0q14 -13 0 -27l-49 -49 q-13 -13 0 -27l49 -49q14 -14 0 -27q-13 -14 -27 0l-49 49q-14 13 -27 0l-49 -49q-14 -14 -27 0l-49 49q-14 13 -27 0l-49 -49q-14 -14 -28 0l-49 49q-13 13 -27 0l-49 -49q-13 -14 -27 0zM112 623q0 -8 6 -13l22 -23q14 -13 27 0l23 23q13 13 0 26l-23 23q-13 13 -27 0 l-22 -23q-6 -5 -6 -13zM118 152l22 -22q14 -14 27 0l23 22q13 14 0 27l-23 23q-13 13 -27 0l-22 -23q-14 -13 0 -27zM118 305l22 -23q14 -13 27 0l23 23q13 13 0 27l-23 22q-13 13 -27 0l-22 -22q-14 -14 0 -27zM118 457l22 -22q14 -14 27 0l23 22q13 13 0 27l-23 22 q-13 14 -27 0l-22 -22q-14 -14 0 -27zM194 76l22 -22q14 -14 28 0l22 22q13 14 0 27l-22 22q-14 14 -28 0l-22 -22q-13 -13 0 -27zM346 76l23 -22q13 -14 27 0l22 22q14 14 0 27l-22 22q-14 14 -27 0l-23 -22q-13 -13 0 -27z" />
<glyph unicode="m" horiz-adv-x="916" d="M58 13.5q0 8.5 6 13.5l49 49q13 14 0 27l-49 49q-14 14 0 27l49 49q12 14 0 28l-49 49q-14 13 0 27l49 49q13 13 0 27l-49 49q-6 5 -6 13.5t6 13.5l49 49q13 14 0 27l-49 50q-6 5 -6 13t6 13q5 6 13 6t13 -6l50 -49q13 -13 26 0l99 99q13 13 0 27l-49 49q-6 5 -6 13.5 t6 13.5q13 13 27 0l49 -49q14 -14 27 0l49 49q14 13 27 0t0 -27l-49 -49q-14 -14 0 -27l98 -99q14 -13 27 0l99 99q13 13 0 27l-49 49q-6 5 -6 13.5t6 13.5q13 13 27 0l49 -49q13 -14 27 0l49 49q13 13 27 0q5 -5 5 -13.5t-5 -13.5l-49 -49q-14 -14 0 -27l98 -99 q14 -13 27 0l50 49q5 6 13 6t13 -6q6 -5 6 -13t-6 -13l-49 -50q-13 -13 0 -27l49 -49q6 -5 6 -13.5t-6 -13.5l-49 -49q-13 -14 0 -27l49 -49q14 -14 0 -27l-49 -49q-12 -14 0 -28l49 -49q14 -13 0 -27l-49 -49q-13 -13 0 -27l49 -49q6 -5 6 -13.5t-6 -13.5q-5 -6 -13 -6 t-13 6l-50 49q-13 13 -27 0l-49 -49q-14 -14 -27 0t0 27l49 49q14 14 0 27l-49 49q-13 14 0 27l49 49q14 14 0 28l-49 49q-13 13 0 27l49 49q14 13 0 27l-49 49q-13 13 0 27l49 49q14 14 0 27l-98 99q-14 13 -27 0l-99 -99q-13 -13 0 -27l50 -49q5 -5 5 -13.5t-5 -13.5 l-50 -49q-13 -14 0 -27l50 -49q13 -14 0 -27l-50 -49q-12 -14 0 -28l50 -49q13 -13 0 -27l-50 -49q-13 -13 0 -27l50 -49q5 -5 5 -13.5t-5 -13.5q-14 -14 -27 0l-50 49q-13 13 -27 0l-49 -49q-13 -14 -27 0q-5 5 -5 13.5t5 13.5l50 49q13 14 0 27l-50 49q-13 14 0 27l50 49 q12 14 0 28l-50 49q-13 13 0 27l50 49q13 13 0 27l-50 49q-5 5 -5 13.5t5 13.5l50 49q13 14 0 27l-99 99q-13 13 -27 0l-98 -99q-14 -13 0 -27l49 -49q13 -14 0 -27l-49 -49q-14 -14 0 -27l49 -49q13 -14 0 -27l-49 -49q-14 -14 0 -28l49 -49q13 -13 0 -27l-49 -49 q-14 -13 0 -27l49 -49q13 -13 0 -27q-14 -14 -27 0l-50 49q-13 13 -26 0l-50 -49q-5 -6 -13 -6t-13 6q-6 5 -6 13.5zM117 152l23 -22q5 -6 13 -6t13 6l23 22q13 14 0 27l-23 23q-13 13 -26 0l-23 -23q-13 -13 0 -27zM117 305l23 -23q13 -13 26 0l23 23q13 13 0 27l-23 22 q-13 13 -26 0l-23 -22q-13 -14 0 -27zM117 457l23 -22q5 -6 13 -6t13 6l23 22q13 13 0 27l-23 22q-5 6 -13 6t-13 -6l-23 -22q-13 -14 0 -27zM417 470.5q0 -8.5 5 -13.5l22 -22q14 -14 27 0l23 22q5 5 5 13.5t-5 13.5l-23 22q-13 14 -27 0l-22 -22q-5 -5 -5 -13.5zM422 152 l22 -22q14 -14 27 0l23 22q13 14 0 27l-23 23q-13 13 -27 0l-22 -23q-13 -13 0 -27zM422 305l22 -23q14 -13 27 0l23 23q13 13 0 27l-23 22q-13 13 -27 0l-22 -22q-13 -14 0 -27zM727 152l22 -22q14 -14 27 0l22 22q14 14 0 27l-22 23q-13 13 -27 0l-22 -23q-13 -13 0 -27z M727 305l22 -23q14 -13 27 0l22 23q14 13 0 27l-22 22q-13 13 -27 0l-22 -22q-13 -14 0 -27zM727 457l22 -22q14 -14 27 0l22 22q6 5 6 13.5t-6 13.5l-22 22q-13 14 -27 0l-22 -22q-13 -14 0 -27z" />
<glyph unicode="n" horiz-adv-x="916" d="M58 13.5q0 8.5 6 13.5l49 49q13 14 0 27l-49 49q-14 14 0 27l49 49q12 14 0 28l-49 49q-14 13 0 27l49 49q13 13 0 27l-49 49q-6 5 -6 13.5t6 13.5l49 49q13 14 0 27l-49 50q-6 5 -6 13t6 13q5 6 13 6t13 -6l50 -49q13 -13 27 0l98 99q14 13 0 27l-49 49q-5 5 -5 13.5 t5 13.5q14 13 27 0l49 -49q14 -14 27 0l49 49q14 13 27 0q6 -5 6 -13.5t-6 -13.5l-49 -49q-13 -14 0 -27l98 -99q14 -12 28 0l49 49q13 14 27 0q13 -13 0 -26l-50 -50q-13 -13 0 -27l50 -49q5 -5 5 -13.5t-5 -13.5l-50 -49q-13 -14 0 -27l50 -49q13 -14 0 -27l-50 -49 q-12 -14 0 -28l99 -98q13 -14 27 0l98 98q14 14 0 28l-49 49q-13 13 0 27l49 49q14 13 0 27l-49 49q-13 13 0 27l49 49q14 14 0 27l-49 50q-13 13 0 26l49 50q14 13 0 27l-49 49q-13 14 0 27t27 0l49 -49q14 -14 27 0l50 49q13 13 26 0q6 -5 6 -13.5t-6 -13.5l-49 -49 q-13 -14 0 -27l49 -50q6 -5 6 -13t-6 -13l-49 -50q-13 -13 0 -27l49 -49q6 -5 6 -13.5t-6 -13.5l-49 -49q-13 -14 0 -27l49 -49q14 -14 0 -27l-49 -49q-12 -14 0 -28l49 -49q14 -13 0 -27q-13 -13 -26 0l-50 50q-13 13 -27 0l-98 -99q-13 -13 0 -27l49 -49q6 -5 6 -13.5 t-6 -13.5q-5 -6 -13.5 -6t-13.5 6l-49 49q-14 13 -27 0l-49 -49q-14 -14 -27 0q-6 5 -6 13.5t6 13.5l49 49q14 14 0 27l-98 99q-14 12 -28 0l-49 -50q-13 -13 -27 0q-13 14 0 27l50 49q12 14 0 28l-50 49q-13 13 0 27l50 49q13 13 0 27l-50 49q-5 5 -5 13.5t5 13.5l50 49 q13 14 0 27l-99 99q-13 13 -27 0l-98 -99q-14 -13 0 -27l49 -49q13 -14 0 -27l-49 -49q-14 -14 0 -27l49 -49q13 -14 0 -27l-49 -49q-14 -14 0 -28l49 -49q13 -13 0 -27l-49 -49q-14 -13 0 -27l49 -49q13 -13 0 -27t-27 0l-49 49q-14 13 -27 0l-50 -49q-5 -6 -13 -6t-13 6 q-6 5 -6 13.5zM112 470.5q0 -8.5 6 -13.5l22 -22q13 -14 27 0l22 22q13 13 0 27l-22 22q-14 14 -27 0l-22 -22q-6 -5 -6 -13.5zM118 152l22 -22q13 -14 27 0l22 22q13 14 0 27l-22 23q-14 13 -27 0l-22 -23q-14 -13 0 -27zM118 305l22 -23q13 -13 27 0l22 23q13 13 0 27 l-22 22q-14 13 -27 0l-22 -22q-14 -14 0 -27zM417 470.5q0 -8.5 5 -13.5l22 -22q14 -14 28 0l22 22q5 5 5 13.5t-5 13.5l-22 22q-14 14 -28 0l-22 -22q-5 -5 -5 -13.5zM422 305l22 -23q14 -12 28 0l22 23q13 13 0 27l-22 22q-14 12 -28 0l-22 -22q-13 -14 0 -27zM727 305 l22 -23q14 -13 27 0l23 23q13 13 0 27l-23 22q-13 13 -27 0l-22 -22q-13 -14 0 -27zM727 457l22 -22q14 -14 27 0l23 22q13 13 0 27l-23 22q-13 14 -27 0l-22 -22q-13 -14 0 -27zM727 610l22 -23q14 -13 27 0l23 23q13 13 0 26l-23 23q-13 13 -27 0l-22 -23q-13 -13 0 -26z " />
<glyph unicode="o" d="M58 470.5q0 8.5 6 13.5l49 49q13 14 0 27l-49 50q-6 5 -6 13t6 13q5 6 13 6t13 -6l50 -49q13 -13 27 0l98 99q13 13 0 27l-49 49q-6 5 -6 13.5t6 13.5q14 13 27 0l49 -49q14 -14 27 0l49 49q14 13 27 0l49 -49q14 -14 28 0l49 49q13 13 27 0q5 -5 5 -13.5t-5 -13.5 l-50 -49q-13 -14 0 -27l99 -99q13 -13 27 0l49 49q5 6 13.5 6t13.5 -6q6 -5 6 -13t-6 -13l-49 -50q-14 -13 0 -27l49 -49q6 -5 6 -13.5t-6 -13.5l-49 -49q-14 -14 0 -27l49 -49q14 -14 0 -27l-49 -49q-14 -14 0 -27l49 -50q14 -13 0 -27q-5 -5 -13.5 -5t-13.5 5l-49 50 q-14 13 -27 0l-99 -99q-13 -13 0 -27l50 -49q13 -13 0 -27q-14 -13 -27 0l-49 49q-14 14 -28 0l-49 -49q-13 -13 -27 0l-49 49q-13 14 -27 0l-49 -49q-5 -5 -13.5 -5t-13.5 5q-14 14 0 27l49 49q13 14 0 27l-98 99q-14 13 -27 0l-50 -50q-13 -13 -26 0q-14 14 0 27l49 50 q13 13 0 27l-49 49q-14 13 0 27l49 49q13 13 0 27l-49 49q-6 5 -6 13.5zM117 305l23 -23q13 -13 27 0l22 23q13 13 0 27l-22 22q-14 14 -27 0l-23 -22q-13 -14 0 -27zM117 457l23 -22q13 -13 27 0l22 22q13 13 0 27l-22 22q-14 14 -27 0l-23 -22q-13 -14 0 -27zM194 229 l98 -99q14 -13 27 0l49 49q14 14 27 0l49 -49q14 -12 28 0l98 99q13 13 0 27l-49 49q-14 13 0 27l49 49q13 13 0 27l-49 49q-6 5 -6 13.5t6 13.5l49 49q13 14 0 27l-98 99q-14 12 -28 0l-49 -49q-13 -14 -27 0l-49 49q-13 13 -27 0l-98 -99q-14 -13 0 -27l49 -49 q13 -14 0 -27l-49 -49q-14 -14 0 -27l49 -49q13 -14 0 -27l-49 -49q-14 -14 0 -27zM346 76l22 -22q14 -14 27 0l23 22q13 14 0 27l-23 23q-13 13 -27 0l-22 -23q-14 -13 0 -27zM346 686l22 -22q14 -14 27 0l23 22q13 13 0 27l-23 22q-13 13 -27 0l-22 -22q-14 -14 0 -27z M569 470.5q0 -8.5 5 -13.5l23 -22q13 -13 27 0l22 22q6 5 6 13.5t-6 13.5l-22 22q-14 14 -27 0l-23 -22q-5 -5 -5 -13.5zM574 305l23 -23q13 -13 27 0l22 23q14 13 0 27l-22 22q-14 14 -27 0l-23 -22q-13 -14 0 -27z" />
<glyph unicode="p" horiz-adv-x="765" d="M59 13.5q0 8.5 5 13.5l50 49q13 14 0 27l-50 49q-13 14 0 27l50 49q12 14 0 28l-50 49q-13 13 0 27l50 49q13 13 0 27l-50 49q-5 5 -5 13.5t5 13.5l50 49q13 14 0 27l-50 50q-13 13 0 26l50 50q13 13 0 27l-50 49q-5 5 -5 13.5t5 13.5q14 13 27 0l49 -49q14 -14 28 0 l49 49q13 13 27 0l49 -49q13 -14 27 0l49 49q13 13 27 0l49 -49q14 -14 27 0l50 49q13 13 26 0q6 -5 6 -13.5t-6 -13.5l-49 -49q-13 -14 0 -27l99 -99q13 -13 27 0l49 49q5 6 13.5 6t13.5 -6q13 -13 0 -26l-49 -50q-14 -13 0 -27l49 -49q13 -14 0 -27t-27 0l-49 49 q-14 14 -27 0l-99 -98q-13 -14 0 -27l49 -49q14 -14 0 -27q-5 -6 -13 -6t-13 6l-50 49q-13 13 -27 0l-49 -49q-5 -6 -13.5 -6t-13.5 6l-49 49q-14 13 -27 0l-99 -98q-12 -14 0 -28l50 -49q13 -13 0 -27l-50 -49q-13 -13 0 -27l50 -49q5 -5 5 -13.5t-5 -13.5q-14 -14 -27 0 l-49 49q-14 12 -28 0l-49 -49q-13 -14 -27 0q-5 5 -5 13.5zM113 470.5q0 -8.5 5 -13.5l22 -22q14 -14 28 0l22 22q5 5 5 13.5t-5 13.5l-22 22q-14 14 -28 0l-22 -22q-5 -5 -5 -13.5zM118 152l22 -22q14 -14 28 0l22 22q13 14 0 27l-22 23q-14 12 -28 0l-22 -23 q-13 -13 0 -27zM118 305l22 -23q14 -12 28 0l22 23q13 13 0 27l-22 22q-14 12 -28 0l-22 -22q-13 -14 0 -27zM118 610l22 -23q14 -12 28 0l22 23q13 13 0 26l-22 23q-14 12 -28 0l-22 -23q-13 -13 0 -26zM194 381l23 -23q13 -13 27 0l22 23q13 13 0 27l-22 22q-14 14 -27 0 l-23 -22q-13 -14 0 -27zM194 533l99 -98q13 -14 27 0l49 49q5 6 13.5 6t13.5 -6l49 -49q14 -14 27 0l99 98q13 14 0 27l-99 99q-13 13 -27 0l-49 -49q-5 -6 -13.5 -6t-13.5 6l-49 49q-14 13 -27 0l-99 -99q-13 -13 0 -27zM194 686l23 -23q13 -13 27 0l22 23q13 13 0 27 l-22 22q-14 13 -27 0l-23 -22q-13 -14 0 -27zM347 381l22 -23q5 -5 13.5 -5t13.5 5l22 23q14 13 0 27l-22 22q-5 6 -13.5 6t-13.5 -6l-22 -22q-14 -14 0 -27zM347 686l22 -23q13 -13 27 0l22 23q14 13 0 27l-22 22q-14 13 -27 0l-22 -22q-14 -14 0 -27z" />
<glyph unicode="q" horiz-adv-x="841" d="M64 152q-14 14 0 28l49 49q14 13 0 27l-22 22l-27 27q-14 13 0 27l49 49q6 5 6 13.5t-6 13.5l-49 49q-14 14 0 27l49 50q6 5 6 13t-6 13l-49 50q-14 13 0 27q14 13 27 0l49 -49q14 -14 27 0l99 98q5 5 5 13.5t-5 13.5l-50 49q-13 14 0 27q14 13 27 0l49 -49q14 -14 28 0 l49 49q13 13 27 0l49 -49q13 -14 27 0l49 49q13 13 27 0t0 -27l-49 -49q-13 -13 0 -27l98 -98q14 -14 27 0l50 49q13 13 26 0q14 -14 0 -27l-49 -50q-13 -13 0 -26l49 -50q14 -13 0 -27l-49 -49q-13 -14 0 -27l49 -49q14 -14 0 -27q-19 -19 -26 -27l-23 -22q-13 -14 0 -27 l49 -49q14 -14 0 -28q-13 -13 -26 0l-50 50q-13 13 -27 0l-22 -22q-12 -14 0 -28l99 -98q13 -13 26 0l50 49q13 14 27 0q13 -13 0 -27l-49 -49q-14 -13 0 -27l49 -49q13 -13 0 -27q-14 -14 -27 0l-50 49q-5 6 -13 6t-13 -6l-50 -49q-13 -14 -27 0q-13 14 0 27l49 49 q14 14 0 27l-98 99q-5 5 -13.5 5t-13.5 -5l-22 -23q-13 -13 0 -27l49 -49q14 -13 0 -27q-5 -5 -13.5 -5t-13.5 5l-49 50q-14 13 -27 0l-49 -50q-14 -13 -27 0l-49 50q-14 12 -28 0l-49 -50q-13 -13 -27 0q-13 14 0 27l50 49q13 14 0 27l-99 99q-13 13 -27 0l-49 -50 q-5 -5 -13.5 -5t-13.5 5zM118 305l22 -22q14 -14 27 0l23 22q13 13 0 27l-23 22q-13 14 -27 0l-22 -22q-14 -14 0 -27zM118 457l22 -22q14 -13 27 0l23 22q13 14 0 27l-23 23q-13 13 -27 0l-22 -23q-14 -13 0 -27zM189 394.5q0 -8.5 5 -13.5l49 -49q14 -14 0 -27l-27 -27 l-22 -22q-13 -14 0 -27l98 -99q14 -12 28 0l49 50q13 13 27 0l49 -50q13 -13 27 0l22 22q14 14 0 28l-49 49q-13 13 0 27q13 13 27 0l49 -50q5 -5 13.5 -5t13.5 5l22 23q14 13 0 27l-22 22l-27 27q-13 13 0 27l49 49q6 5 6 13.5t-6 13.5l-49 49q-13 14 0 27l49 50q6 5 6 13 t-6 13l-98 99q-14 13 -27 0l-49 -49q-14 -14 -27 0l-49 49q-14 12 -28 0l-98 -99q-13 -13 0 -26l49 -50q14 -13 0 -27l-49 -49q-5 -5 -5 -13.5zM341 699.5q0 -8.5 5 -13.5l23 -22q13 -14 27 0l22 22q6 5 6 13.5t-6 13.5l-22 22q-14 14 -27 0l-23 -22q-5 -5 -5 -13.5zM346 76 l23 -22q13 -13 27 0l22 22q14 14 0 27l-22 23q-14 13 -27 0l-23 -23q-13 -13 0 -27zM575 305l22 -22q14 -14 27 0l22 22q14 13 0 27l-22 22q-13 14 -27 0l-22 -22q-13 -14 0 -27zM575 457l22 -22q14 -13 27 0l22 22q14 14 0 27l-22 23q-13 13 -27 0l-22 -23q-13 -13 0 -27z " />
<glyph unicode="r" d="M58 13.5q0 8.5 6 13.5l49 49q13 14 0 27l-49 49q-14 14 0 27l49 49q12 14 0 28l-49 49q-14 13 0 27l49 49q13 13 0 27l-49 49q-6 5 -6 13.5t6 13.5l49 49q13 14 0 27l-49 50q-6 5 -6 13t6 13l49 50q13 13 0 27l-49 49q-6 5 -6 13.5t6 13.5q13 13 26 0l50 -49q13 -14 27 0 l49 49q14 13 27 0l49 -49q14 -14 27 0l49 49q14 13 27 0l49 -49q14 -14 28 0l49 49q13 13 27 0q5 -5 5 -13.5t-5 -13.5l-50 -49q-13 -14 0 -27l99 -99q13 -13 27 0l49 49q5 6 13.5 6t13.5 -6q6 -5 6 -13t-6 -13l-49 -50q-13 -13 0 -27l49 -49q6 -5 6 -13.5t-6 -13.5 q-14 -13 -27 0l-49 49q-14 14 -27 0l-99 -98q-13 -14 0 -27l50 -49q13 -14 0 -27l-50 -49q-12 -14 0 -28l99 -98q13 -14 27 0l49 49q5 6 13.5 6t13.5 -6q14 -13 0 -27l-49 -49q-13 -13 0 -27l49 -49q6 -5 6 -13.5t-6 -13.5q-5 -6 -13.5 -6t-13.5 6l-49 49q-14 13 -27 0 l-49 -49q-14 -14 -27 0q-6 5 -6 13.5t6 13.5l49 49q14 14 0 27l-98 99q-14 12 -28 0l-49 -50q-13 -13 -27 0q-13 14 0 27l50 49q12 14 0 28l-99 98q-13 13 -27 0l-98 -98q-14 -14 0 -28l49 -49q13 -13 0 -27l-49 -49q-14 -13 0 -27l49 -49q13 -13 0 -27t-27 0l-49 49 q-14 13 -27 0l-50 -49q-5 -6 -13 -6t-13 6q-6 5 -6 13.5zM112 470.5q0 -8.5 6 -13.5l22 -22q13 -14 27 0l22 22q13 13 0 27l-22 22q-14 14 -27 0l-22 -22q-6 -5 -6 -13.5zM112 623q0 -8 6 -13l22 -23q13 -13 27 0l22 23q13 13 0 26l-22 23q-14 13 -27 0l-22 -23 q-6 -5 -6 -13zM118 152l22 -22q13 -14 27 0l22 22q13 14 0 27l-22 23q-14 13 -27 0l-22 -23q-14 -13 0 -27zM118 305l22 -23q13 -13 27 0l22 23q13 13 0 27l-22 22q-14 13 -27 0l-22 -22q-14 -14 0 -27zM194 381l22 -23q14 -13 27 0l22 23q14 13 0 27l-22 22q-13 14 -27 0 l-22 -22q-14 -14 0 -27zM194 533l98 -98q14 -14 27 0l49 49q14 14 27 0l49 -49q14 -14 28 0l98 98q14 14 0 27l-98 99q-14 12 -28 0l-49 -49q-13 -14 -27 0l-49 49q-13 13 -27 0l-98 -99q-14 -13 0 -27zM194 686l22 -23q14 -13 27 0l22 23q14 13 0 27l-22 22q-13 13 -27 0 l-22 -22q-14 -14 0 -27zM346 381l22 -23q14 -13 27 0l23 23q13 13 0 27l-23 22q-13 14 -27 0l-22 -22q-13 -14 0 -27zM346 686l22 -23q14 -13 27 0l23 23q13 13 0 27l-23 22q-13 13 -27 0l-22 -22q-13 -14 0 -27zM422 305l22 -23q14 -12 28 0l22 23q13 13 0 27l-22 22 q-14 12 -28 0l-22 -22q-13 -14 0 -27z" />
<glyph unicode="s" horiz-adv-x="765" d="M64 0q-13 14 0 27l49 49q14 14 0 27l-49 49q-12 14 0 28q5 5 13.5 5t13.5 -5l49 -50q14 -13 27 0l50 50q13 13 26 0l50 -50q13 -13 27 0l49 50q5 5 13.5 5t13.5 -5l49 -50q14 -13 27 0l99 99q13 13 0 27l-99 98q-13 14 -27 0l-49 -49q-14 -13 -27 0l-49 49q-14 14 -27 0 l-50 -49q-13 -13 -26 0q-14 13 0 27l49 49q5 5 5 13.5t-5 13.5l-99 99q-13 13 -27 0l-49 -50q-13 -13 -27 0q-13 14 0 27l49 50q6 5 6 13t-6 13l-49 50q-13 13 0 27q14 13 27 0l49 -49q14 -14 27 0l99 98q5 5 5 13.5t-5 13.5l-49 49q-14 14 0 27q13 13 26 0l50 -49 q13 -14 27 0l49 49q13 13 27 0l49 -49q14 -14 27 0l49 49q14 13 27 0l49 -49q14 -14 28 0l49 49q13 13 27 0q13 -13 0 -27l-50 -49q-13 -13 0 -27l50 -49q13 -14 0 -27q-14 -14 -27 0l-49 49q-14 12 -28 0l-49 -49q-13 -14 -27 0l-49 49q-13 13 -27 0l-49 -49 q-5 -6 -13.5 -6t-13.5 6l-49 49q-14 13 -27 0l-99 -99q-13 -13 0 -26l99 -99q13 -13 27 0l49 49q5 6 13.5 6t13.5 -6l49 -49q14 -13 27 0l49 49q14 14 27 0q14 -13 0 -27l-49 -49q-6 -5 -6 -13.5t6 -13.5l98 -98q14 -14 28 0l49 49q13 13 27 0q13 -14 0 -27l-50 -49 q-13 -14 0 -27l50 -49q12 -14 0 -28q-14 -13 -27 0l-49 50q-14 12 -28 0l-98 -99q-14 -13 0 -27l49 -49q14 -13 0 -27q-13 -13 -27 0l-49 50q-13 13 -27 0l-49 -50q-5 -5 -13.5 -5t-13.5 5l-49 50q-14 13 -27 0l-50 -50q-13 -13 -26 0l-50 50q-13 13 -27 0l-49 -50 q-5 -5 -13.5 -5t-13.5 5zM194 76l23 -22q13 -13 26 0l23 22q13 14 0 27l-23 23q-13 13 -26 0l-23 -23q-13 -13 0 -27zM341 394.5q0 -8.5 6 -13.5l22 -22q13 -13 27 0l22 22q5 5 5 13.5t-5 13.5l-22 22q-5 6 -13.5 6t-13.5 -6l-22 -22q-6 -5 -6 -13.5zM341 699.5 q0 -8.5 6 -13.5l22 -22q5 -6 13.5 -6t13.5 6l22 22q5 5 5 13.5t-5 13.5l-22 22q-14 13 -27 0l-22 -22q-6 -5 -6 -13.5zM347 76l22 -22q5 -5 13.5 -5t13.5 5l22 22q13 14 0 27l-22 23q-5 5 -13.5 5t-13.5 -5l-22 -23q-14 -13 0 -27zM493 699.5q0 -8.5 6 -13.5l22 -22 q14 -14 27 0l23 22q13 14 0 27l-23 22q-13 13 -27 0l-22 -22q-6 -5 -6 -13.5z" />
<glyph unicode="t" horiz-adv-x="917" d="M64 610q-13 13 0 27l49 49q14 13 0 27l-49 49q-13 14 0 27t27 0l49 -49q5 -6 13.5 -6t13.5 6l49 49q14 13 27 0l50 -49q5 -6 13 -6t13 6l50 49q13 13 27 0q13 -13 0 -27l-50 -49q-13 -14 0 -27l99 -99q13 -13 27 0l98 99q14 13 0 27l-49 49q-13 14 0 27q14 13 27 0 l49 -49q14 -14 27 0l49 49q14 13 27 0l50 -49q13 -14 27 0l49 49q13 13 27 0q13 -13 0 -27l-50 -49q-13 -14 0 -27l50 -49q13 -14 0 -27q-14 -14 -27 0l-49 49q-14 13 -27 0l-50 -49q-13 -14 -27 0l-49 49q-13 13 -27 0l-98 -99q-6 -5 -6 -13t6 -13l49 -50q13 -13 0 -27 l-49 -49q-6 -5 -6 -13.5t6 -13.5l49 -49q13 -14 0 -27l-49 -49q-14 -14 0 -27l49 -49q12 -14 0 -28l-49 -49q-14 -13 0 -27l49 -49q13 -13 0 -27q-13 -13 -27 0l-49 49q-5 6 -13.5 6t-13.5 -6l-49 -49q-14 -13 -27 0q-14 14 0 27l49 49q13 14 0 27l-49 49q-14 14 0 28l49 49 q13 13 0 27l-49 49q-14 13 0 27l49 49q5 5 5 13.5t-5 13.5l-49 49q-14 14 0 27l49 50q13 13 0 26l-99 99q-13 13 -26 0l-50 -49q-13 -14 -27 0l-49 49q-13 13 -27 0l-49 -49q-14 -14 -27 0zM194 686l22 -22q14 -14 27 0l22 22q14 13 0 27l-22 22q-13 13 -27 0l-22 -22 q-13 -14 0 -27zM423 152l22 -22q5 -5 13.5 -5t13.5 5l22 22q12 14 0 28l-22 22q-5 5 -13.5 5t-13.5 -5l-22 -22q-14 -14 0 -28zM423 305l22 -23q5 -5 13.5 -5t13.5 5l22 23q13 13 0 27l-22 22q-5 6 -13.5 6t-13.5 -6l-22 -22q-14 -14 0 -27zM423 457l22 -22q13 -13 27 0 l22 22q13 14 0 27l-22 22q-5 6 -13.5 6t-13.5 -6l-22 -22q-14 -13 0 -27zM651 686l22 -22q14 -14 27 0l23 22q13 13 0 27l-23 22q-13 13 -27 0l-22 -22q-13 -14 0 -27z" />
<glyph unicode="u" d="M58 470.5q0 8.5 6 13.5l49 49q13 14 0 27l-49 50q-6 5 -6 13t6 13l49 50q13 13 0 27l-49 49q-6 5 -6 13.5t6 13.5q13 13 27 0l49 -49q14 -14 27 0l49 49q14 13 27 0t0 -27l-49 -49q-14 -14 0 -27l49 -50q13 -13 0 -26l-49 -50q-14 -13 0 -27l49 -49q13 -14 0 -27l-49 -49 q-14 -14 0 -27l49 -49q13 -14 0 -27l-49 -49q-14 -14 0 -28l98 -98q14 -14 27 0l50 49q13 14 27 0l49 -49q13 -14 27 0l98 98q14 14 0 28l-49 49q-13 13 0 27l49 49q14 13 0 27l-49 49q-13 13 0 27l49 49q14 14 0 27l-49 50q-13 13 0 26l49 50q14 13 0 27l-49 49 q-13 14 0 27t27 0l49 -49q14 -14 27 0l50 49q13 13 26 0q6 -5 6 -13.5t-6 -13.5l-49 -49q-13 -14 0 -27l49 -50q6 -5 6 -13t-6 -13l-49 -50q-13 -13 0 -27l49 -49q6 -5 6 -13.5t-6 -13.5l-49 -49q-13 -14 0 -27l49 -49q14 -14 0 -27l-49 -49q-12 -14 0 -28l49 -49 q14 -13 0 -27q-13 -13 -26 0l-50 50q-13 13 -27 0l-98 -99q-14 -13 0 -27l49 -49q5 -5 5 -13.5t-5 -13.5q-14 -14 -27 0l-49 49q-14 13 -27 0l-49 -49q-14 -14 -27 0l-50 49q-13 13 -27 0l-49 -49q-13 -14 -27 0q-5 5 -5 13.5t5 13.5l50 49q13 14 0 27l-99 99q-13 13 -27 0 l-49 -50q-14 -13 -27 0q-14 14 0 27l49 49q12 14 0 28l-49 49q-14 13 0 27l49 49q13 13 0 27l-49 49q-6 5 -6 13.5zM112 470.5q0 -8.5 6 -13.5l22 -22q14 -14 27 0l22 22q6 5 6 13.5t-6 13.5l-22 22q-13 14 -27 0l-22 -22q-6 -5 -6 -13.5zM112 623q0 -8 6 -13l22 -23 q14 -13 27 0l22 23q6 5 6 13t-6 13l-22 23q-13 13 -27 0l-22 -23q-6 -5 -6 -13zM118 305l22 -23q14 -13 27 0l22 23q14 13 0 27l-22 22q-13 13 -27 0l-22 -22q-14 -14 0 -27zM346 76l23 -22q13 -14 27 0l22 22q13 14 0 27l-22 22q-14 14 -27 0l-23 -22q-13 -13 0 -27z M575 305l22 -23q14 -13 27 0l22 23q14 13 0 27l-22 22q-13 13 -27 0l-22 -22q-13 -14 0 -27zM575 457l22 -22q14 -14 27 0l22 22q6 5 6 13.5t-6 13.5l-22 22q-13 14 -27 0l-22 -22q-13 -14 0 -27zM575 610l22 -23q14 -13 27 0l22 23q6 5 6 13t-6 13l-22 23q-13 13 -27 0 l-22 -23q-13 -13 0 -26z" />
<glyph unicode="v" horiz-adv-x="917" d="M64 305q-13 13 0 27l49 49q6 5 6 13.5t-6 13.5l-49 49q-13 14 0 27l49 50q6 5 6 13t-6 13l-49 50q-13 13 0 26l49 50q14 13 0 27l-49 49q-13 14 0 27q14 13 27 0l50 -49q5 -6 13 -6t13 6l50 49q13 13 27 0q13 -13 0 -27l-50 -49q-13 -14 0 -27l50 -50q13 -13 0 -26 l-50 -50q-13 -13 0 -26l50 -50q13 -13 0 -27l-50 -49q-5 -5 -5 -13.5t5 -13.5l99 -99q5 -5 13.5 -5t13.5 5l49 50q14 13 27 0q13 -14 0 -27l-49 -49q-14 -14 0 -27l98 -99q14 -13 27 0l99 99q13 13 0 27l-50 49q-13 13 0 27q14 12 28 0l49 -50q13 -13 27 0l98 99q6 5 6 13.5 t-6 13.5l-49 49q-13 14 0 27l49 50q6 5 6 13t-6 13l-49 50q-13 13 0 26l49 50q14 13 0 27l-49 49q-13 14 0 27t27 0l49 -49q13 -14 27 0l49 49q14 13 27 0q14 -13 0 -27l-49 -49q-13 -14 0 -27l49 -50q6 -5 6 -13t-6 -13l-49 -50q-13 -13 0 -26l49 -50q14 -13 0 -27l-49 -49 q-5 -5 -5 -13.5t5 -13.5l49 -49q14 -14 0 -27q-13 -13 -27 0l-49 49q-14 14 -27 0l-99 -98q-13 -14 0 -27l50 -49q12 -14 0 -28q-14 -13 -27 0l-49 50q-14 13 -27 0l-99 -99q-13 -13 0 -27l50 -49q13 -13 0 -27q-14 -12 -28 0l-49 49q-13 14 -27 0l-49 -49q-13 -13 -27 0 q-13 14 0 27l49 49q14 14 0 27l-98 99q-5 5 -13.5 5t-13.5 -5l-49 -50q-14 -13 -27 0q-14 14 0 28l49 49q13 13 0 27l-99 98q-5 6 -13 6t-13 -6l-50 -49q-13 -13 -27 0zM118 457l23 -22q13 -13 26 0l23 22q13 14 0 27l-23 22q-5 6 -13 6t-13 -6l-23 -22q-13 -13 0 -27z M118 610l23 -23q13 -13 26 0l23 23q13 13 0 26l-23 23q-13 13 -26 0l-23 -23q-13 -13 0 -26zM722 623q0 -8 6 -13l22 -23q13 -13 27 0l22 23q6 5 6 13t-6 13l-22 23q-14 13 -27 0l-22 -23q-6 -5 -6 -13zM728 457l22 -22q13 -13 27 0l22 22q14 14 0 27l-22 22q-14 14 -27 0 l-22 -22q-14 -13 0 -27z" />
<glyph unicode="w" horiz-adv-x="916" d="M58 470.5q0 8.5 6 13.5l49 49q13 14 0 27l-49 50q-6 5 -6 13t6 13l49 50q13 13 0 27l-49 49q-6 5 -6 13.5t6 13.5q13 13 26 0l50 -49q5 -6 13 -6t13 6l50 49q13 13 27 0q13 -13 0 -27l-49 -49q-14 -14 0 -27l49 -50q13 -13 0 -26l-49 -50q-14 -13 0 -27l49 -49 q13 -14 0 -27l-49 -49q-14 -14 0 -27l49 -49q13 -14 0 -27l-49 -49q-14 -14 0 -28l98 -98q14 -13 27 0l99 98q12 14 0 28l-50 49q-13 13 0 27l50 49q13 13 0 27l-50 49q-5 5 -5 13.5t5 13.5l50 49q13 14 0 27l-50 50q-13 13 0 26l50 50q13 13 0 27l-50 49q-5 5 -5 13.5 t5 13.5q14 13 27 0l49 -49q14 -14 27 0l50 49q13 13 27 0q5 -5 5 -13.5t-5 -13.5l-50 -49q-13 -14 0 -27l50 -50q13 -13 0 -26l-50 -50q-13 -13 0 -27l50 -49q5 -5 5 -13.5t-5 -13.5l-50 -49q-13 -14 0 -27l50 -49q13 -14 0 -27l-50 -49q-12 -14 0 -28l99 -98q13 -13 27 0 l98 98q14 14 0 28l-49 49q-13 13 0 27l49 49q14 13 0 27l-49 49q-13 13 0 27l49 49q14 14 0 27l-49 50q-13 13 0 26l49 50q14 13 0 27l-49 49q-13 14 0 27t27 0l49 -49q14 -14 27 0l50 49q13 13 26 0q6 -5 6 -13.5t-6 -13.5l-49 -49q-13 -14 0 -27l49 -50q6 -5 6 -13t-6 -13 l-49 -50q-13 -13 0 -27l49 -49q6 -5 6 -13.5t-6 -13.5l-49 -49q-13 -14 0 -27l49 -49q14 -14 0 -27l-49 -49q-12 -14 0 -28l49 -49q14 -13 0 -27q-13 -13 -26 0l-50 50q-13 13 -27 0l-98 -99q-14 -13 0 -27l49 -49q5 -5 5 -13.5t-5 -13.5q-14 -14 -27 0l-49 49q-14 14 -27 0 l-49 -49q-14 -14 -27 0q-6 5 -6 13.5t6 13.5l49 49q13 14 0 27l-99 99q-13 13 -27 0l-98 -99q-14 -13 0 -27l49 -49q13 -13 0 -27t-27 0l-49 49q-13 14 -27 0l-49 -49q-14 -14 -27 0q-6 5 -6 13.5t6 13.5l49 49q13 14 0 27l-99 99q-13 13 -26 0l-50 -50q-13 -13 -26 0 q-14 14 0 27l49 49q12 14 0 28l-49 49q-14 13 0 27l49 49q13 13 0 27l-49 49q-6 5 -6 13.5zM117 305l23 -23q13 -13 26 0l23 23q13 13 0 27l-23 22q-13 13 -26 0l-23 -22q-13 -14 0 -27zM117 457l23 -22q5 -6 13 -6t13 6l23 22q13 13 0 27l-23 22q-5 6 -13 6t-13 -6l-23 -22 q-13 -14 0 -27zM117 610l23 -23q13 -13 26 0l23 23q13 13 0 26l-23 23q-13 13 -26 0l-23 -23q-13 -13 0 -26zM417 470.5q0 -8.5 5 -13.5l22 -22q14 -14 27 0l23 22q5 5 5 13.5t-5 13.5l-23 22q-13 14 -27 0l-22 -22q-5 -5 -5 -13.5zM422 305l22 -23q14 -13 27 0l23 23 q13 13 0 27l-23 22q-13 13 -27 0l-22 -22q-13 -14 0 -27zM422 610l22 -23q14 -13 27 0l23 23q13 13 0 26l-23 23q-13 13 -27 0l-22 -23q-13 -13 0 -26zM727 305l22 -23q14 -13 27 0l22 23q14 13 0 27l-22 22q-13 13 -27 0l-22 -22q-13 -14 0 -27zM727 457l22 -22 q14 -14 27 0l22 22q6 5 6 13.5t-6 13.5l-22 22q-13 14 -27 0l-22 -22q-13 -14 0 -27zM727 610l22 -23q14 -13 27 0l22 23q6 5 6 13t-6 13l-22 23q-13 13 -27 0l-22 -23q-13 -13 0 -26z" />
<glyph unicode="x" horiz-adv-x="917" d="M59 775.5q0 8.5 5 13.5q14 13 27 0l50 -49q5 -6 13 -6t13 6l50 49q13 13 26 0q6 -5 6 -13.5t-6 -13.5l-49 -49q-13 -14 0 -27l99 -99q13 -13 27 0l49 49q5 6 13.5 6t13.5 -6q13 -13 0 -26l-49 -50q-14 -13 0 -27l98 -98q14 -13 27 0l99 98q13 14 0 27l-50 50q-13 13 0 26 q14 14 27 0l49 -49q14 -12 28 0l98 99q14 13 0 27l-49 49q-6 5 -6 13.5t6 13.5q13 13 27 0l49 -49q13 -14 27 0l49 49q14 13 27 0q6 -5 6 -13.5t-6 -13.5l-49 -49q-13 -14 0 -27l49 -50q6 -5 6 -13t-6 -13q-5 -6 -13.5 -6t-13.5 6l-49 49q-14 13 -27 0l-99 -99 q-13 -13 0 -27l50 -49q13 -14 0 -27q-14 -13 -27 0l-49 49q-14 14 -28 0l-98 -98q-13 -14 0 -27l98 -99q14 -12 28 0l49 50q13 13 27 0q13 -14 0 -27l-50 -49q-13 -14 0 -27l99 -99q13 -13 27 0l49 49q5 6 13.5 6t13.5 -6q14 -13 0 -27l-49 -49q-13 -13 0 -27l49 -49 q14 -13 0 -27q-5 -5 -13.5 -5t-13.5 5l-49 49q-14 14 -27 0l-49 -49q-14 -13 -27 0q-14 14 0 27l49 49q14 14 0 27l-98 99q-14 12 -28 0l-49 -50q-13 -13 -27 0q-13 14 0 27l50 50q13 13 0 27l-99 98q-13 14 -27 0l-98 -98q-14 -14 0 -27l49 -50q13 -13 0 -27 q-5 -5 -13.5 -5t-13.5 5l-49 50q-14 13 -27 0l-99 -99q-13 -13 0 -27l49 -49q14 -13 0 -27q-13 -13 -26 0l-50 49q-5 6 -13 6t-13 -6l-50 -49q-13 -13 -27 0q-13 14 0 27l49 49q14 14 0 27l-49 49q-13 14 0 27q14 14 27 0l50 -49q13 -13 26 0l99 99q13 13 0 27l-49 49 q-14 13 0 27q13 13 26 0l50 -50q13 -13 27 0l98 99q14 13 0 27l-98 98q-14 14 -27 0l-50 -49q-13 -13 -26 0q-6 5 -6 13.5t6 13.5l49 49q13 14 0 27l-99 99q-13 13 -26 0l-50 -49q-13 -14 -27 0q-13 13 0 26l49 50q14 13 0 27l-49 49q-5 5 -5 13.5z" />
<glyph unicode="y" horiz-adv-x="917" d="M64 609q-13 14 0 27l49 49q14 14 0 27l-49 50q-13 13 0 27q14 13 27 0l49 -50q14 -13 27 0l50 50q13 13 27 0q13 -14 0 -27l-50 -50q-13 -13 0 -27l99 -98q13 -13 27 0l49 49q13 14 27 0q13 -13 0 -27l-50 -49q-5 -5 -5 -13.5t5 -13.5l99 -98q13 -14 27 0l98 98 q6 5 6 13.5t-6 13.5l-49 49q-13 14 0 27q5 6 13.5 6t13.5 -6l49 -49q14 -13 27 0l99 98q13 14 0 27l-50 50q-13 13 0 27q14 13 27 0l50 -50q13 -13 27 0l49 50q13 13 27 0q13 -14 0 -27l-50 -50q-13 -13 0 -27l50 -49q13 -13 0 -27q-14 -13 -27 0l-49 50q-14 13 -27 0 l-99 -99q-13 -14 0 -27l49 -49q6 -5 6 -13.5t-6 -13.5q-13 -13 -27 0l-49 49q-13 14 -27 0l-98 -98q-14 -14 0 -27l49 -49q13 -14 0 -27l-49 -50q-14 -13 0 -27l49 -49q13 -13 0 -27l-49 -49q-14 -13 0 -27l49 -49q5 -5 5 -13.5t-5 -13.5t-13.5 -5t-13.5 5l-49 49 q-14 14 -27 0l-49 -49q-14 -13 -27 0q-6 5 -6 13.5t6 13.5l49 49q13 14 0 27l-49 49q-14 14 0 27l49 49q13 14 0 27l-49 50q-14 13 0 27l49 49q13 13 0 27l-98 98q-14 14 -27 0l-49 -49q-14 -13 -27 0q-6 5 -6 13.5t6 13.5l49 49q5 5 5 13.5t-5 13.5l-99 99q-13 13 -27 0 l-49 -50q-13 -13 -27 0zM423 152l22 -22q13 -13 27 0l22 22q14 14 0 27l-22 22q-14 14 -27 0l-22 -22q-14 -13 0 -27zM423 305l22 -23q13 -13 27 0l22 23q14 13 0 27l-22 22q-14 13 -27 0l-22 -22q-14 -14 0 -27z" />
<glyph unicode="z" horiz-adv-x="765" d="M64 0q-13 14 0 27l50 49q13 14 0 27l-50 49q-12 14 0 28q14 12 28 0l49 -50q13 -13 27 0l98 99q14 13 0 27l-49 49q-13 13 0 27q13 13 27 0l49 -49q5 -6 13.5 -6t13.5 6l98 98q6 5 6 13.5t-6 13.5l-49 49q-13 14 0 27q14 14 27 0l50 -49q13 -13 26 0l99 99q13 13 0 26 l-99 99q-13 13 -26 0l-50 -49q-13 -14 -27 0l-49 49q-14 13 -27 0l-49 -49q-14 -14 -27 0l-49 49q-14 13 -27 0l-49 -49q-14 -14 -28 0q-13 13 0 27l50 49q5 5 5 13.5t-5 13.5l-50 49q-13 14 0 27q14 12 28 0l49 -49q13 -14 27 0l49 49q13 13 27 0l49 -49q5 -6 13.5 -6 t13.5 6l49 49q14 13 27 0l50 -49q5 -6 13 -6t13 6l50 49q13 13 26 0l50 -49q13 -14 27 0l49 49q14 13 27 0t0 -27l-49 -49q-6 -5 -6 -13.5t6 -13.5l49 -49q13 -14 0 -27l-49 -50q-6 -5 -6 -13t6 -13l49 -50q13 -13 0 -27q-13 -13 -27 0l-49 50q-14 13 -27 0l-99 -99 q-13 -14 0 -27l49 -49q14 -14 0 -27q-13 -13 -26 0l-50 49q-5 6 -13 6t-13 -6l-99 -98q-13 -14 0 -27l99 -99q13 -13 26 0l50 50q13 13 26 0l50 -50q13 -13 27 0l49 50q14 13 27 0q12 -14 0 -28l-49 -49q-14 -13 0 -27l49 -49q13 -13 0 -27q-13 -13 -27 0l-49 50 q-14 13 -27 0l-50 -50q-13 -13 -26 0l-50 50q-13 13 -26 0l-50 -50q-13 -13 -27 0l-49 50q-5 5 -13.5 5t-13.5 -5l-49 -50q-14 -13 -27 0l-49 50q-14 13 -27 0l-49 -50q-14 -12 -28 0zM189 699.5q0 -8.5 5 -13.5l23 -22q13 -14 27 0l22 22q6 5 6 13.5t-6 13.5l-22 22 q-14 14 -27 0l-23 -22q-5 -5 -5 -13.5zM194 76l23 -22q13 -13 27 0l22 22q14 14 0 27l-22 23q-14 13 -27 0l-23 -23q-13 -13 0 -27zM271 152l22 -22q5 -5 13.5 -5t13.5 5l22 22q14 14 0 28l-22 22q-5 5 -13.5 5t-13.5 -5l-22 -22q-14 -14 0 -28zM347 76l22 -22q14 -13 27 0 l22 22q14 14 0 27l-22 23q-13 13 -27 0l-22 -23q-13 -13 0 -27zM347 686l22 -22q14 -14 27 0l22 22q6 5 6 13.5t-6 13.5l-22 22q-13 14 -27 0l-22 -22q-13 -13 0 -27zM499 76l23 -22q13 -13 26 0l23 22q13 14 0 27l-23 23q-13 13 -26 0l-23 -23q-13 -13 0 -27zM499 686 l23 -22q5 -6 13 -6t13 6l23 22q13 14 0 27l-23 22q-5 6 -13 6t-13 -6l-23 -22q-13 -13 0 -27zM576 610l22 -22q13 -14 27 0l22 22q13 13 0 27l-22 22q-14 13 -27 0l-22 -22q-14 -14 0 -27z" />
<glyph unicode="{" horiz-adv-x="460" d="M64 762q-13 13 0 27q14 13 27 0l305 -305q14 -14 0 -27q-13 -14 -27 0z" />
<glyph unicode="|" horiz-adv-x="612" d="M64 -125l202 201q5 5 5 13.5t-5 13.5l-50 49q-13 14 0 27l50 50q13 13 0 26l-50 50q-13 13 0 27l50 49q5 5 5 13.5t-5 13.5l-50 49q-13 14 0 27l50 49q13 14 0 27l-50 49q-13 14 0 27l50 50q13 13 0 27l-50 49q-13 13 0 27q14 12 28 0l49 -50q13 -13 27 0l201 202 q14 14 27 0q14 -13 0 -27l-201 -201q-14 -14 0 -27l49 -50q13 -13 0 -27l-49 -49q-14 -13 0 -27l49 -49q13 -13 0 -27l-49 -49q-6 -5 -6 -13.5t6 -13.5l49 -49q13 -14 0 -27l-49 -50q-6 -5 -6 -13t6 -13l49 -50q13 -13 0 -27l-49 -49q-6 -5 -6 -13.5t6 -13.5l49 -49 q13 -14 0 -27q-14 -13 -27 0l-49 49q-14 14 -27 0l-202 -202q-13 -13 -27 0q-12 14 0 28zM270 152l23 -22q13 -13 27 0l22 22q14 14 0 27l-22 22q-14 14 -27 0l-23 -22q-13 -13 0 -27zM270 305l23 -23q13 -13 27 0l22 23q14 13 0 27l-22 22q-14 13 -27 0l-23 -22 q-13 -14 0 -27zM270 457l23 -22q13 -14 27 0l22 22q14 14 0 27l-22 22q-14 14 -27 0l-23 -22q-13 -13 0 -27zM270 609l23 -22q13 -13 27 0l22 22q14 14 0 27l-22 23q-14 13 -27 0l-23 -23q-13 -13 0 -27z" />
<glyph unicode="}" horiz-adv-x="460" d="M64 457q13 -14 27 0l305 305q13 13 0 27q-14 13 -27 0l-305 -305q-14 -14 0 -27z" />
<glyph unicode="~" horiz-adv-x="151" />
<glyph unicode="&#xa3;" horiz-adv-x="917" d="M59 470.5q0 8.5 5 13.5t13.5 5t13.5 -5l49 -49q14 -14 27 0l99 98q13 14 0 27l-49 49q-14 14 0 27q5 6 13 6t13 -6l50 -49q13 -13 27 0l98 98q12 14 0 28l-49 49q-14 13 0 27q13 13 27 0l49 -50q14 -13 27 0l49 50q14 13 27 0l49 -50q14 -12 28 0l49 50q13 13 27 0 q13 -14 0 -27l-50 -49q-12 -14 0 -28l50 -49q13 -13 0 -27q-14 -13 -27 0l-49 50q-14 12 -28 0l-49 -50q-13 -13 -27 0l-49 50q-13 13 -27 0l-98 -99q-14 -13 0 -27l98 -98q14 -14 27 0l49 49q14 13 27 0q6 -5 6 -13.5t-6 -13.5l-49 -49q-14 -14 0 -27l49 -49q14 -14 0 -27 q-13 -14 -27 0l-49 49q-13 14 -27 0l-98 -98q-14 -14 0 -27l98 -99q14 -13 27 0l49 49q14 14 27 0l49 -49q14 -12 28 0l98 99q13 13 0 27l-49 49q-14 13 0 27q13 13 27 0l49 -50q13 -13 27 0l49 50q5 5 13.5 5t13.5 -5q13 -14 0 -27l-49 -49q-14 -14 0 -27l49 -50 q13 -13 0 -27q-5 -5 -13.5 -5t-13.5 5l-49 50q-14 13 -27 0l-99 -99q-13 -13 0 -27l50 -49q13 -13 0 -27q-14 -13 -27 0l-49 49q-14 14 -28 0l-49 -49q-13 -13 -27 0l-49 49q-13 14 -27 0l-49 -49q-5 -5 -13.5 -5t-13.5 5l-49 49q-14 14 -27 0l-50 -49q-13 -13 -26 0l-50 49 q-13 14 -27 0l-49 -49q-5 -5 -13.5 -5t-13.5 5q-13 14 0 27l49 49q14 14 0 27l-49 49q-13 14 0 27q5 6 13.5 6t13.5 -6l49 -49q14 -13 27 0l99 99q13 13 0 27l-99 98q-13 14 -27 0l-49 -49q-5 -6 -13.5 -6t-13.5 6q-13 13 0 27l49 49q14 13 0 27l-49 49q-5 5 -5 13.5z M194 76l23 -22q5 -6 13 -6t13 6l23 22q13 14 0 27l-23 23q-13 13 -26 0l-23 -23q-13 -13 0 -27zM194 381l23 -22q5 -6 13 -6t13 6l23 22q13 13 0 27l-23 22q-13 13 -26 0l-23 -22q-13 -14 0 -27zM265 470.5q0 -8.5 5 -13.5l23 -22q13 -14 27 0l22 22q5 5 5 13.5t-5 13.5 l-22 22q-14 14 -27 0l-23 -22q-5 -5 -5 -13.5zM270 152l23 -22q13 -13 27 0l22 22q13 14 0 27l-22 23q-14 13 -27 0l-23 -23q-13 -13 0 -27zM270 305l23 -23q13 -13 27 0l22 23q13 13 0 27l-22 22q-14 14 -27 0l-23 -22q-13 -14 0 -27zM347 76l22 -22q5 -6 13.5 -6t13.5 6 l22 22q13 14 0 27l-22 23q-5 5 -13.5 5t-13.5 -5l-22 -23q-14 -13 0 -27zM347 381l22 -22q5 -6 13.5 -6t13.5 6l22 22q13 13 0 27l-22 22q-5 5 -13.5 5t-13.5 -5l-22 -22q-14 -14 0 -27zM499 76l22 -22q14 -14 27 0l23 22q13 14 0 27l-23 23q-13 13 -27 0l-22 -23 q-14 -13 0 -27zM499 685l22 -22q14 -13 27 0l23 22q12 14 0 28l-23 22q-13 13 -27 0l-22 -22q-14 -14 0 -28z" />
<glyph unicode="&#xa9;" horiz-adv-x="1222" d="M64 76q-13 14 0 27l49 49q14 14 0 27l-49 49q-12 14 0 28l49 49q14 13 0 27l-49 49q-13 13 0 27l49 49q6 5 6 13.5t-6 13.5l-49 49q-13 14 0 27q14 14 27 0l50 -49q13 -13 26 0l99 99q13 13 0 26l-49 50q-14 13 0 27q13 13 27 0l49 -49q5 -6 13.5 -6t13.5 6l98 98 q6 5 6 13.5t-6 13.5l-49 49q-13 14 0 27q14 13 27 0l49 -49q14 -14 27 0l49 49q14 12 28 0l49 -49q13 -14 27 0l49 49q13 13 27 0l49 -49q5 -6 13.5 -6t13.5 6l49 49q14 13 27 0q14 -13 0 -27l-49 -49q-5 -5 -5 -13.5t5 -13.5l99 -98q5 -6 13 -6t13 6l50 49q13 13 26 0 q14 -14 0 -27l-49 -50q-13 -13 0 -26l99 -99q13 -13 27 0l49 49q14 14 27 0q13 -13 0 -27l-49 -49q-6 -5 -6 -13.5t6 -13.5l49 -49q13 -14 0 -27l-49 -49q-14 -14 0 -27l49 -49q12 -14 0 -28l-49 -49q-14 -13 0 -27l49 -49q13 -13 0 -27q-13 -13 -27 0l-49 50q-14 13 -27 0 l-99 -99q-5 -5 -5 -13.5t5 -13.5l49 -49q14 -14 0 -27q-5 -6 -13 -6t-13 6l-50 49q-13 13 -26 0l-99 -99q-13 -13 0 -26l49 -50q14 -13 0 -27q-13 -13 -27 0l-49 50q-13 13 -27 0l-49 -50q-14 -13 -27 0l-49 50q-14 13 -27 0l-49 -50q-14 -12 -28 0l-49 50q-13 13 -27 0 l-49 -50q-13 -13 -27 0q-13 14 0 27l49 50q6 5 6 13t-6 13l-98 99q-14 13 -27 0l-49 -49q-14 -14 -27 0q-14 13 0 27l49 49q5 5 5 13.5t-5 13.5l-22 22l-14 14l-13 13l-50 50q-13 13 -26 0l-50 -50q-13 -13 -27 0zM118 228l23 -22q13 -13 26 0l23 22q12 14 0 28l-23 22 q-13 13 -26 0l-23 -22q-12 -14 0 -28zM118 381l23 -22q5 -6 13 -6t13 6l23 22q13 13 0 27l-23 22q-5 6 -13 6t-13 -6l-23 -22q-13 -14 0 -27zM189 470.5q0 -8.5 5 -13.5l50 -49q13 -14 0 -27l-50 -49q-13 -14 0 -27l50 -49q12 -14 0 -28l-50 -49q-13 -13 0 -27l23 -22 l13 -14q6 -6 14 -13l49 -49q5 -6 13.5 -6t13.5 6l49 49q14 13 27 0q14 -13 7 -20l-20 -20l-36 -36q-6 -5 -6 -13.5t6 -13.5l98 -98q14 -14 27 0l49 49q14 12 28 0l49 -49q13 -14 27 0l49 49q13 13 27 0l49 -49q5 -6 13.5 -6t13.5 6l98 98q6 5 6 13.5t-6 13.5l-49 49 q-13 14 0 27q14 13 27 0l50 -49q5 -6 13 -6t13 6l99 98q13 14 0 27l-49 49q-14 14 0 28l49 49q13 13 0 27l-49 49q-14 13 0 27l49 49q5 5 5 13.5t-5 13.5l-99 98q-5 6 -13 6t-13 -6l-50 -49q-13 -13 -27 0q-13 14 0 27l49 50q6 5 6 13t-6 13l-98 99q-13 13 -27 0l-49 -49 q-14 -14 -27 0l-49 49q-14 13 -27 0l-49 -49q-14 -14 -28 0l-49 49q-13 13 -27 0l-98 -99q-6 -5 -6 -13t6 -13l49 -50q13 -13 0 -27q-13 -13 -27 0l-49 49q-5 6 -13.5 6t-13.5 -6l-99 -98q-5 -5 -5 -13.5zM287 470.5q0 8.5 6 13.5q5 6 13.5 6t13.5 -6l49 -49q14 -13 27 0 l99 98q13 14 0 27l-50 50q-13 13 0 26q14 14 27 0l49 -49q14 -12 28 0l49 49q13 14 27 0l49 -49q13 -13 27 0l49 49q5 6 13.5 6t13.5 -6q6 -5 6 -13t-6 -13l-49 -50q-14 -13 0 -27l49 -49q6 -5 6 -13.5t-6 -13.5q-13 -13 -27 0l-49 49q-14 14 -27 0l-49 -49q-14 -13 -27 0 l-49 49q-14 14 -28 0l-98 -98q-14 -14 0 -27l49 -49q14 -14 0 -27l-49 -49q-14 -14 0 -28l98 -98q14 -12 28 0l49 49q13 14 27 0l49 -49q13 -13 27 0l202 202q13 13 26 0q14 -14 0 -27l-201 -202q-14 -13 0 -27l49 -49q6 -5 6 -13.5t-6 -13.5q-5 -6 -13.5 -6t-13.5 6l-49 49 q-14 14 -27 0l-49 -49q-14 -14 -27 0l-49 49q-14 14 -28 0l-49 -49q-13 -14 -27 0q-13 14 0 27l50 49q13 14 0 27l-99 99q-13 13 -27 0l-49 -50q-5 -5 -13.5 -5t-13.5 5q-14 14 0 27l49 49q12 14 0 28l-49 49q-14 13 0 27l49 49q13 13 0 27l-49 49q-6 5 -6 13.5zM347 305 l22 -23q14 -13 27 0l22 23q14 13 0 27l-22 22q-13 14 -27 0l-22 -22q-14 -14 0 -27zM499 -126q-13 -13 0 -26l22 -23q14 -12 28 0l22 23q13 13 0 26l-22 23q-14 12 -28 0zM499 762l22 -22q14 -14 28 0l22 22q13 14 0 27l-22 22q-14 12 -28 0l-22 -22q-13 -13 0 -27zM575 76 l23 -22q13 -14 27 0l22 22q13 14 0 27l-22 23q-14 13 -27 0l-23 -23q-13 -13 0 -27zM575 533l23 -22q13 -13 27 0l22 22q13 14 0 27l-22 22q-14 14 -27 0l-23 -22q-13 -13 0 -27zM651 -126q-13 -13 0 -26l23 -23q13 -13 27 0l22 23q6 5 6 13t-6 13l-22 23q-14 13 -27 0z M651 762l23 -22q13 -14 27 0l22 22q6 5 6 13.5t-6 13.5l-22 22q-14 13 -27 0l-23 -22q-13 -13 0 -27zM1033 228l22 -22q13 -13 27 0l22 22q12 14 0 28l-22 22q-14 13 -27 0l-22 -22q-14 -14 0 -28zM1033 381l22 -22q13 -14 27 0l22 22q13 13 0 27l-22 22q-14 14 -27 0 l-22 -22q-14 -14 0 -27z" />
<glyph unicode="&#xad;" horiz-adv-x="916" d="M64 152q-14 14 0 27l201 202q6 5 6 13.5t-6 13.5l-49 49q-13 14 0 27q14 13 27 0l49 -49q14 -14 28 0l48 49q14 12 28 0l49 -49q13 -14 27 0l49 49q13 13 27 0l49 -49q13 -14 27 0l202 202q13 13 26 0q14 -14 0 -27l-201 -202q-13 -14 0 -27l49 -49q14 -14 0 -27 q-13 -13 -27 0l-49 49q-14 14 -27 0l-49 -49q-14 -13 -27 0l-49 49q-14 14 -27 0l-49 -49q-14 -12 -28 0l-48 49q-14 14 -28 0l-201 -202q-13 -13 -27 0zM341 394.5q0 -8.5 5 -13.5l22 -23q14 -12 28 0l22 23q5 5 5 13.5t-5 13.5l-22 22q-14 14 -28 0l-22 -22 q-5 -5 -5 -13.5zM499 381l22 -23q13 -13 27 0l22 23q6 5 6 13.5t-6 13.5l-22 22q-14 14 -27 0l-22 -22q-13 -14 0 -27z" />
<glyph unicode="&#xae;" horiz-adv-x="1222" d="M64 76q-14 14 0 27l49 49q14 14 0 27l-49 49q-14 14 0 28l49 49q14 13 0 27l-49 49q-14 13 0 27l49 49q6 5 6 13.5t-6 13.5l-49 49q-14 14 0 27q5 6 13.5 6t13.5 -6l49 -49q14 -13 27 0l99 99q13 13 0 26l-50 50q-13 13 0 27q14 13 27 0l49 -49q14 -14 28 0l98 98 q6 5 6 13.5t-6 13.5l-49 49q-14 14 0 27q13 13 27 0l49 -49q13 -14 27 0l49 49q13 13 27 0l49 -49q14 -14 27 0l50 49q13 13 26 0l50 -49q13 -14 27 0l49 49q14 13 27 0t0 -27l-49 -49q-6 -5 -6 -13.5t6 -13.5l98 -98q14 -14 27 0l49 49q14 13 27 0q14 -14 0 -27l-49 -50 q-6 -5 -6 -13t6 -13l98 -99q14 -12 28 0l49 49q13 14 27 0q13 -13 0 -27l-50 -49q-5 -5 -5 -13.5t5 -13.5l50 -49q13 -14 0 -27l-50 -49q-13 -14 0 -27l50 -49q12 -14 0 -28l-50 -49q-13 -13 0 -27l50 -49q13 -13 0 -27q-14 -13 -27 0l-49 50q-14 12 -28 0l-98 -99 q-6 -5 -6 -13.5t6 -13.5l49 -49q14 -14 0 -27q-13 -14 -27 0l-49 49q-13 13 -27 0l-98 -99q-6 -5 -6 -13t6 -13l49 -50q13 -13 0 -27q-13 -13 -27 0l-49 50q-14 13 -27 0l-50 -50q-13 -13 -26 0l-50 50q-13 13 -27 0l-49 -50q-14 -13 -27 0l-49 50q-14 13 -27 0l-49 -50 q-14 -13 -27 0q-14 14 0 27l49 50q6 5 6 13t-6 13l-98 99q-14 12 -28 0l-49 -49q-13 -14 -27 0q-13 13 0 27l50 49q5 5 5 13.5t-5 13.5l-23 22l-13 14q-6 6 -14 13l-49 50q-13 13 -27 0l-49 -50q-5 -5 -13.5 -5t-13.5 5zM118 228l22 -22q14 -13 27 0l23 22q12 14 0 28 l-23 22q-13 13 -27 0l-22 -22q-14 -14 0 -28zM118 381l22 -22q14 -14 27 0l23 22q13 13 0 27l-23 22q-13 14 -27 0l-22 -22q-14 -14 0 -27zM189 470.5q0 -8.5 5 -13.5l49 -49q14 -14 0 -27l-49 -49q-13 -14 0 -27l49 -49q14 -14 0 -28l-49 -49q-13 -13 0 -27l22 -22l14 -14 l13 -13l49 -49q14 -14 28 0l22 22q13 14 0 27l-50 49q-13 14 0 27l50 49q12 14 0 28l-50 49q-13 13 0 27l50 49q13 13 0 27l-50 49q-5 5 -5 13.5t5 13.5l50 49q13 14 0 27l-22 22q-14 14 -28 0l-98 -98q-5 -5 -5 -13.5zM341 13.5q0 -8.5 5 -13.5l99 -98q13 -14 27 0l49 49 q13 13 27 0l49 -49q14 -14 27 0l50 49q13 13 26 0l50 -49q13 -14 27 0l98 98q13 14 0 27l-22 22q-5 6 -13.5 6t-13.5 -6l-49 -49q-14 -14 -27 0q-6 5 -6 13.5t6 13.5l49 49q13 14 0 27l-99 99q-13 13 -26 0l-50 -50q-13 -13 -27 0l-49 50q-5 5 -13.5 5t-13.5 -5l-98 -99 q-14 -13 0 -27l49 -49q5 -5 5 -13.5t-5 -13.5q-14 -14 -27 0l-49 49q-14 14 -27 0l-23 -22q-5 -5 -5 -13.5zM341 470.5q0 -8.5 5 -13.5l23 -22q13 -13 27 0l22 22q6 5 6 13.5t-6 13.5l-22 22q-14 14 -27 0l-23 -22q-5 -5 -5 -13.5zM346 152l23 -22l13 -14q6 7 14 14l22 22 q14 14 0 27l-22 23q-14 13 -27 0l-23 -23q-13 -13 0 -27zM346 305l23 -23q13 -13 27 0l22 23q14 13 0 27l-22 22q-14 14 -27 0l-23 -22q-13 -14 0 -27zM346 610l23 -23q13 -13 27 0l49 49q13 14 27 0l49 -49q13 -13 27 0l49 49q14 14 27 0l50 -49q13 -13 26 0l50 49 q13 14 27 0q13 -13 0 -26l-50 -50q-13 -13 0 -27l99 -98q14 -13 27 0l49 49q14 14 27 0t0 -27l-49 -49q-14 -14 0 -27l49 -49q13 -14 0 -27q-13 -14 -27 0l-49 49q-5 6 -13.5 6t-13.5 -6l-99 -98q-12 -14 0 -28l99 -98q5 -5 13.5 -5t13.5 5l49 49q14 14 27 0q13 -13 0 -27 l-49 -49q-14 -13 0 -27l22 -22q14 -14 27 0l99 98q13 14 0 27l-50 49q-12 14 0 28l50 49q13 13 0 27l-50 49q-13 13 0 27l50 49q5 5 5 13.5t-5 13.5l-99 98q-13 14 -27 0l-49 -49q-13 -13 -27 0q-14 14 0 27l49 50q13 13 0 26l-98 99q-14 13 -27 0l-50 -49q-5 -6 -13 -6 t-13 6l-50 49q-13 13 -27 0l-49 -49q-5 -6 -13.5 -6t-13.5 6l-49 49q-14 13 -27 0l-99 -99q-13 -13 0 -26zM423 228l22 -22q13 -13 27 0l22 22q14 14 0 28l-22 22q-14 13 -27 0l-22 -22q-14 -14 0 -28zM423 381l98 -99q5 -5 13.5 -5t13.5 5l49 50q14 13 27 0l50 -50 q13 -13 26 0l99 99q13 13 0 27l-99 98q-5 6 -13 6t-13 -6l-50 -49q-13 -13 -27 0l-49 49q-5 6 -13.5 6t-13.5 -6l-98 -98q-14 -14 0 -27zM423 533l22 -22q13 -13 27 0l22 22q14 14 0 27l-22 22q-14 14 -27 0l-22 -22q-14 -13 0 -27zM499 -126q-13 -13 0 -26l22 -23 q13 -13 27 0l22 23q6 5 6 13t-6 13l-22 23q-14 13 -27 0zM499 762l22 -22q5 -6 13.5 -6t13.5 6l22 22q6 5 6 13.5t-6 13.5l-22 22q-14 13 -27 0l-22 -22q-13 -13 0 -27zM575 228l22 -22q14 -13 27 0l22 22q14 14 0 28l-22 22q-13 13 -27 0l-22 -22q-12 -14 0 -28zM575 533 l22 -22q14 -13 27 0l22 22q14 14 0 27l-22 22q-13 14 -27 0l-22 -22q-13 -13 0 -27zM651 -126q-13 -13 0 -26l23 -23q13 -13 26 0l23 23q13 13 0 26l-23 23q-13 13 -26 0zM651 762l23 -22q5 -6 13 -6t13 6l23 22q13 14 0 27l-23 22q-13 13 -26 0l-23 -22q-13 -13 0 -27z M1032 228l22 -22q14 -12 28 0l22 22q12 14 0 28l-22 22q-14 12 -28 0l-22 -22q-12 -14 0 -28zM1032 381l22 -22q14 -14 28 0l22 22q13 13 0 27l-22 22q-14 14 -28 0l-22 -22q-13 -14 0 -27z" />
<glyph unicode="&#x2000;" horiz-adv-x="474" />
<glyph unicode="&#x2001;" horiz-adv-x="948" />
<glyph unicode="&#x2002;" horiz-adv-x="474" />
<glyph unicode="&#x2003;" horiz-adv-x="948" />
<glyph unicode="&#x2004;" horiz-adv-x="316" />
<glyph unicode="&#x2005;" horiz-adv-x="237" />
<glyph unicode="&#x2006;" horiz-adv-x="158" />
<glyph unicode="&#x2007;" horiz-adv-x="158" />
<glyph unicode="&#x2008;" horiz-adv-x="118" />
<glyph unicode="&#x2009;" horiz-adv-x="189" />
<glyph unicode="&#x200a;" horiz-adv-x="52" />
<glyph unicode="&#x2010;" horiz-adv-x="916" d="M64 152q-14 14 0 27l201 202q6 5 6 13.5t-6 13.5l-49 49q-13 14 0 27q14 13 27 0l49 -49q14 -14 28 0l48 49q14 12 28 0l49 -49q13 -14 27 0l49 49q13 13 27 0l49 -49q13 -14 27 0l202 202q13 13 26 0q14 -14 0 -27l-201 -202q-13 -14 0 -27l49 -49q14 -14 0 -27 q-13 -13 -27 0l-49 49q-14 14 -27 0l-49 -49q-14 -13 -27 0l-49 49q-14 14 -27 0l-49 -49q-14 -12 -28 0l-48 49q-14 14 -28 0l-201 -202q-13 -13 -27 0zM341 394.5q0 -8.5 5 -13.5l22 -23q14 -12 28 0l22 23q5 5 5 13.5t-5 13.5l-22 22q-14 14 -28 0l-22 -22 q-5 -5 -5 -13.5zM499 381l22 -23q13 -13 27 0l22 23q6 5 6 13.5t-6 13.5l-22 22q-14 14 -27 0l-22 -22q-13 -14 0 -27z" />
<glyph unicode="&#x2011;" horiz-adv-x="916" d="M64 152q-14 14 0 27l201 202q6 5 6 13.5t-6 13.5l-49 49q-13 14 0 27q14 13 27 0l49 -49q14 -14 28 0l48 49q14 12 28 0l49 -49q13 -14 27 0l49 49q13 13 27 0l49 -49q13 -14 27 0l202 202q13 13 26 0q14 -14 0 -27l-201 -202q-13 -14 0 -27l49 -49q14 -14 0 -27 q-13 -13 -27 0l-49 49q-14 14 -27 0l-49 -49q-14 -13 -27 0l-49 49q-14 14 -27 0l-49 -49q-14 -12 -28 0l-48 49q-14 14 -28 0l-201 -202q-13 -13 -27 0zM341 394.5q0 -8.5 5 -13.5l22 -23q14 -12 28 0l22 23q5 5 5 13.5t-5 13.5l-22 22q-14 14 -28 0l-22 -22 q-5 -5 -5 -13.5zM499 381l22 -23q13 -13 27 0l22 23q6 5 6 13.5t-6 13.5l-22 22q-14 14 -27 0l-22 -22q-13 -14 0 -27z" />
<glyph unicode="&#x2012;" horiz-adv-x="916" d="M64 152q-14 14 0 27l201 202q6 5 6 13.5t-6 13.5l-49 49q-13 14 0 27q14 13 27 0l49 -49q14 -14 28 0l48 49q14 12 28 0l49 -49q13 -14 27 0l49 49q13 13 27 0l49 -49q13 -14 27 0l202 202q13 13 26 0q14 -14 0 -27l-201 -202q-13 -14 0 -27l49 -49q14 -14 0 -27 q-13 -13 -27 0l-49 49q-14 14 -27 0l-49 -49q-14 -13 -27 0l-49 49q-14 14 -27 0l-49 -49q-14 -12 -28 0l-48 49q-14 14 -28 0l-201 -202q-13 -13 -27 0zM341 394.5q0 -8.5 5 -13.5l22 -23q14 -12 28 0l22 23q5 5 5 13.5t-5 13.5l-22 22q-14 14 -28 0l-22 -22 q-5 -5 -5 -13.5zM499 381l22 -23q13 -13 27 0l22 23q6 5 6 13.5t-6 13.5l-22 22q-14 14 -27 0l-22 -22q-13 -14 0 -27z" />
<glyph unicode="&#x2013;" horiz-adv-x="1068" d="M64 610q-14 14 0 27q13 13 26 0l202 -202q14 -13 27 0l49 50q14 13 27 0l49 -50q14 -12 28 0l48 50q14 12 28 0l49 -50q13 -13 27 0l49 50q13 13 27 0l49 -50q13 -13 27 0l49 50q14 13 27 0q14 -14 0 -27l-49 -50q-13 -13 0 -26l201 -202q14 -14 0 -27q-13 -13 -26 0 l-202 201q-14 14 -27 0l-49 -49q-14 -13 -27 0l-49 49q-14 14 -27 0l-49 -49q-14 -12 -28 0l-48 49q-14 14 -28 0l-49 -49q-13 -13 -27 0l-49 49q-13 14 -27 0l-49 -49q-13 -13 -27 0q-14 14 0 27l49 50q13 13 0 26zM346 382l22 -23q14 -14 27 0l22 23q6 5 6 13t-6 13 l-22 22q-13 14 -27 0l-22 -22q-13 -13 0 -26zM498 382l22 -23q14 -14 28 0l22 23q13 13 0 26l-22 22q-14 14 -28 0l-22 -22q-13 -13 0 -26zM651 382l22 -23q13 -14 27 0l22 23q6 5 6 13t-6 13l-22 22q-14 14 -27 0l-22 -22q-13 -13 0 -26z" />
<glyph unicode="&#x2014;" horiz-adv-x="1000" d="M57 146v498h886v-498h-886z" />
<glyph unicode="&#x2018;" horiz-adv-x="459" d="M58 623.5q0 -8.5 6 -13.5q13 -13 26 0l50 49q13 14 27 0l202 -201q5 -6 13 -6t13 6q13 13 0 26l-201 202q-14 14 0 27l49 50q13 13 0 26q-14 14 -27 0l-49 -49q-14 -14 -27 0l-50 49q-5 6 -13 6t-13 -6q-6 -5 -6 -13t6 -13l49 -50q13 -13 0 -27l-49 -49q-6 -5 -6 -13.5z " />
<glyph unicode="&#x2019;" horiz-adv-x="459" d="M64 458q-13 13 0 26l201 202q14 14 0 27l-49 50q-13 13 0 26q14 14 27 0l49 -49q14 -14 27 0l50 49q5 6 13 6t13 -6q6 -5 6 -13t-6 -13l-49 -50q-13 -13 0 -27l49 -49q6 -5 6 -13.5t-6 -13.5q-13 -13 -26 0l-50 49q-13 14 -27 0l-202 -201q-5 -6 -13 -6t-13 6z" />
<glyph unicode="&#x201c;" horiz-adv-x="612" d="M64 608q13 -13 27 0l49 50q5 5 13.5 5t13.5 -5l201 -202q14 -12 28 0q12 14 0 28l-126 124q-12 14 0 28l22 22q14 13 27 0l201 -202q14 -12 28 0q12 14 0 28l-202 201q-13 13 0 27l50 49q13 13 0 27q-14 14 -28 0l-49 -49q-13 -13 -27 0l-49 49q-13 14 -27 0l-49 -49 q-13 -13 -27 0l-49 49q-14 14 -27 0q-14 -14 0 -27l49 -49q13 -14 0 -27l-49 -49q-14 -14 0 -28zM194 685q-14 13 0 27l22 22q14 13 27 0l22 -22q13 -14 0 -27l-22 -22q-13 -14 -27 0z" />
<glyph unicode="&#x201d;" horiz-adv-x="612" d="M64 456q-12 14 0 28l202 201q13 13 0 27l-50 49q-13 13 0 27q14 14 28 0l49 -49q13 -13 27 0l49 49q13 14 27 0l49 -49q13 -13 27 0l49 49q14 14 27 0q14 -14 0 -27l-49 -49q-13 -14 0 -27l49 -49q14 -14 0 -28q-13 -13 -27 0l-49 50q-5 5 -13.5 5t-13.5 -5l-201 -202 q-14 -12 -28 0q-12 14 0 28l126 124q12 14 0 28l-22 22q-14 13 -27 0l-201 -202q-14 -12 -28 0zM347 685l22 -22q13 -14 27 0l22 22q14 13 0 27l-22 22q-14 13 -27 0l-22 -22q-13 -14 0 -27z" />
<glyph unicode="&#x2022;" horiz-adv-x="612" d="M64 305q-13 13 0 27l50 49q5 5 5 13.5t-5 13.5l-50 49q-13 14 0 27q14 12 28 0l48 -50q14 -12 28 0l98 100q13 13 0 26l-49 50q-14 13 0 27q13 13 27 0l49 -50q13 -13 27 0l49 50q13 13 27 0q14 -14 0 -27l-49 -50q-13 -13 0 -26l98 -100q14 -13 27 0l50 50q13 13 26 0 q14 -13 0 -27l-48 -49q-6 -5 -6 -13.5t6 -13.5l48 -49q14 -14 0 -27q-13 -13 -26 0l-50 49q-13 14 -27 0l-98 -99q-13 -13 0 -26l49 -50q14 -13 0 -27q-5 -5 -13.5 -5t-13.5 5l-49 50q-14 13 -27 0l-49 -50q-14 -13 -27 0q-14 14 0 27l49 50q13 13 0 26l-98 99q-14 14 -28 0 l-48 -49q-14 -12 -28 0zM195 381l98 -99q13 -13 27 0l99 99q13 13 0 27l-99 98q-14 14 -27 0l-98 -98q-13 -14 0 -27z" />
<glyph unicode="&#x2026;" horiz-adv-x="917" d="M59 13.5q0 8.5 5 13.5l49 49q14 14 0 27l-49 50q-13 13 0 26q13 14 27 0l49 -49q5 -5 13.5 -5t13.5 5l49 49q14 14 27 0q13 -13 0 -26l-49 -50q-14 -13 0 -27l49 -49q13 -13 0 -27q-13 -13 -27 0l-49 50q-5 5 -13.5 5t-13.5 -5l-49 -50q-14 -13 -27 0q-5 5 -5 13.5z M369 0q-13 14 0 27l49 49q14 14 0 27l-49 50q-13 13 0 26q13 14 27 0l49 -49q5 -5 13.5 -5t13.5 5l49 49q14 14 27 0q13 -13 0 -26l-50 -50q-13 -13 0 -27l50 -49q5 -5 5 -13.5t-5 -13.5q-13 -13 -27 0l-49 50q-5 5 -13.5 5t-13.5 -5l-49 -50q-14 -13 -27 0zM668 13.5 q0 8.5 6 13.5l48 49q14 14 0 27l-48 50q-6 5 -6 13t6 13q13 14 27 0l49 -49q5 -5 13.5 -5t13.5 5l49 49q14 14 27 0q13 -13 0 -26l-50 -50q-13 -13 0 -27l50 -49q13 -13 0 -27q-13 -13 -27 0l-49 50q-5 5 -13.5 5t-13.5 -5l-49 -50q-14 -13 -27 0q-6 5 -6 13.5z" />
<glyph unicode="&#x202f;" horiz-adv-x="189" />
<glyph unicode="&#x205f;" horiz-adv-x="237" />
<glyph unicode="&#x20ac;" d="M58 623q0 8 6 13q5 6 13.5 6t13.5 -6l125 -125q14 -13 27 0l23 23q13 13 0 26l-50 50q-13 13 0 26q14 14 27 0l49 -49q14 -12 28 0l98 99q13 13 0 27l-49 49q-14 14 0 27q13 13 27 0l49 -49q13 -14 27 0l49 49q13 13 27 0l49 -49q14 -14 27 0l50 49q13 13 26 0 q14 -13 0 -27l-49 -49q-13 -14 0 -27l49 -50q6 -5 6 -13t-6 -13q-5 -6 -13 -6t-13 6l-50 49q-13 13 -27 0l-49 -49q-5 -6 -13.5 -6t-13.5 6l-49 49q-14 13 -27 0l-99 -99q-13 -13 0 -26l23 -23q13 -13 27 0l49 49q13 14 27 0q13 -13 0 -26l-50 -50q-13 -13 0 -27l23 -22 q13 -13 27 0l49 49q5 6 13.5 6t13.5 -6q14 -13 0 -27l-49 -49q-6 -5 -6 -13.5t6 -13.5l49 -49q14 -14 0 -27t-27 0l-49 49q-14 14 -27 0l-23 -22q-13 -14 0 -27l50 -49q13 -14 0 -27q-14 -14 -27 0l-49 49q-14 13 -27 0l-23 -22q-13 -14 0 -27l99 -99q13 -13 27 0l49 50 q5 5 13.5 5t13.5 -5l49 -50q14 -13 27 0l50 50q13 13 26 0q14 -14 0 -28l-49 -49q-13 -13 0 -27l49 -49q14 -13 0 -27q-13 -13 -26 0l-50 49q-13 14 -27 0l-49 -49q-5 -5 -13.5 -5t-13.5 5l-49 49q-14 14 -27 0l-49 -49q-14 -13 -27 0q-14 14 0 27l49 49q13 14 0 27l-98 99 q-14 12 -28 0l-49 -50q-13 -13 -27 0q-12 14 0 28l50 49q13 13 0 27l-23 22q-13 13 -27 0l-125 -126q-5 -5 -13.5 -5t-13.5 5q-14 14 0 28l202 201q5 5 5 13.5t-5 13.5l-202 202q-6 5 -6 13zM270 305l22 -23q14 -12 28 0l22 23q13 13 0 27l-22 22q-14 14 -28 0l-22 -22 q-13 -14 0 -27zM270 457l22 -22q14 -12 28 0l22 22q13 14 0 27l-22 22q-14 14 -28 0l-22 -22q-13 -13 0 -27zM341 394.5q0 -8.5 5 -13.5l23 -22q13 -14 27 0l22 22q5 5 5 13.5t-5 13.5l-22 22q-14 14 -27 0l-23 -22q-5 -5 -5 -13.5zM499 76l22 -22q5 -6 13.5 -6t13.5 6 l22 22q14 14 0 27l-22 23q-5 5 -13.5 5t-13.5 -5l-22 -23q-14 -13 0 -27zM499 686l22 -22q5 -6 13.5 -6t13.5 6l22 22q14 13 0 27l-22 22q-14 13 -27 0l-22 -22q-14 -14 0 -27z" />
<glyph unicode="&#x2122;" horiz-adv-x="1834" d="M975 13.5q0 8.5 6 13.5l49 49q13 14 0 27l-49 49q-14 14 0 27l49 49q12 14 0 28l-49 49q-14 13 0 27l49 49q13 13 0 27l-49 49q-6 5 -6 13.5t6 13.5l49 49q13 14 0 27l-49 50q-6 5 -6 13t6 13l49 50q13 13 0 27l-49 49q-6 5 -6 13.5t6 13.5q13 13 27 0l49 -49 q13 -14 27 0l49 49q14 13 27 0q6 -5 6 -13.5t-6 -13.5l-49 -49q-14 -14 0 -27l98 -99q14 -13 27 0l50 49q5 6 13 6t13 -6q6 -5 6 -13t-6 -13l-49 -50q-13 -13 0 -27l99 -98q13 -14 27 0l98 98q13 14 0 27l-49 50q-6 5 -6 13t6 13q5 6 13.5 6t13.5 -6l49 -49q14 -13 27 0 l99 99q13 13 0 27l-50 49q-13 14 0 27q14 13 27 0l49 -49q14 -14 28 0l49 49q13 13 27 0q13 -13 0 -27l-50 -49q-13 -14 0 -27l50 -50q13 -13 0 -26l-50 -50q-13 -13 0 -27l50 -49q13 -14 0 -27l-50 -49q-13 -14 0 -27l50 -49q13 -14 0 -27l-50 -49q-12 -14 0 -28l50 -49 q13 -13 0 -27l-50 -49q-13 -13 0 -27l50 -49q13 -13 0 -27q-14 -14 -27 0l-49 49q-14 12 -28 0l-49 -49q-13 -14 -27 0q-13 14 0 27l50 49q13 14 0 27l-50 49q-13 14 0 27l50 49q12 14 0 28l-50 49q-13 13 0 27l50 49q13 13 0 27l-99 98q-13 14 -27 0l-98 -98q-14 -14 0 -27 l49 -49q13 -14 0 -27q-5 -6 -13.5 -6t-13.5 6l-49 49q-14 13 -27 0l-50 -49q-5 -6 -13 -6t-13 6q-14 13 0 27l49 49q13 13 0 27l-99 98q-13 14 -27 0l-98 -98q-14 -14 0 -27l49 -49q14 -14 0 -27l-49 -49q-14 -14 0 -28l49 -49q14 -13 0 -27l-49 -49q-14 -13 0 -27l49 -49 q6 -5 6 -13.5t-6 -13.5q-5 -6 -13.5 -6t-13.5 6l-49 49q-14 13 -27 0l-49 -49q-14 -14 -27 0q-6 5 -6 13.5zM1029 470.5q0 -8.5 6 -13.5l22 -22q13 -14 27 0l22 22q6 5 6 13.5t-6 13.5l-22 22q-14 14 -27 0l-22 -22q-6 -5 -6 -13.5zM1029 623q0 -8 6 -13l22 -23q13 -13 27 0 l22 23q6 5 6 13t-6 13l-22 23q-14 13 -27 0l-22 -23q-6 -5 -6 -13zM1035 152l22 -22q13 -14 27 0l22 22q14 14 0 27l-22 23q-14 13 -27 0l-22 -23q-14 -13 0 -27zM1035 305l22 -23q13 -13 27 0l22 23q14 13 0 27l-22 22q-14 13 -27 0l-22 -22q-14 -14 0 -27zM1111 533 l22 -22q14 -13 27 0l22 22q14 14 0 27l-22 22q-5 6 -13.5 6t-13.5 -6l-22 -22q-14 -13 0 -27zM1568 533l22 -22q14 -13 27 0l23 22q13 14 0 27l-23 22q-13 14 -27 0l-22 -22q-14 -13 0 -27zM1644 152l22 -22q14 -14 28 0l22 22q13 14 0 27l-22 23q-14 12 -28 0l-22 -23 q-13 -13 0 -27zM1644 305l22 -23q14 -12 28 0l22 23q13 13 0 27l-22 22q-14 12 -28 0l-22 -22q-13 -14 0 -27zM1644 457l22 -22q14 -14 28 0l22 22q13 13 0 27l-22 22q-14 14 -28 0l-22 -22q-13 -14 0 -27zM1644 610l22 -23q14 -12 28 0l22 23q13 13 0 26l-22 23 q-14 12 -28 0l-22 -23q-13 -13 0 -26zM64 610q-13 13 0 26l49 50q14 13 0 27l-49 49q-13 14 0 27q14 13 27 0l49 -49q14 -14 27 0l49 49q14 13 27 0l50 -49q13 -14 27 0l49 49q13 13 27 0l49 -49q13 -14 27 0l49 49q13 13 27 0l49 -49q14 -14 27 0l50 49q13 13 26 0l50 -49 q13 -14 27 0l49 49q14 13 27 0t0 -27l-49 -49q-14 -14 0 -27l49 -50q13 -13 0 -26q-5 -6 -13.5 -6t-13.5 6l-49 49q-14 13 -27 0l-50 -49q-5 -6 -13 -6t-13 6l-50 49q-13 13 -27 0l-98 -99q-13 -13 0 -26l49 -50q14 -13 0 -27l-49 -49q-13 -14 0 -27l49 -49q14 -14 0 -27 l-49 -49q-13 -14 0 -27l49 -49q14 -14 0 -28l-49 -49q-13 -13 0 -27l49 -49q14 -13 0 -27q-5 -5 -13.5 -5t-13.5 5l-49 49q-14 14 -27 0l-49 -49q-14 -13 -27 0q-14 14 0 27l49 49q14 14 0 27l-49 49q-14 14 0 28l49 49q14 13 0 27l-49 49q-14 13 0 27l49 49q6 5 6 13.5 t-6 13.5l-49 49q-14 14 0 27l49 50q6 5 6 13t-6 13l-98 99q-14 13 -27 0l-50 -49q-13 -14 -27 0l-49 49q-13 13 -27 0l-49 -49q-13 -14 -27 0zM194 686l22 -22q14 -14 27 0l23 22q13 13 0 27l-23 22q-13 13 -27 0l-22 -22q-13 -14 0 -27zM346 686l23 -22q13 -14 27 0l22 22 q14 13 0 27l-22 22q-14 13 -27 0l-23 -22q-13 -14 0 -27zM417 623q0 -8 6 -13l22 -23q13 -13 27 0l22 23q6 5 6 13t-6 13l-22 23q-14 13 -27 0l-22 -23q-6 -5 -6 -13zM423 152l22 -22q13 -13 27 0l22 22q14 14 0 28l-22 22q-14 13 -27 0l-22 -22q-14 -14 0 -28zM423 305 l22 -23q13 -13 27 0l22 23q14 13 0 27l-22 22q-14 14 -27 0l-22 -22q-14 -14 0 -27zM423 457l22 -22q13 -13 27 0l22 22q14 14 0 27l-22 22q-14 14 -27 0l-22 -22q-14 -13 0 -27zM499 686l22 -22q5 -6 13.5 -6t13.5 6l22 22q14 13 0 27l-22 22q-14 13 -27 0l-22 -22 q-13 -14 0 -27zM651 686l23 -22q5 -6 13 -6t13 6l23 22q13 13 0 27l-23 22q-13 13 -26 0l-23 -22q-13 -14 0 -27z" />
<glyph unicode="&#xe000;" horiz-adv-x="795" d="M0 795h795v-795h-795v795z" />
<glyph unicode="&#xfb01;" />
<glyph unicode="&#xfb02;" horiz-adv-x="1376" d="M828 0q-13 13 0 27l49 49q14 14 0 27l-49 49q-13 14 0 27l49 49q14 14 0 27l-49 50q-13 13 0 27l49 49q14 13 0 27l-49 49q-13 13 0 27l49 49q14 14 0 27l-49 50q-13 13 0 26l49 50q6 5 6 13t-6 13l-49 50q-13 13 0 27q14 13 27 0l49 -49q14 -14 27 0l49 49q14 12 28 0 q13 -14 0 -27l-50 -50q-13 -13 0 -26l50 -50q13 -13 0 -26l-50 -50q-13 -13 0 -27l50 -49q13 -14 0 -27l-50 -49q-13 -14 0 -27l50 -49q13 -14 0 -27l-50 -50q-13 -13 0 -27l99 -98q13 -14 27 0l49 49q13 13 27 0l49 -49q13 -14 27 0l49 49q14 13 27 0q14 -13 0 -27l-49 -49 q-13 -13 0 -27l49 -49q14 -14 0 -27q-13 -14 -27 0l-49 49q-14 13 -27 0l-49 -49q-14 -14 -27 0l-49 49q-14 13 -27 0l-49 -49q-14 -14 -28 0l-49 49q-13 13 -27 0l-49 -49q-13 -14 -27 0zM876 623q0 -8 6 -13l22 -23q14 -13 27 0l23 23q13 13 0 26l-23 23q-13 13 -27 0 l-22 -23q-6 -5 -6 -13zM882 152l22 -22q14 -14 27 0l23 22q13 14 0 27l-23 23q-13 13 -27 0l-22 -23q-14 -13 0 -27zM882 305l22 -23q14 -13 27 0l23 23q13 13 0 27l-23 22q-13 13 -27 0l-22 -22q-14 -14 0 -27zM882 457l22 -22q14 -14 27 0l23 22q13 13 0 27l-23 22 q-13 14 -27 0l-22 -22q-14 -14 0 -27zM958 76l22 -22q14 -14 28 0l22 22q13 14 0 27l-22 22q-14 14 -28 0l-22 -22q-13 -13 0 -27zM1110 76l23 -22q13 -14 27 0l22 22q14 14 0 27l-22 22q-14 14 -27 0l-23 -22q-13 -13 0 -27zM58 623q0 8 6 13q5 6 13 6t13 -6l50 -49 q13 -13 27 0l98 99q6 5 6 13t-6 13l-49 50q-14 13 0 27q14 13 27 0l49 -49q14 -14 27 0l49 49q14 13 27 0l49 -49q14 -14 28 0l49 49q13 13 27 0l49 -49q13 -14 27 0l49 49q13 13 27 0q14 -14 0 -27l-49 -50q-13 -13 0 -26l49 -50q6 -5 6 -13t-6 -13q-5 -6 -13.5 -6t-13.5 6 l-49 49q-14 13 -27 0l-49 -49q-14 -14 -27 0l-49 49q-14 12 -28 0l-49 -49q-13 -14 -27 0l-49 49q-13 13 -27 0l-98 -99q-14 -13 0 -27l98 -98q14 -14 27 0l49 49q14 13 27 0l49 -49q14 -14 28 0l49 49q13 13 27 0q13 -14 0 -27l-50 -49q-13 -14 0 -27l50 -49q13 -14 0 -27 q-14 -14 -27 0l-49 49q-14 12 -28 0l-49 -49q-13 -14 -27 0l-49 49q-13 13 -27 0l-98 -99q-14 -13 0 -27l49 -49q13 -13 0 -27l-49 -49q-14 -13 0 -27l49 -49q13 -14 0 -27q-5 -6 -13.5 -6t-13.5 6l-49 49q-14 13 -27 0l-50 -49q-5 -6 -13 -6t-13 6q-14 13 0 27l49 49 q13 14 0 27l-49 49q-14 14 0 27l49 49q13 14 0 27l-49 50q-14 13 0 27l49 49q13 13 0 27l-49 49q-14 13 0 27l49 49q13 14 0 27l-49 50q-6 5 -6 13zM118 152l22 -22q13 -14 27 0l22 22q13 14 0 27l-22 23q-14 13 -27 0l-22 -23q-14 -13 0 -27zM118 305l22 -23q13 -13 27 0 l22 23q13 13 0 27l-22 22q-14 13 -27 0l-22 -22q-14 -14 0 -27zM118 457l22 -22q13 -14 27 0l22 22q13 13 0 27l-22 22q-14 14 -27 0l-22 -22q-14 -14 0 -27zM194 381l22 -23q5 -5 13.5 -5t13.5 5l22 23q14 13 0 27l-22 22q-5 6 -13.5 6t-13.5 -6l-22 -22q-14 -14 0 -27z M346 381l22 -23q14 -13 27 0l23 23q13 13 0 27l-23 22q-13 14 -27 0l-22 -22q-13 -14 0 -27zM346 686l22 -23q14 -13 27 0l23 23q13 13 0 26l-23 23q-13 13 -27 0l-22 -23q-13 -13 0 -26zM498 686l23 -23q13 -13 27 0l22 23q6 5 6 13t-6 13l-22 23q-14 13 -27 0l-23 -23 q-13 -13 0 -26z" />
<glyph unicode="&#xfb03;" horiz-adv-x="2140" d="M1586 623q0 8 6 13l49 50q6 5 6 13t-6 13l-49 50q-14 13 0 27q13 13 27 0l49 -49q13 -14 27 0l49 49q14 13 27 0q14 -14 0 -27l-49 -50q-13 -13 0 -26l98 -99q14 -13 27 0l99 99q13 13 0 26l-49 50q-14 13 0 27q13 13 26 0l50 -49q13 -14 27 0l49 49q13 13 27 0 q13 -14 0 -27l-49 -50q-6 -5 -6 -13t6 -13l49 -50q13 -13 0 -26q-5 -6 -13.5 -6t-13.5 6l-49 49q-14 13 -27 0l-99 -99q-13 -13 0 -27l49 -49q14 -14 0 -27l-49 -49q-13 -14 0 -27l49 -49q14 -14 0 -27l-49 -50q-13 -13 0 -27l99 -98q13 -14 27 0l49 49q13 13 27 0 q13 -13 0 -27l-49 -49q-14 -13 0 -27l49 -49q13 -14 0 -27q-5 -6 -13.5 -6t-13.5 6l-49 49q-14 13 -27 0l-50 -49q-5 -6 -13 -6t-13 6q-14 13 0 27l49 49q13 14 0 27l-99 99q-13 13 -27 0l-98 -99q-13 -13 0 -27l49 -49q14 -14 0 -27q-5 -6 -13.5 -6t-13.5 6l-49 49 q-14 13 -27 0l-49 -49q-14 -14 -27 0q-14 13 0 27l49 49q14 14 0 27l-49 49q-14 14 0 27q13 13 27 0l49 -49q13 -14 27 0l98 98q14 14 0 27l-49 50q-13 13 0 27l49 49q14 13 0 27l-49 49q-13 13 0 27l49 49q14 14 0 27l-98 99q-14 13 -27 0l-49 -49q-14 -14 -27 0 q-6 5 -6 13zM1798 305l22 -23q14 -13 27 0l23 23q13 13 0 27l-23 22q-13 13 -27 0l-22 -22q-13 -14 0 -27zM1798 457l22 -22q14 -14 27 0l23 22q13 13 0 27l-23 22q-13 14 -27 0l-22 -22q-13 -14 0 -27zM822 623q0 8 6 13q5 6 13 6t13 -6l50 -49q13 -13 27 0l98 99q6 5 6 13 t-6 13l-49 50q-14 13 0 27q14 13 27 0l49 -49q14 -14 27 0l49 49q14 13 27 0l49 -49q14 -14 28 0l49 49q13 13 27 0l49 -49q13 -14 27 0l49 49q13 13 27 0q14 -14 0 -27l-49 -50q-13 -13 0 -26l49 -50q6 -5 6 -13t-6 -13q-5 -6 -13.5 -6t-13.5 6l-49 49q-14 13 -27 0 l-49 -49q-14 -14 -27 0l-49 49q-14 12 -28 0l-49 -49q-13 -14 -27 0l-49 49q-13 13 -27 0l-98 -99q-14 -13 0 -27l98 -98q14 -14 27 0l49 49q14 13 27 0l49 -49q14 -14 28 0l49 49q13 13 27 0q13 -14 0 -27l-50 -49q-13 -14 0 -27l50 -49q13 -14 0 -27q-14 -14 -27 0l-49 49 q-14 12 -28 0l-49 -49q-13 -14 -27 0l-49 49q-13 13 -27 0l-98 -99q-14 -13 0 -27l49 -49q13 -13 0 -27l-49 -49q-14 -13 0 -27l49 -49q13 -14 0 -27q-5 -6 -13.5 -6t-13.5 6l-49 49q-14 13 -27 0l-50 -49q-5 -6 -13 -6t-13 6q-14 13 0 27l49 49q13 14 0 27l-49 49 q-14 14 0 27l49 49q13 14 0 27l-49 50q-14 13 0 27l49 49q13 13 0 27l-49 49q-14 13 0 27l49 49q13 14 0 27l-49 50q-6 5 -6 13zM882 152l22 -22q13 -14 27 0l22 22q13 14 0 27l-22 23q-14 13 -27 0l-22 -23q-14 -13 0 -27zM882 305l22 -23q13 -13 27 0l22 23q13 13 0 27 l-22 22q-14 13 -27 0l-22 -22q-14 -14 0 -27zM882 457l22 -22q13 -14 27 0l22 22q13 13 0 27l-22 22q-14 14 -27 0l-22 -22q-14 -14 0 -27zM958 381l22 -23q5 -5 13.5 -5t13.5 5l22 23q14 13 0 27l-22 22q-5 6 -13.5 6t-13.5 -6l-22 -22q-14 -14 0 -27zM1110 381l22 -23 q14 -13 27 0l23 23q13 13 0 27l-23 22q-13 14 -27 0l-22 -22q-13 -14 0 -27zM1110 686l22 -23q14 -13 27 0l23 23q13 13 0 26l-23 23q-13 13 -27 0l-22 -23q-13 -13 0 -26zM1262 686l23 -23q13 -13 27 0l22 23q6 5 6 13t-6 13l-22 23q-14 13 -27 0l-23 -23q-13 -13 0 -26z M58 623q0 8 6 13q5 6 13 6t13 -6l50 -49q13 -13 27 0l98 99q6 5 6 13t-6 13l-49 50q-14 13 0 27q14 13 27 0l49 -49q14 -14 27 0l49 49q14 13 27 0l49 -49q14 -14 28 0l49 49q13 13 27 0l49 -49q13 -14 27 0l49 49q13 13 27 0q14 -14 0 -27l-49 -50q-13 -13 0 -26l49 -50 q6 -5 6 -13t-6 -13q-5 -6 -13.5 -6t-13.5 6l-49 49q-14 13 -27 0l-49 -49q-14 -14 -27 0l-49 49q-14 12 -28 0l-49 -49q-13 -14 -27 0l-49 49q-13 13 -27 0l-98 -99q-14 -13 0 -27l98 -98q14 -14 27 0l49 49q14 13 27 0l49 -49q14 -14 28 0l49 49q13 13 27 0q13 -14 0 -27 l-50 -49q-13 -14 0 -27l50 -49q13 -14 0 -27q-14 -14 -27 0l-49 49q-14 12 -28 0l-49 -49q-13 -14 -27 0l-49 49q-13 13 -27 0l-98 -99q-14 -13 0 -27l49 -49q13 -13 0 -27l-49 -49q-14 -13 0 -27l49 -49q13 -14 0 -27q-5 -6 -13.5 -6t-13.5 6l-49 49q-14 13 -27 0l-50 -49 q-5 -6 -13 -6t-13 6q-14 13 0 27l49 49q13 14 0 27l-49 49q-14 14 0 27l49 49q13 14 0 27l-49 50q-14 13 0 27l49 49q13 13 0 27l-49 49q-14 13 0 27l49 49q13 14 0 27l-49 50q-6 5 -6 13zM118 152l22 -22q13 -14 27 0l22 22q13 14 0 27l-22 23q-14 13 -27 0l-22 -23 q-14 -13 0 -27zM118 305l22 -23q13 -13 27 0l22 23q13 13 0 27l-22 22q-14 13 -27 0l-22 -22q-14 -14 0 -27zM118 457l22 -22q13 -14 27 0l22 22q13 13 0 27l-22 22q-14 14 -27 0l-22 -22q-14 -14 0 -27zM194 381l22 -23q5 -5 13.5 -5t13.5 5l22 23q14 13 0 27l-22 22 q-5 6 -13.5 6t-13.5 -6l-22 -22q-14 -14 0 -27zM346 381l22 -23q14 -13 27 0l23 23q13 13 0 27l-23 22q-13 14 -27 0l-22 -22q-13 -14 0 -27zM346 686l22 -23q14 -13 27 0l23 23q13 13 0 26l-23 23q-13 13 -27 0l-22 -23q-13 -13 0 -26zM498 686l23 -23q13 -13 27 0l22 23 q6 5 6 13t-6 13l-22 23q-14 13 -27 0l-23 -23q-13 -13 0 -26z" />
<glyph unicode="&#xfb04;" horiz-adv-x="2140" d="M1592 0q-13 13 0 27l49 49q14 14 0 27l-49 49q-13 14 0 27l49 49q14 14 0 27l-49 50q-13 13 0 27l49 49q14 13 0 27l-49 49q-13 13 0 27l49 49q14 14 0 27l-49 50q-13 13 0 26l49 50q6 5 6 13t-6 13l-49 50q-13 13 0 27q14 13 27 0l49 -49q14 -14 27 0l49 49q14 12 28 0 q13 -14 0 -27l-50 -50q-13 -13 0 -26l50 -50q13 -13 0 -26l-50 -50q-13 -13 0 -27l50 -49q13 -14 0 -27l-50 -49q-13 -14 0 -27l50 -49q13 -14 0 -27l-50 -50q-13 -13 0 -27l99 -98q13 -14 27 0l49 49q13 13 27 0l49 -49q13 -14 27 0l49 49q14 13 27 0q14 -13 0 -27l-49 -49 q-13 -13 0 -27l49 -49q14 -14 0 -27q-13 -14 -27 0l-49 49q-14 13 -27 0l-49 -49q-14 -14 -27 0l-49 49q-14 13 -27 0l-49 -49q-14 -14 -28 0l-49 49q-13 13 -27 0l-49 -49q-13 -14 -27 0zM1640 623q0 -8 6 -13l22 -23q14 -13 27 0l23 23q13 13 0 26l-23 23q-13 13 -27 0 l-22 -23q-6 -5 -6 -13zM1646 152l22 -22q14 -14 27 0l23 22q13 14 0 27l-23 23q-13 13 -27 0l-22 -23q-14 -13 0 -27zM1646 305l22 -23q14 -13 27 0l23 23q13 13 0 27l-23 22q-13 13 -27 0l-22 -22q-14 -14 0 -27zM1646 457l22 -22q14 -14 27 0l23 22q13 13 0 27l-23 22 q-13 14 -27 0l-22 -22q-14 -14 0 -27zM1722 76l22 -22q14 -14 28 0l22 22q13 14 0 27l-22 22q-14 14 -28 0l-22 -22q-13 -13 0 -27zM1874 76l23 -22q13 -14 27 0l22 22q14 14 0 27l-22 22q-14 14 -27 0l-23 -22q-13 -13 0 -27zM822 623q0 8 6 13q5 6 13 6t13 -6l50 -49 q13 -13 27 0l98 99q6 5 6 13t-6 13l-49 50q-14 13 0 27q14 13 27 0l49 -49q14 -14 27 0l49 49q14 13 27 0l49 -49q14 -14 28 0l49 49q13 13 27 0l49 -49q13 -14 27 0l49 49q13 13 27 0q14 -14 0 -27l-49 -50q-13 -13 0 -26l49 -50q6 -5 6 -13t-6 -13q-5 -6 -13.5 -6t-13.5 6 l-49 49q-14 13 -27 0l-49 -49q-14 -14 -27 0l-49 49q-14 12 -28 0l-49 -49q-13 -14 -27 0l-49 49q-13 13 -27 0l-98 -99q-14 -13 0 -27l98 -98q14 -14 27 0l49 49q14 13 27 0l49 -49q14 -14 28 0l49 49q13 13 27 0q13 -14 0 -27l-50 -49q-13 -14 0 -27l50 -49q13 -14 0 -27 q-14 -14 -27 0l-49 49q-14 12 -28 0l-49 -49q-13 -14 -27 0l-49 49q-13 13 -27 0l-98 -99q-14 -13 0 -27l49 -49q13 -13 0 -27l-49 -49q-14 -13 0 -27l49 -49q13 -14 0 -27q-5 -6 -13.5 -6t-13.5 6l-49 49q-14 13 -27 0l-50 -49q-5 -6 -13 -6t-13 6q-14 13 0 27l49 49 q13 14 0 27l-49 49q-14 14 0 27l49 49q13 14 0 27l-49 50q-14 13 0 27l49 49q13 13 0 27l-49 49q-14 13 0 27l49 49q13 14 0 27l-49 50q-6 5 -6 13zM882 152l22 -22q13 -14 27 0l22 22q13 14 0 27l-22 23q-14 13 -27 0l-22 -23q-14 -13 0 -27zM882 305l22 -23q13 -13 27 0 l22 23q13 13 0 27l-22 22q-14 13 -27 0l-22 -22q-14 -14 0 -27zM882 457l22 -22q13 -14 27 0l22 22q13 13 0 27l-22 22q-14 14 -27 0l-22 -22q-14 -14 0 -27zM958 381l22 -23q5 -5 13.5 -5t13.5 5l22 23q14 13 0 27l-22 22q-5 6 -13.5 6t-13.5 -6l-22 -22q-14 -14 0 -27z M1110 381l22 -23q14 -13 27 0l23 23q13 13 0 27l-23 22q-13 14 -27 0l-22 -22q-13 -14 0 -27zM1110 686l22 -23q14 -13 27 0l23 23q13 13 0 26l-23 23q-13 13 -27 0l-22 -23q-13 -13 0 -26zM1262 686l23 -23q13 -13 27 0l22 23q6 5 6 13t-6 13l-22 23q-14 13 -27 0l-23 -23 q-13 -13 0 -26zM58 623q0 8 6 13q5 6 13 6t13 -6l50 -49q13 -13 27 0l98 99q6 5 6 13t-6 13l-49 50q-14 13 0 27q14 13 27 0l49 -49q14 -14 27 0l49 49q14 13 27 0l49 -49q14 -14 28 0l49 49q13 13 27 0l49 -49q13 -14 27 0l49 49q13 13 27 0q14 -14 0 -27l-49 -50 q-13 -13 0 -26l49 -50q6 -5 6 -13t-6 -13q-5 -6 -13.5 -6t-13.5 6l-49 49q-14 13 -27 0l-49 -49q-14 -14 -27 0l-49 49q-14 12 -28 0l-49 -49q-13 -14 -27 0l-49 49q-13 13 -27 0l-98 -99q-14 -13 0 -27l98 -98q14 -14 27 0l49 49q14 13 27 0l49 -49q14 -14 28 0l49 49 q13 13 27 0q13 -14 0 -27l-50 -49q-13 -14 0 -27l50 -49q13 -14 0 -27q-14 -14 -27 0l-49 49q-14 12 -28 0l-49 -49q-13 -14 -27 0l-49 49q-13 13 -27 0l-98 -99q-14 -13 0 -27l49 -49q13 -13 0 -27l-49 -49q-14 -13 0 -27l49 -49q13 -14 0 -27q-5 -6 -13.5 -6t-13.5 6 l-49 49q-14 13 -27 0l-50 -49q-5 -6 -13 -6t-13 6q-14 13 0 27l49 49q13 14 0 27l-49 49q-14 14 0 27l49 49q13 14 0 27l-49 50q-14 13 0 27l49 49q13 13 0 27l-49 49q-14 13 0 27l49 49q13 14 0 27l-49 50q-6 5 -6 13zM118 152l22 -22q13 -14 27 0l22 22q13 14 0 27l-22 23 q-14 13 -27 0l-22 -23q-14 -13 0 -27zM118 305l22 -23q13 -13 27 0l22 23q13 13 0 27l-22 22q-14 13 -27 0l-22 -22q-14 -14 0 -27zM118 457l22 -22q13 -14 27 0l22 22q13 13 0 27l-22 22q-14 14 -27 0l-22 -22q-14 -14 0 -27zM194 381l22 -23q5 -5 13.5 -5t13.5 5l22 23 q14 13 0 27l-22 22q-5 6 -13.5 6t-13.5 -6l-22 -22q-14 -14 0 -27zM346 381l22 -23q14 -13 27 0l23 23q13 13 0 27l-23 22q-13 14 -27 0l-22 -22q-13 -14 0 -27zM346 686l22 -23q14 -13 27 0l23 23q13 13 0 26l-23 23q-13 13 -27 0l-22 -23q-13 -13 0 -26zM498 686l23 -23 q13 -13 27 0l22 23q6 5 6 13t-6 13l-22 23q-14 13 -27 0l-23 -23q-13 -13 0 -26z" />
</font>
</defs>
</svg>
